SplineFontDB: 3.0
FontName: SpurceSans-XLightItalic
FullName: Spurce Sans XLight Italic
FamilyName: Spurce Sans
Weight: Light
Copyright: Copyright 2020 Nicholas Auler, with font name 'Spurce'\n\nBased on Source Sans, Copyright 2010, 2012, 2014 Adobe Systems Incorporated (http://www.adobe.com/), with Reserved Font Name `Source'.
Version: 0.6
ItalicAngle: -11
UnderlinePosition: -100
UnderlineWidth: 50
Ascent: 750
Descent: 250
InvalidEm: 0
sfntRevision: 0x0000999a
LayerCount: 2
Layer: 0 1 "Back" 1
Layer: 1 1 "Fore" 0
XUID: [1021 316 771282308 76]
StyleMap: 0x0001
FSType: 0
OS2Version: 3
OS2_WeightWidthSlopeOnly: 0
OS2_UseTypoMetrics: 0
CreationTime: 1441032397
ModificationTime: 1588186350
PfmFamily: 33
TTFWeight: 275
TTFWidth: 5
LineGap: 0
VLineGap: 0
Panose: 2 11 3 3 3 4 3 9 2 4
OS2TypoAscent: 750
OS2TypoAOffset: 0
OS2TypoDescent: -250
OS2TypoDOffset: 0
OS2TypoLinegap: 0
OS2WinAscent: 984
OS2WinAOffset: 0
OS2WinDescent: 273
OS2WinDOffset: 0
HheadAscent: 984
HheadAOffset: 0
HheadDescent: -273
HheadDOffset: 0
OS2SubXSize: 650
OS2SubYSize: 600
OS2SubXOff: -15
OS2SubYOff: 75
OS2SupXSize: 650
OS2SupYSize: 600
OS2SupXOff: 68
OS2SupYOff: 350
OS2StrikeYSize: 50
OS2StrikeYPos: 286
OS2CapHeight: 660
OS2XHeight: 478
OS2Vendor: 'ADBO'
OS2CodePages: 20000193.00000000
OS2UnicodeRanges: 20000007.00000001.00000000.00000000
Lookup: 1 0 0 "'aalt' Access All Alternates in Latin lookup 0" { "'aalt' Access All Alternates in Latin lookup 0 subtable"  } ['aalt' ('DFLT' <'dflt' > 'latn' <'dflt' > ) ]
Lookup: 3 0 0 "'aalt' Access All Alternates in Latin lookup 1" { "'aalt' Access All Alternates in Latin lookup 1 subtable"  } ['aalt' ('DFLT' <'dflt' > 'latn' <'dflt' > ) ]
Lookup: 2 0 0 "Multiple Substitution lookup 2" { "Multiple Substitution lookup 2 subtable"  } []

StartChar: .notdef
Encoding: 65536 -1 0
Width: 600
Flags: W
LayerCount: 2
Fore
SplineSet
42 0 m 1,0,-1
 172 660 l 1,1,-1
 588 660 l 1,2,-1
 458 0 l 1,3,-1
 42 0 l 1,0,-1
320 364 m 1,4,-1
 324 364 l 1,5,-1
 396 456 l 1,6,-1
 522 628 l 1,7,-1
 230 628 l 1,8,-1
 286 456 l 1,9,-1
 320 364 l 1,4,-1
96 32 m 1,10,-1
 414 32 l 1,11,-1
 354 208 l 1,12,-1
 314 312 l 1,13,-1
 310 312 l 1,14,-1
 228 208 l 1,15,-1
 96 32 l 1,10,-1
96 72 m 1,16,-1
 294 340 l 1,17,-1
 202 610 l 1,18,-1
 96 72 l 1,16,-1
434 72 m 1,19,-1
 544 610 l 1,20,-1
 342 340 l 1,21,-1
 434 72 l 1,19,-1
EndSplineSet
EndChar

StartChar: A
Encoding: 65 65 2
Width: 480
GlyphClass: 2
Flags: W
AnchorPoint: "Anchor-6" 408 0 basechar 0
AnchorPoint: "Anchor-3" 212 -22 basechar 0
AnchorPoint: "Anchor-1" 344 682 basechar 0
LayerCount: 2
Fore
SplineSet
204 396 m 2,0,-1
 132 264 l 1,1,-1
 372 264 l 1,2,-1
 356 396 l 2,3,4
 350 452 350 452 343 509 c 128,-1,5
 336 566 336 566 330 626 c 1,6,-1
 326 626 l 1,7,8
 296 564 296 564 266 509.5 c 128,-1,9
 236 455 236 455 204 396 c 2,0,-1
-46 0 m 1,10,-1
 320 660 l 1,11,-1
 350 660 l 1,12,-1
 434 0 l 1,13,-1
 404 0 l 1,14,-1
 375 238 l 1,15,-1
 118 238 l 1,16,-1
 -12 0 l 1,17,-1
 -46 0 l 1,10,-1
EndSplineSet
EndChar

StartChar: B
Encoding: 66 66 3
Width: 566
GlyphClass: 2
Flags: W
AnchorPoint: "Anchor-3" 240 -22 basechar 0
AnchorPoint: "Anchor-1" 326 682 basechar 0
LayerCount: 2
Fore
SplineSet
40 0 m 1,0,-1
 172 660 l 1,1,-1
 328 660 l 2,2,3
 420 660 420 660 469 622 c 128,-1,4
 518 584 518 584 518 518 c 0,5,6
 518 480 518 480 503.5 451 c 128,-1,7
 489 422 489 422 466.5 401 c 128,-1,8
 444 380 444 380 417.5 368 c 128,-1,9
 391 356 391 356 368 352 c 1,10,-1
 368 348 l 1,11,12
 392 343 392 343 414.5 332 c 128,-1,13
 437 321 437 321 455 303.5 c 128,-1,14
 473 286 473 286 483.5 261.5 c 128,-1,15
 494 237 494 237 494 206 c 0,16,17
 494 153 494 153 475 114.5 c 128,-1,18
 456 76 456 76 421.5 50.5 c 128,-1,19
 387 25 387 25 338 12.5 c 128,-1,20
 289 0 289 0 230 0 c 2,21,-1
 40 0 l 1,0,-1
142 364 m 1,22,-1
 260 364 l 2,23,24
 374 364 374 364 431 407 c 128,-1,25
 488 450 488 450 488 516 c 0,26,27
 488 572 488 572 446 603 c 128,-1,28
 404 634 404 634 312 634 c 2,29,-1
 196 634 l 1,30,-1
 142 364 l 1,22,-1
74 26 m 1,31,-1
 212 26 l 2,32,33
 268 26 268 26 314.5 35.5 c 128,-1,34
 361 45 361 45 394 66 c 128,-1,35
 427 87 427 87 445.5 121 c 128,-1,36
 464 155 464 155 464 203 c 0,37,38
 464 261 464 261 415.5 299.5 c 128,-1,39
 367 338 367 338 278 338 c 2,40,-1
 138 338 l 1,41,-1
 74 26 l 1,31,-1
EndSplineSet
EndChar

StartChar: C
Encoding: 67 67 4
Width: 536
GlyphClass: 2
Flags: W
AnchorPoint: "Anchor-3" 268 -22 basechar 0
AnchorPoint: "Anchor-2" 274 0 basechar 0
AnchorPoint: "Anchor-1" 406 682 basechar 0
LayerCount: 2
Fore
SplineSet
278 -12 m 0,0,1
 222 -12 222 -12 181 8 c 128,-1,2
 140 28 140 28 112.5 62.5 c 128,-1,3
 85 97 85 97 71.5 144 c 128,-1,4
 58 191 58 191 58 246 c 0,5,6
 58 318 58 318 80.5 393.5 c 128,-1,7
 103 469 103 469 145.5 531 c 128,-1,8
 188 593 188 593 249.5 632.5 c 128,-1,9
 311 672 311 672 390 672 c 0,10,11
 446 672 446 672 482.5 644 c 128,-1,12
 519 616 519 616 542 580 c 1,13,-1
 518 564 l 1,14,15
 498 599 498 599 466.5 622.5 c 128,-1,16
 435 646 435 646 388 646 c 0,17,18
 316 646 316 646 260 608.5 c 128,-1,19
 204 571 204 571 166 513 c 128,-1,20
 128 455 128 455 108 385.5 c 128,-1,21
 88 316 88 316 88 252 c 0,22,23
 88 202 88 202 99 158.5 c 128,-1,24
 110 115 110 115 133.5 83 c 128,-1,25
 157 51 157 51 193.5 32.5 c 128,-1,26
 230 14 230 14 280 14 c 0,27,28
 328 14 328 14 366 31 c 128,-1,29
 404 48 404 48 442 80 c 1,30,-1
 460 60 l 1,31,32
 418 25 418 25 375 6.5 c 128,-1,33
 332 -12 332 -12 278 -12 c 0,0,1
EndSplineSet
EndChar

StartChar: D
Encoding: 68 68 5
Width: 572
GlyphClass: 2
Flags: W
AnchorPoint: "Anchor-3" 242 -22 basechar 0
AnchorPoint: "Anchor-1" 370 682 basechar 0
LayerCount: 2
Fore
SplineSet
40 0 m 1,0,-1
 172 660 l 1,1,-1
 276 660 l 2,2,3
 344 660 344 660 395 641.5 c 128,-1,4
 446 623 446 623 479.5 589 c 128,-1,5
 513 555 513 555 529.5 508 c 128,-1,6
 546 461 546 461 546 404 c 0,7,8
 546 320 546 320 523.5 246.5 c 128,-1,9
 501 173 501 173 457 118 c 128,-1,10
 413 63 413 63 347 31.5 c 128,-1,11
 281 0 281 0 194 0 c 2,12,-1
 40 0 l 1,0,-1
74 26 m 1,13,-1
 196 26 l 2,14,15
 273 26 273 26 333 56.5 c 128,-1,16
 393 87 393 87 433.5 139 c 128,-1,17
 474 191 474 191 495 259 c 128,-1,18
 516 327 516 327 516 402 c 0,19,20
 516 453 516 453 501 495.5 c 128,-1,21
 486 538 486 538 456 569 c 128,-1,22
 426 600 426 600 380.5 617 c 128,-1,23
 335 634 335 634 274 634 c 2,24,-1
 196 634 l 1,25,-1
 74 26 l 1,13,-1
EndSplineSet
EndChar

StartChar: E
Encoding: 69 69 6
Width: 484
GlyphClass: 2
Flags: W
AnchorPoint: "Anchor-6" 330 0 basechar 0
AnchorPoint: "Anchor-3" 234 -22 basechar 0
AnchorPoint: "Anchor-1" 362 682 basechar 0
LayerCount: 2
Fore
SplineSet
40 0 m 1,0,-1
 172 660 l 1,1,-1
 514 660 l 1,2,-1
 508 634 l 1,3,-1
 196 634 l 1,4,-1
 142 364 l 1,5,-1
 406 364 l 1,6,-1
 400 338 l 1,7,-1
 138 338 l 1,8,-1
 74 26 l 1,9,-1
 396 26 l 1,10,-1
 390 0 l 1,11,-1
 40 0 l 1,0,-1
EndSplineSet
EndChar

StartChar: F
Encoding: 70 70 7
Width: 448
GlyphClass: 2
Flags: W
AnchorPoint: "Anchor-3" 66 -22 basechar 0
AnchorPoint: "Anchor-1" 366 682 basechar 0
LayerCount: 2
Fore
SplineSet
40 0 m 1,0,-1
 172 660 l 1,1,-1
 514 660 l 1,2,-1
 508 634 l 1,3,-1
 196 634 l 1,4,-1
 140 352 l 1,5,-1
 404 352 l 1,6,-1
 398 326 l 1,7,-1
 136 326 l 1,8,-1
 70 0 l 1,9,-1
 40 0 l 1,0,-1
EndSplineSet
EndChar

StartChar: G
Encoding: 71 71 8
Width: 570
GlyphClass: 2
Flags: W
AnchorPoint: "Anchor-3" 286 -22 basechar 0
AnchorPoint: "Anchor-1" 406 682 basechar 0
LayerCount: 2
Fore
SplineSet
288 -12 m 0,0,1
 229 -12 229 -12 186 7 c 128,-1,2
 143 26 143 26 114.5 60.5 c 128,-1,3
 86 95 86 95 72 142.5 c 128,-1,4
 58 190 58 190 58 246 c 0,5,6
 58 319 58 319 80 395 c 128,-1,7
 102 471 102 471 145.5 532.5 c 128,-1,8
 189 594 189 594 253 633 c 128,-1,9
 317 672 317 672 400 672 c 0,10,11
 456 672 456 672 492.5 644 c 128,-1,12
 529 616 529 616 552 580 c 1,13,-1
 528 564 l 1,14,15
 508 599 508 599 476.5 622.5 c 128,-1,16
 445 646 445 646 398 646 c 0,17,18
 323 646 323 646 265 608.5 c 128,-1,19
 207 571 207 571 168 513 c 128,-1,20
 129 455 129 455 108.5 385.5 c 128,-1,21
 88 316 88 316 88 252 c 0,22,23
 88 203 88 203 99 160 c 128,-1,24
 110 117 110 117 134 84.5 c 128,-1,25
 158 52 158 52 196.5 33 c 128,-1,26
 235 14 235 14 290 14 c 0,27,28
 338 14 338 14 374 29.5 c 128,-1,29
 410 45 410 45 434 68 c 1,30,-1
 478 290 l 1,31,-1
 320 290 l 1,32,-1
 326 316 l 1,33,-1
 514 316 l 1,34,-1
 460 54 l 1,35,36
 425 24 425 24 383 6 c 128,-1,37
 341 -12 341 -12 288 -12 c 0,0,1
EndSplineSet
EndChar

StartChar: H
Encoding: 72 72 9
Width: 598
GlyphClass: 2
Flags: W
AnchorPoint: "Anchor-3" 266 -22 basechar 0
AnchorPoint: "Anchor-1" 388 682 basechar 0
LayerCount: 2
Fore
SplineSet
40 0 m 1,0,-1
 172 660 l 1,1,-1
 202 660 l 1,2,-1
 142 364 l 1,3,-1
 498 364 l 1,4,-1
 558 660 l 1,5,-1
 588 660 l 1,6,-1
 456 0 l 1,7,-1
 426 0 l 1,8,-1
 494 338 l 1,9,-1
 138 338 l 1,10,-1
 70 0 l 1,11,-1
 40 0 l 1,0,-1
EndSplineSet
EndChar

StartChar: I
Encoding: 73 73 10
Width: 290
GlyphClass: 2
Flags: W
AnchorPoint: "Anchor-1" 240 682 basechar 0
AnchorPoint: "Anchor-3" 100 -30 basechar 0
AnchorPoint: "Anchor-6" 94 0 basechar 0
LayerCount: 2
Fore
SplineSet
-8 0 m 5,0,-1
 -2 26 l 5,1,-1
 84 26 l 5,2,-1
 206 634 l 5,3,-1
 118 634 l 5,4,-1
 124 660 l 5,5,-1
 332 660 l 5,6,-1
 326 634 l 5,7,-1
 236 634 l 5,8,-1
 114 26 l 5,9,-1
 204 26 l 5,10,-1
 198 0 l 5,11,-1
 -8 0 l 5,0,-1
EndSplineSet
Substitution2: "'ss04' Style Set 4 in Latin lookup 23 subtable" I.a
Substitution2: "'aalt' Access All Alternates in Latin lookup 0 subtable" I.a
EndChar

StartChar: J
Encoding: 74 74 11
Width: 428
GlyphClass: 2
Flags: W
AnchorPoint: "Anchor-3" 126 -30 basechar 0
AnchorPoint: "Anchor-1" 422 682 basechar 0
LayerCount: 2
Fore
SplineSet
146 -12 m 0,0,1
 86 -12 86 -12 51.5 17 c 128,-1,2
 17 46 17 46 2 90 c 1,3,-1
 28 102 l 1,4,5
 54 14 54 14 148 14 c 0,6,7
 207 14 207 14 243.5 57.5 c 128,-1,8
 280 101 280 101 294 170 c 2,9,-1
 392 660 l 1,10,-1
 422 660 l 1,11,-1
 324 168 l 2,12,13
 309 85 309 85 263 36.5 c 128,-1,14
 217 -12 217 -12 146 -12 c 0,0,1
EndSplineSet
EndChar

StartChar: K
Encoding: 75 75 12
Width: 522
GlyphClass: 2
Flags: W
AnchorPoint: "Anchor-3" 262 -22 basechar 0
AnchorPoint: "Anchor-1" 386 682 basechar 0
LayerCount: 2
Fore
SplineSet
40 0 m 1,0,-1
 172 660 l 1,1,-1
 202 660 l 1,2,-1
 128 290 l 1,3,-1
 130 290 l 1,4,-1
 526 660 l 1,5,-1
 564 660 l 1,6,-1
 312 420 l 1,7,-1
 464 0 l 1,8,-1
 432 0 l 1,9,-1
 288 400 l 1,10,-1
 120 244 l 1,11,-1
 70 0 l 1,12,-1
 40 0 l 1,0,-1
EndSplineSet
EndChar

StartChar: L
Encoding: 76 76 13
Width: 432
GlyphClass: 2
Flags: W
AnchorPoint: "Anchor-3" 218 -22 basechar 0
AnchorPoint: "Anchor-1" 202 682 basechar 0
LayerCount: 2
Fore
SplineSet
40 0 m 1,0,-1
 172 660 l 1,1,-1
 202 660 l 1,2,-1
 76 26 l 1,3,-1
 376 26 l 1,4,-1
 370 0 l 1,5,-1
 40 0 l 1,0,-1
EndSplineSet
EndChar

StartChar: M
Encoding: 77 77 14
Width: 676
GlyphClass: 2
Flags: W
AnchorPoint: "Anchor-3" 300 -30 basechar 0
AnchorPoint: "Anchor-1" 420 682 basechar 0
LayerCount: 2
Fore
SplineSet
40 0 m 1,0,-1
 172 660 l 1,1,-1
 222 660 l 1,2,-1
 288 262 l 1,3,-1
 314 112 l 1,4,-1
 318 112 l 1,5,-1
 396 262 l 1,6,-1
 616 660 l 1,7,-1
 666 660 l 1,8,-1
 534 0 l 1,9,-1
 504 0 l 1,10,-1
 596 460 l 2,11,12
 605 501 605 501 615 547 c 128,-1,13
 625 593 625 593 634 632 c 1,14,-1
 630 632 l 1,15,-1
 552 490 l 1,16,-1
 326 76 l 1,17,-1
 292 76 l 1,18,-1
 220 490 l 1,19,-1
 196 632 l 1,20,-1
 192 632 l 1,21,22
 184 591 184 591 177 546 c 128,-1,23
 170 501 170 501 162 460 c 2,24,-1
 70 0 l 1,25,-1
 40 0 l 1,0,-1
EndSplineSet
EndChar

StartChar: N
Encoding: 78 78 15
Width: 600
GlyphClass: 2
Flags: W
AnchorPoint: "Anchor-3" 260 -30 basechar 0
AnchorPoint: "Anchor-1" 398 682 basechar 0
LayerCount: 2
Fore
SplineSet
40 0 m 1,0,-1
 172 660 l 1,1,-1
 206 660 l 1,2,-1
 390 174 l 1,3,-1
 438 42 l 1,4,-1
 442 42 l 1,5,6
 450 89 450 89 457.5 136 c 128,-1,7
 465 183 465 183 474 230 c 2,8,-1
 560 660 l 1,9,-1
 590 660 l 1,10,-1
 458 0 l 1,11,-1
 426 0 l 1,12,-1
 244 484 l 1,13,-1
 194 622 l 1,14,-1
 190 622 l 1,15,16
 182 574 182 574 173.5 527.5 c 128,-1,17
 165 481 165 481 156 436 c 2,18,-1
 70 0 l 1,19,-1
 40 0 l 1,0,-1
EndSplineSet
EndChar

StartChar: O
Encoding: 79 79 16
Width: 612
GlyphClass: 2
Flags: W
AnchorPoint: "Anchor-6" 276 0 basechar 0
AnchorPoint: "Anchor-4" 498 650 basechar 0
AnchorPoint: "Anchor-3" 270 -22 basechar 0
AnchorPoint: "Anchor-1" 406 682 basechar 0
LayerCount: 2
Fore
SplineSet
274 -12 m 0,0,1
 220 -12 220 -12 180 8.5 c 128,-1,2
 140 29 140 29 114 65 c 128,-1,3
 88 101 88 101 75 151.5 c 128,-1,4
 62 202 62 202 62 262 c 0,5,6
 62 306 62 306 71 353.5 c 128,-1,7
 80 401 80 401 98 446.5 c 128,-1,8
 116 492 116 492 142.5 533 c 128,-1,9
 169 574 169 574 203.5 605 c 128,-1,10
 238 636 238 636 280 654 c 128,-1,11
 322 672 322 672 372 672 c 0,12,13
 426 672 426 672 466 651.5 c 128,-1,14
 506 631 506 631 532 595 c 128,-1,15
 558 559 558 559 571 508.5 c 128,-1,16
 584 458 584 458 584 398 c 0,17,18
 584 354 584 354 575 306.5 c 128,-1,19
 566 259 566 259 548 213.5 c 128,-1,20
 530 168 530 168 503.5 127 c 128,-1,21
 477 86 477 86 442.5 55 c 128,-1,22
 408 24 408 24 365.5 6 c 128,-1,23
 323 -12 323 -12 274 -12 c 0,0,1
276 14 m 0,24,25
 343 14 343 14 395 51.5 c 128,-1,26
 447 89 447 89 482.5 145.5 c 128,-1,27
 518 202 518 202 536 268.5 c 128,-1,28
 554 335 554 335 554 394 c 0,29,30
 554 449 554 449 543.5 495.5 c 128,-1,31
 533 542 533 542 510.5 575.5 c 128,-1,32
 488 609 488 609 453.5 627.5 c 128,-1,33
 419 646 419 646 370 646 c 0,34,35
 325 646 325 646 287 628.5 c 128,-1,36
 249 611 249 611 218 582 c 128,-1,37
 187 553 187 553 163.5 514.5 c 128,-1,38
 140 476 140 476 124 434 c 128,-1,39
 108 392 108 392 100 348.5 c 128,-1,40
 92 305 92 305 92 266 c 0,41,42
 92 210 92 210 102.5 164 c 128,-1,43
 113 118 113 118 135.5 84.5 c 128,-1,44
 158 51 158 51 192.5 32.5 c 128,-1,45
 227 14 227 14 276 14 c 0,24,25
EndSplineSet
EndChar

StartChar: P
Encoding: 80 80 17
Width: 524
GlyphClass: 2
Flags: W
AnchorPoint: "Anchor-3" 62 -30 basechar 0
AnchorPoint: "Anchor-1" 374 682 basechar 0
LayerCount: 2
Fore
SplineSet
40 0 m 1,0,-1
 172 660 l 1,1,-1
 340 660 l 2,2,3
 431 660 431 660 481.5 624 c 128,-1,4
 532 588 532 588 532 510 c 0,5,6
 532 456 532 456 513 415.5 c 128,-1,7
 494 375 494 375 458 348 c 128,-1,8
 422 321 422 321 371 307.5 c 128,-1,9
 320 294 320 294 256 294 c 2,10,-1
 128 294 l 1,11,-1
 70 0 l 1,12,-1
 40 0 l 1,0,-1
134 320 m 1,13,-1
 250 320 l 2,14,15
 375 320 375 320 438.5 367 c 128,-1,16
 502 414 502 414 502 508 c 0,17,18
 502 576 502 576 456.5 605 c 128,-1,19
 411 634 411 634 322 634 c 2,20,-1
 196 634 l 1,21,-1
 134 320 l 1,13,-1
EndSplineSet
EndChar

StartChar: Q
Encoding: 81 81 18
Width: 612
GlyphClass: 2
Flags: W
AnchorPoint: "Anchor-1" 406 682 basechar 0
LayerCount: 2
Fore
SplineSet
276 14 m 0,0,1
 343 14 343 14 395 51.5 c 128,-1,2
 447 89 447 89 482.5 145.5 c 128,-1,3
 518 202 518 202 536 268.5 c 128,-1,4
 554 335 554 335 554 394 c 0,5,6
 554 449 554 449 543.5 495.5 c 128,-1,7
 533 542 533 542 510.5 575.5 c 128,-1,8
 488 609 488 609 453.5 627.5 c 128,-1,9
 419 646 419 646 370 646 c 0,10,11
 325 646 325 646 287 628.5 c 128,-1,12
 249 611 249 611 218 582 c 128,-1,13
 187 553 187 553 163.5 514.5 c 128,-1,14
 140 476 140 476 124 434 c 128,-1,15
 108 392 108 392 100 348.5 c 128,-1,16
 92 305 92 305 92 266 c 0,17,18
 92 210 92 210 102.5 164 c 128,-1,19
 113 118 113 118 135.5 84.5 c 128,-1,20
 158 51 158 51 192.5 32.5 c 128,-1,21
 227 14 227 14 276 14 c 0,0,1
440 -150 m 0,22,23
 370 -150 370 -150 316 -116.5 c 128,-1,24
 262 -83 262 -83 245 -10 c 1,25,26
 198 -5 198 -5 164 17.5 c 128,-1,27
 130 40 130 40 107 75.5 c 128,-1,28
 84 111 84 111 73 158.5 c 128,-1,29
 62 206 62 206 62 262 c 0,30,31
 62 306 62 306 71 353.5 c 128,-1,32
 80 401 80 401 98 446.5 c 128,-1,33
 116 492 116 492 142.5 533 c 128,-1,34
 169 574 169 574 203.5 605 c 128,-1,35
 238 636 238 636 280 654 c 128,-1,36
 322 672 322 672 372 672 c 0,37,38
 426 672 426 672 466 651.5 c 128,-1,39
 506 631 506 631 532 595 c 128,-1,40
 558 559 558 559 571 508.5 c 128,-1,41
 584 458 584 458 584 398 c 0,42,43
 584 354 584 354 575 306.5 c 128,-1,44
 566 259 566 259 548 213.5 c 128,-1,45
 530 168 530 168 503.5 127 c 128,-1,46
 477 86 477 86 442.5 55 c 128,-1,47
 408 24 408 24 366 6 c 128,-1,48
 324 -12 324 -12 275 -12 c 1,49,50
 289 -68 289 -68 334 -95 c 128,-1,51
 379 -122 379 -122 442 -122 c 0,52,53
 464 -122 464 -122 488 -116 c 1,54,-1
 492 -144 l 1,55,56
 478 -147 478 -147 466.5 -148.5 c 128,-1,57
 455 -150 455 -150 440 -150 c 0,22,23
EndSplineSet
EndChar

StartChar: R
Encoding: 82 82 19
Width: 522
GlyphClass: 2
Flags: W
AnchorPoint: "Anchor-3" 244 -30 basechar 0
AnchorPoint: "Anchor-1" 364 682 basechar 0
LayerCount: 2
Fore
SplineSet
40 0 m 1,0,-1
 172 660 l 1,1,-1
 332 660 l 2,2,3
 421 660 421 660 471.5 626.5 c 128,-1,4
 522 593 522 593 522 518 c 0,5,6
 522 474 522 474 506 437.5 c 128,-1,7
 490 401 490 401 461 374.5 c 128,-1,8
 432 348 432 348 392 331.5 c 128,-1,9
 352 315 352 315 305 311 c 1,10,-1
 434 0 l 1,11,-1
 400 0 l 1,12,-1
 273 310 l 1,13,-1
 132 310 l 1,14,-1
 70 0 l 1,15,-1
 40 0 l 1,0,-1
138 336 m 1,16,-1
 260 336 l 2,17,18
 372 336 372 336 432 383.5 c 128,-1,19
 492 431 492 431 492 516 c 0,20,21
 492 581 492 581 447.5 607.5 c 128,-1,22
 403 634 403 634 314 634 c 2,23,-1
 196 634 l 1,24,-1
 138 336 l 1,16,-1
EndSplineSet
EndChar

StartChar: S
Encoding: 83 83 20
Width: 488
GlyphClass: 2
Flags: W
AnchorPoint: "Anchor-3" 212 -30 basechar 0
AnchorPoint: "Anchor-2" 218 0 basechar 0
AnchorPoint: "Anchor-1" 352 682 basechar 0
LayerCount: 2
Fore
SplineSet
226 -12 m 0,0,1
 155 -12 155 -12 103 16.5 c 128,-1,2
 51 45 51 45 18 98 c 1,3,-1
 42 114 l 1,4,5
 74 66 74 66 119.5 40 c 128,-1,6
 165 14 165 14 230 14 c 0,7,8
 267 14 267 14 299.5 25.5 c 128,-1,9
 332 37 332 37 356 58 c 128,-1,10
 380 79 380 79 394 109 c 128,-1,11
 408 139 408 139 408 176 c 0,12,13
 408 221 408 221 384.5 252 c 128,-1,14
 361 283 361 283 322 306 c 2,15,-1
 234 358 l 2,16,17
 214 370 214 370 195 385 c 128,-1,18
 176 400 176 400 161.5 418 c 128,-1,19
 147 436 147 436 138.5 458 c 128,-1,20
 130 480 130 480 130 506 c 0,21,22
 130 539 130 539 143.5 569 c 128,-1,23
 157 599 157 599 181 622 c 128,-1,24
 205 645 205 645 239 658.5 c 128,-1,25
 273 672 273 672 314 672 c 0,26,27
 374 672 374 672 419 646 c 128,-1,28
 464 620 464 620 490 584 c 1,29,-1
 468 566 l 1,30,31
 442 599 442 599 402 622.5 c 128,-1,32
 362 646 362 646 308 646 c 0,33,34
 274 646 274 646 247 634 c 128,-1,35
 220 622 220 622 200.5 602.5 c 128,-1,36
 181 583 181 583 170.5 559 c 128,-1,37
 160 535 160 535 160 510 c 0,38,39
 160 462 160 462 186.5 433 c 128,-1,40
 213 404 213 404 248 384 c 2,41,-1
 334 334 l 2,42,43
 381 307 381 307 409.5 270.5 c 128,-1,44
 438 234 438 234 438 180 c 0,45,46
 438 136 438 136 421.5 101 c 128,-1,47
 405 66 405 66 376.5 40.5 c 128,-1,48
 348 15 348 15 309.5 1.5 c 128,-1,49
 271 -12 271 -12 226 -12 c 0,0,1
EndSplineSet
EndChar

StartChar: T
Encoding: 84 84 21
Width: 492
GlyphClass: 2
Flags: W
AnchorPoint: "Anchor-3" 202 -22 basechar 0
AnchorPoint: "Anchor-2" 208 0 basechar 0
AnchorPoint: "Anchor-1" 338 682 basechar 0
LayerCount: 2
Fore
SplineSet
180 0 m 1,0,-1
 306 632 l 1,1,-1
 100 632 l 1,2,-1
 106 660 l 1,3,-1
 548 660 l 1,4,-1
 542 632 l 1,5,-1
 336 632 l 1,6,-1
 210 0 l 1,7,-1
 180 0 l 1,0,-1
EndSplineSet
EndChar

StartChar: U
Encoding: 85 85 22
Width: 594
GlyphClass: 2
Flags: W
AnchorPoint: "Anchor-6" 260 0 basechar 0
AnchorPoint: "Anchor-4" 570 670 basechar 0
AnchorPoint: "Anchor-3" 248 -22 basechar 0
AnchorPoint: "Anchor-1" 394 682 basechar 0
LayerCount: 2
Fore
SplineSet
90 262 m 2,0,-1
 170 660 l 1,1,-1
 200 660 l 1,2,-1
 122 270 l 2,3,4
 116 246 116 246 114 226 c 128,-1,5
 112 206 112 206 112 188 c 0,6,7
 112 105 112 105 152 59.5 c 128,-1,8
 192 14 192 14 272 14 c 0,9,10
 304 14 304 14 335 26 c 128,-1,11
 366 38 366 38 392.5 65 c 128,-1,12
 419 92 419 92 439.5 134.5 c 128,-1,13
 460 177 460 177 472 238 c 2,14,-1
 556 660 l 1,15,-1
 586 660 l 1,16,-1
 500 230 l 2,17,18
 486 162 486 162 462.5 116 c 128,-1,19
 439 70 439 70 408 41.5 c 128,-1,20
 377 13 377 13 341 0.5 c 128,-1,21
 305 -12 305 -12 268 -12 c 0,22,23
 180 -12 180 -12 131 38 c 128,-1,24
 82 88 82 88 82 180 c 0,25,26
 82 200 82 200 83.5 219 c 128,-1,27
 85 238 85 238 90 262 c 2,0,-1
EndSplineSet
EndChar

StartChar: V
Encoding: 86 86 23
Width: 450
GlyphClass: 2
Flags: W
AnchorPoint: "Anchor-3" 186 -30 basechar 0
AnchorPoint: "Anchor-1" 326 682 basechar 0
LayerCount: 2
Fore
SplineSet
146 0 m 1,0,-1
 84 660 l 1,1,-1
 112 660 l 1,2,-1
 148 260 l 2,3,4
 154 206 154 206 159.5 150 c 128,-1,5
 165 94 165 94 170 38 c 1,6,-1
 174 38 l 1,7,8
 201 92 201 92 230 149.5 c 128,-1,9
 259 207 259 207 288 260 c 2,10,-1
 498 660 l 1,11,-1
 528 660 l 1,12,-1
 180 0 l 1,13,-1
 146 0 l 1,0,-1
EndSplineSet
EndChar

StartChar: W
Encoding: 87 87 24
Width: 726
GlyphClass: 2
Flags: W
AnchorPoint: "Anchor-3" 314 -30 basechar 0
AnchorPoint: "Anchor-1" 460 682 basechar 0
LayerCount: 2
Fore
SplineSet
110 0 m 1,0,-1
 108 660 l 1,1,-1
 138 660 l 1,2,-1
 138 260 l 2,3,4
 136 206 136 206 137 152 c 128,-1,5
 138 98 138 98 136 44 c 1,6,-1
 140 44 l 1,7,8
 166 98 166 98 191 152 c 128,-1,9
 216 206 216 206 240 260 c 2,10,-1
 428 660 l 1,11,-1
 462 660 l 1,12,-1
 476 260 l 2,13,14
 479 206 479 206 480.5 152 c 128,-1,15
 482 98 482 98 484 44 c 1,16,-1
 488 44 l 1,17,18
 511 98 511 98 533.5 152 c 128,-1,19
 556 206 556 206 580 260 c 2,20,-1
 748 660 l 1,21,-1
 780 660 l 1,22,-1
 496 0 l 1,23,-1
 458 0 l 1,24,-1
 442 472 l 2,25,26
 442 513 442 513 441 550 c 128,-1,27
 440 587 440 587 440 628 c 1,28,-1
 436 628 l 1,29,30
 421 587 421 587 403.5 550 c 128,-1,31
 386 513 386 513 368 472 c 2,32,-1
 148 0 l 1,33,-1
 110 0 l 1,0,-1
EndSplineSet
EndChar

StartChar: X
Encoding: 88 88 25
Width: 446
GlyphClass: 2
Flags: W
AnchorPoint: "Anchor-3" 256 -30 basechar 0
AnchorPoint: "Anchor-1" 322 682 basechar 0
LayerCount: 2
Fore
SplineSet
-36 0 m 1,0,-1
 224 344 l 1,1,-1
 110 660 l 1,2,-1
 140 660 l 1,3,-1
 214 450 l 2,4,5
 222 427 222 427 228.5 408 c 128,-1,6
 235 389 235 389 244 366 c 1,7,-1
 246 366 l 1,8,9
 264 387 264 387 281.5 410 c 128,-1,10
 299 433 299 433 316 456 c 2,11,-1
 468 660 l 1,12,-1
 500 660 l 1,13,-1
 256 338 l 1,14,-1
 380 0 l 1,15,-1
 350 0 l 1,16,-1
 272 218 l 2,17,18
 263 242 263 242 254 267 c 128,-1,19
 245 292 245 292 236 318 c 1,20,-1
 234 318 l 1,21,22
 213 292 213 292 192.5 264 c 128,-1,23
 172 236 172 236 154 212 c 2,24,-1
 -4 0 l 1,25,-1
 -36 0 l 1,0,-1
EndSplineSet
EndChar

StartChar: Y
Encoding: 89 89 26
Width: 422
GlyphClass: 2
Flags: W
AnchorPoint: "Anchor-3" 170 -30 basechar 0
AnchorPoint: "Anchor-1" 304 682 basechar 0
LayerCount: 2
Fore
SplineSet
140 0 m 1,0,-1
 195 273 l 1,1,-1
 86 660 l 1,2,-1
 116 660 l 1,3,-1
 175 445 l 2,4,5
 185 409 185 409 194 374.5 c 128,-1,6
 203 340 203 340 214 303 c 1,7,-1
 217 303 l 1,8,9
 242 338 242 338 266 374 c 128,-1,10
 290 410 290 410 315 445 c 2,11,-1
 466 660 l 1,12,-1
 498 660 l 1,13,-1
 225 273 l 1,14,-1
 170 0 l 1,15,-1
 140 0 l 1,0,-1
EndSplineSet
EndChar

StartChar: Z
Encoding: 90 90 27
Width: 502
GlyphClass: 2
Flags: W
AnchorPoint: "Anchor-3" 208 -30 basechar 0
AnchorPoint: "Anchor-1" 354 682 basechar 0
LayerCount: 2
Fore
SplineSet
2 0 m 1,0,-1
 6 18 l 1,1,-1
 486 634 l 1,2,-1
 152 634 l 1,3,-1
 158 660 l 1,4,-1
 528 660 l 1,5,-1
 524 642 l 1,6,-1
 46 26 l 1,7,-1
 416 26 l 1,8,-1
 410 0 l 1,9,-1
 2 0 l 1,0,-1
EndSplineSet
EndChar

StartChar: a
Encoding: 97 97 28
Width: 524
GlyphClass: 2
Flags: W
AnchorPoint: "Anchor-5" 334 0 basechar 0
AnchorPoint: "Anchor-3" 224 -22 basechar 0
AnchorPoint: "Anchor-0" 314 502 basechar 0
LayerCount: 2
Fore
SplineSet
186 -12 m 0,0,1
 123 -12 123 -12 84.5 31.5 c 128,-1,2
 46 75 46 75 46 160 c 0,3,4
 46 229 46 229 68 289 c 128,-1,5
 90 349 90 349 126.5 394 c 128,-1,6
 163 439 163 439 209.5 464.5 c 128,-1,7
 256 490 256 490 306 490 c 0,8,9
 350 490 350 490 381 468 c 128,-1,10
 412 446 412 446 432 410 c 1,11,-1
 436 410 l 1,12,-1
 454 478 l 1,13,-1
 478 478 l 1,14,-1
 382 0 l 1,15,-1
 358 0 l 1,16,-1
 370 78 l 1,17,-1
 366 78 l 1,18,19
 328 39 328 39 282.5 13.5 c 128,-1,20
 237 -12 237 -12 186 -12 c 0,0,1
188 14 m 0,21,22
 238 14 238 14 285.5 42.5 c 128,-1,23
 333 71 333 71 378 122 c 1,24,-1
 430 372 l 1,25,26
 401 422 401 422 370.5 443 c 128,-1,27
 340 464 340 464 304 464 c 0,28,29
 259 464 259 464 217.5 438 c 128,-1,30
 176 412 176 412 144 370 c 128,-1,31
 112 328 112 328 93 274.5 c 128,-1,32
 74 221 74 221 74 166 c 0,33,34
 74 89 74 89 104.5 51.5 c 128,-1,35
 135 14 135 14 188 14 c 0,21,22
EndSplineSet
Substitution2: "'ss02' Style Set 2 in Latin lookup 21 subtable" a.a
Substitution2: "'sups' Superscript in Latin lookup 12 subtable" a.sups
AlternateSubs2: "'aalt' Access All Alternates in Latin lookup 1 subtable" a.sups a.a
EndChar

StartChar: b
Encoding: 98 98 29
Width: 522
GlyphClass: 2
Flags: W
AnchorPoint: "Anchor-3" 226 -22 basechar 0
AnchorPoint: "Anchor-0" 208 730 basechar 0
LayerCount: 2
Fore
SplineSet
68 0 m 1,0,-1
 44 0 l 1,1,-1
 188 722 l 1,2,-1
 216 722 l 1,3,-1
 172 506 l 1,4,-1
 152 408 l 1,5,-1
 154 408 l 1,6,7
 193 440 193 440 239 465 c 128,-1,8
 285 490 285 490 336 490 c 0,9,10
 399 490 399 490 437.5 446.5 c 128,-1,11
 476 403 476 403 476 318 c 0,12,13
 476 249 476 249 454 189 c 128,-1,14
 432 129 432 129 395.5 84 c 128,-1,15
 359 39 359 39 312 13.5 c 128,-1,16
 265 -12 265 -12 216 -12 c 0,17,18
 172 -12 172 -12 141 10 c 128,-1,19
 110 32 110 32 90 68 c 1,20,-1
 86 68 l 1,21,-1
 68 0 l 1,0,-1
334 464 m 0,22,23
 313 464 313 464 289 457 c 128,-1,24
 265 450 265 450 240.5 437.5 c 128,-1,25
 216 425 216 425 192 408 c 128,-1,26
 168 391 168 391 146 372 c 1,27,-1
 92 106 l 1,28,29
 121 56 121 56 151.5 35 c 128,-1,30
 182 14 182 14 218 14 c 0,31,32
 263 14 263 14 304.5 39.5 c 128,-1,33
 346 65 346 65 378 107 c 128,-1,34
 410 149 410 149 429 202.5 c 128,-1,35
 448 256 448 256 448 312 c 0,36,37
 448 388 448 388 417.5 426 c 128,-1,38
 387 464 387 464 334 464 c 0,22,23
EndSplineSet
Substitution2: "'sups' Superscript in Latin lookup 12 subtable" b.sups
Substitution2: "'aalt' Access All Alternates in Latin lookup 0 subtable" b.sups
EndChar

StartChar: c
Encoding: 99 99 30
Width: 428
GlyphClass: 2
Flags: W
AnchorPoint: "Anchor-3" 216 -22 basechar 0
AnchorPoint: "Anchor-2" 196 0 basechar 0
AnchorPoint: "Anchor-0" 302 502 basechar 0
LayerCount: 2
Fore
SplineSet
210 -12 m 0,0,1
 133 -12 133 -12 88.5 36.5 c 128,-1,2
 44 85 44 85 44 176 c 0,3,4
 44 246 44 246 66 304 c 128,-1,5
 88 362 88 362 124 403.5 c 128,-1,6
 160 445 160 445 205.5 467.5 c 128,-1,7
 251 490 251 490 298 490 c 0,8,9
 339 490 339 490 366.5 474.5 c 128,-1,10
 394 459 394 459 418 432 c 1,11,-1
 398 412 l 1,12,13
 375 439 375 439 353 451.5 c 128,-1,14
 331 464 331 464 296 464 c 0,15,16
 254 464 254 464 213.5 441.5 c 128,-1,17
 173 419 173 419 141.5 380 c 128,-1,18
 110 341 110 341 91 290 c 128,-1,19
 72 239 72 239 72 182 c 0,20,21
 72 99 72 99 106.5 56.5 c 128,-1,22
 141 14 141 14 212 14 c 0,23,24
 250 14 250 14 282.5 29.5 c 128,-1,25
 315 45 315 45 342 66 c 1,26,-1
 358 44 l 1,27,28
 332 24 332 24 296 6 c 128,-1,29
 260 -12 260 -12 210 -12 c 0,0,1
EndSplineSet
Substitution2: "'sups' Superscript in Latin lookup 12 subtable" c.sups
Substitution2: "'aalt' Access All Alternates in Latin lookup 0 subtable" c.sups
EndChar

StartChar: d
Encoding: 100 100 31
Width: 526
GlyphClass: 2
Flags: W
AnchorPoint: "Anchor-3" 222 -22 basechar 0
AnchorPoint: "Anchor-0" 476 730 basechar 0
LayerCount: 2
Fore
SplineSet
436 410 m 1,0,-1
 456 506 l 1,1,-1
 500 722 l 1,2,-1
 528 722 l 1,3,-1
 382 0 l 1,4,-1
 358 0 l 1,5,-1
 370 78 l 1,6,-1
 366 78 l 1,7,8
 328 39 328 39 282.5 13.5 c 128,-1,9
 237 -12 237 -12 186 -12 c 0,10,11
 123 -12 123 -12 84.5 31.5 c 128,-1,12
 46 75 46 75 46 160 c 0,13,14
 46 229 46 229 68 289 c 128,-1,15
 90 349 90 349 126.5 394 c 128,-1,16
 163 439 163 439 209.5 464.5 c 128,-1,17
 256 490 256 490 306 490 c 0,18,19
 350 490 350 490 381 468 c 128,-1,20
 412 446 412 446 432 410 c 1,21,-1
 436 410 l 1,0,-1
188 14 m 0,22,23
 238 14 238 14 285.5 42.5 c 128,-1,24
 333 71 333 71 378 122 c 1,25,-1
 430 372 l 1,26,27
 401 422 401 422 370.5 443 c 128,-1,28
 340 464 340 464 304 464 c 0,29,30
 259 464 259 464 217.5 438 c 128,-1,31
 176 412 176 412 144 370 c 128,-1,32
 112 328 112 328 93 274.5 c 128,-1,33
 74 221 74 221 74 166 c 0,34,35
 74 89 74 89 104.5 51.5 c 128,-1,36
 135 14 135 14 188 14 c 0,22,23
EndSplineSet
Substitution2: "'sups' Superscript in Latin lookup 12 subtable" d.sups
Substitution2: "'aalt' Access All Alternates in Latin lookup 0 subtable" d.sups
EndChar

StartChar: e
Encoding: 101 101 32
Width: 468
GlyphClass: 2
Flags: W
AnchorPoint: "Anchor-5" 282 0 basechar 0
AnchorPoint: "Anchor-3" 212 -22 basechar 0
AnchorPoint: "Anchor-0" 294 502 basechar 0
LayerCount: 2
Fore
SplineSet
44 184 m 0,0,1
 44 252 44 252 65.5 308.5 c 128,-1,2
 87 365 87 365 121.5 405.5 c 128,-1,3
 156 446 156 446 200 468 c 128,-1,4
 244 490 244 490 290 490 c 0,5,6
 328 490 328 490 355 477.5 c 128,-1,7
 382 465 382 465 399 442.5 c 128,-1,8
 416 420 416 420 424 389.5 c 128,-1,9
 432 359 432 359 432 322 c 0,10,11
 432 298 432 298 428.5 277.5 c 128,-1,12
 425 257 425 257 420 242 c 1,13,-1
 78 242 l 1,14,15
 67 182 67 182 75 139 c 128,-1,16
 83 96 83 96 104 68 c 128,-1,17
 125 40 125 40 156.5 27 c 128,-1,18
 188 14 188 14 226 14 c 0,19,20
 259 14 259 14 291 28 c 128,-1,21
 323 42 323 42 350 62 c 1,22,-1
 364 40 l 1,23,24
 335 19 335 19 299 3.5 c 128,-1,25
 263 -12 263 -12 224 -12 c 0,26,27
 141 -12 141 -12 92.5 37.5 c 128,-1,28
 44 87 44 87 44 184 c 0,0,1
84 268 m 1,29,-1
 398 268 l 1,30,31
 401 283 401 283 402.5 297 c 128,-1,32
 404 311 404 311 404 328 c 0,33,34
 404 353 404 353 398 377.5 c 128,-1,35
 392 402 392 402 378.5 421.5 c 128,-1,36
 365 441 365 441 342.5 452.5 c 128,-1,37
 320 464 320 464 288 464 c 0,38,39
 254 464 254 464 221.5 449.5 c 128,-1,40
 189 435 189 435 162 409 c 128,-1,41
 135 383 135 383 114.5 347 c 128,-1,42
 94 311 94 311 84 268 c 1,29,-1
EndSplineSet
Substitution2: "'sups' Superscript in Latin lookup 12 subtable" e.sups
Substitution2: "'aalt' Access All Alternates in Latin lookup 0 subtable" e.sups
EndChar

StartChar: f
Encoding: 102 102 33
Width: 246
GlyphClass: 2
Flags: W
AnchorPoint: "Anchor-3" 70 -22 basechar 0
AnchorPoint: "Anchor-0" 308 740 basechar 0
LayerCount: 2
Fore
SplineSet
76 452 m 1,0,-1
 80 474 l 1,1,-1
 144 478 l 1,2,-1
 168 598 l 2,3,4
 183 669 183 669 216.5 701.5 c 128,-1,5
 250 734 250 734 292 734 c 0,6,7
 316 734 316 734 332 727.5 c 128,-1,8
 348 721 348 721 362 712 c 1,9,-1
 348 690 l 1,10,11
 336 698 336 698 323 703 c 128,-1,12
 310 708 310 708 290 708 c 0,13,14
 271 708 271 708 256 699 c 128,-1,15
 241 690 241 690 229 675 c 128,-1,16
 217 660 217 660 208.5 640 c 128,-1,17
 200 620 200 620 196 598 c 2,18,-1
 172 478 l 1,19,-1
 280 478 l 1,20,-1
 274 452 l 1,21,-1
 166 452 l 1,22,-1
 76 0 l 1,23,-1
 48 0 l 1,24,-1
 138 452 l 1,25,-1
 76 452 l 1,0,-1
EndSplineSet
Substitution2: "'sups' Superscript in Latin lookup 12 subtable" f.sups
Substitution2: "'aalt' Access All Alternates in Latin lookup 0 subtable" f.sups
EndChar

StartChar: g
Encoding: 103 103 34
Width: 518
GlyphClass: 2
Flags: W
AnchorPoint: "Anchor-3" 160 -254 basechar 0
AnchorPoint: "Anchor-0" 312 502 basechar 0
LayerCount: 2
Fore
SplineSet
166 -234 m 0,0,1
 113 -234 113 -234 74.5 -214 c 128,-1,2
 36 -194 36 -194 6 -168 c 1,3,-1
 24 -146 l 1,4,5
 51 -172 51 -172 87 -190 c 128,-1,6
 123 -208 123 -208 168 -208 c 0,7,8
 241 -208 241 -208 283 -159 c 128,-1,9
 325 -110 325 -110 342 -30 c 2,10,-1
 366 86 l 1,11,12
 324 45 324 45 279.5 20.5 c 128,-1,13
 235 -4 235 -4 184 -4 c 0,14,15
 122 -4 122 -4 84 39.5 c 128,-1,16
 46 83 46 83 46 166 c 0,17,18
 46 233 46 233 68 292 c 128,-1,19
 90 351 90 351 126 395 c 128,-1,20
 162 439 162 439 207.5 464.5 c 128,-1,21
 253 490 253 490 300 490 c 0,22,23
 343 490 343 490 374.5 468 c 128,-1,24
 406 446 406 446 426 410 c 1,25,-1
 430 410 l 1,26,-1
 448 478 l 1,27,-1
 472 478 l 1,28,-1
 366 -48 l 2,29,30
 348 -134 348 -134 297.5 -184 c 128,-1,31
 247 -234 247 -234 166 -234 c 0,0,1
186 22 m 0,32,33
 228 22 228 22 278 49.5 c 128,-1,34
 328 77 328 77 372 124 c 1,35,-1
 424 372 l 1,36,37
 395 422 395 422 364.5 443 c 128,-1,38
 334 464 334 464 298 464 c 0,39,40
 255 464 255 464 215 438.5 c 128,-1,41
 175 413 175 413 143.5 371.5 c 128,-1,42
 112 330 112 330 93 277.5 c 128,-1,43
 74 225 74 225 74 172 c 0,44,45
 74 97 74 97 103.5 59.5 c 128,-1,46
 133 22 133 22 186 22 c 0,32,33
EndSplineSet
Substitution2: "'ss03' Style Set 3 in Latin lookup 22 subtable" g.a
Substitution2: "'sups' Superscript in Latin lookup 12 subtable" g.sups
AlternateSubs2: "'aalt' Access All Alternates in Latin lookup 1 subtable" g.sups g.a
EndChar

StartChar: h
Encoding: 104 104 35
Width: 498
GlyphClass: 2
Flags: W
AnchorPoint: "Anchor-3" 220 -22 basechar 0
AnchorPoint: "Anchor-0" 208 730 basechar 0
LayerCount: 2
Fore
SplineSet
44 0 m 1,0,-1
 188 722 l 1,1,-1
 216 722 l 1,2,-1
 160 444 l 1,3,-1
 148 398 l 1,4,-1
 152 398 l 1,5,6
 200 439 200 439 242 464.5 c 128,-1,7
 284 490 284 490 328 490 c 0,8,9
 390 490 390 490 416 457.5 c 128,-1,10
 442 425 442 425 442 374 c 0,11,12
 442 356 442 356 440.5 343.5 c 128,-1,13
 439 331 439 331 434 310 c 2,14,-1
 372 0 l 1,15,-1
 344 0 l 1,16,-1
 406 306 l 2,17,18
 411 329 411 329 412.5 342 c 128,-1,19
 414 355 414 355 414 370 c 0,20,21
 414 417 414 417 393 440.5 c 128,-1,22
 372 464 372 464 324 464 c 0,23,24
 291 464 291 464 246 439 c 128,-1,25
 201 414 201 414 144 358 c 1,26,-1
 72 0 l 1,27,-1
 44 0 l 1,0,-1
EndSplineSet
Substitution2: "'sups' Superscript in Latin lookup 12 subtable" h.sups
Substitution2: "'aalt' Access All Alternates in Latin lookup 0 subtable" h.sups
EndChar

StartChar: i
Encoding: 105 105 36
Width: 214
GlyphClass: 2
Flags: W
AnchorPoint: "Anchor-5" 44 0 basechar 0
AnchorPoint: "Anchor-3" 64 -22 basechar 0
AnchorPoint: "Anchor-0" 198 678 basechar 0
LayerCount: 2
Fore
SplineSet
44 0 m 1,0,-1
 140 478 l 1,1,-1
 168 478 l 1,2,-1
 72 0 l 1,3,-1
 44 0 l 1,0,-1
180 600 m 0,4,5
 168 600 168 600 160 608 c 128,-1,6
 152 616 152 616 152 628 c 0,7,8
 152 646 152 646 163 657 c 128,-1,9
 174 668 174 668 188 668 c 0,10,11
 200 668 200 668 208 660 c 128,-1,12
 216 652 216 652 216 638 c 0,13,14
 216 621 216 621 205 610.5 c 128,-1,15
 194 600 194 600 180 600 c 0,4,5
EndSplineSet
Substitution2: "'sups' Superscript in Latin lookup 12 subtable" i.sups
Substitution2: "'aalt' Access All Alternates in Latin lookup 0 subtable" i.sups
EndChar

StartChar: j
Encoding: 106 106 37
Width: 214
GlyphClass: 2
Flags: W
AnchorPoint: "Anchor-3" -44 -230 basechar 0
AnchorPoint: "Anchor-0" 198 678 basechar 0
LayerCount: 2
Fore
SplineSet
-60 -234 m 0,0,1
 -81 -234 -81 -234 -94 -229 c 128,-1,2
 -107 -224 -107 -224 -118 -218 c 1,3,-1
 -106 -194 l 1,4,5
 -97 -200 -97 -200 -87.5 -204 c 128,-1,6
 -78 -208 -78 -208 -58 -208 c 0,7,8
 -28 -208 -28 -208 -8.5 -179.5 c 128,-1,9
 11 -151 11 -151 22 -104 c 2,10,-1
 140 478 l 1,11,-1
 168 478 l 1,12,-1
 52 -98 l 2,13,14
 38 -163 38 -163 11.5 -198.5 c 128,-1,15
 -15 -234 -15 -234 -60 -234 c 0,0,1
180 600 m 0,16,17
 168 600 168 600 160 608 c 128,-1,18
 152 616 152 616 152 628 c 0,19,20
 152 646 152 646 163 657 c 128,-1,21
 174 668 174 668 188 668 c 0,22,23
 200 668 200 668 208 660 c 128,-1,24
 216 652 216 652 216 638 c 0,25,26
 216 621 216 621 205 610.5 c 128,-1,27
 194 600 194 600 180 600 c 0,16,17
EndSplineSet
Substitution2: "'sups' Superscript in Latin lookup 12 subtable" j.sups
Substitution2: "'aalt' Access All Alternates in Latin lookup 0 subtable" j.sups
EndChar

StartChar: k
Encoding: 107 107 38
Width: 436
GlyphClass: 2
Flags: W
AnchorPoint: "Anchor-3" 208 -22 basechar 0
AnchorPoint: "Anchor-0" 210 730 basechar 0
LayerCount: 2
Fore
SplineSet
44 0 m 1,0,-1
 188 722 l 1,1,-1
 216 722 l 1,2,-1
 108 176 l 1,3,-1
 110 176 l 1,4,-1
 408 478 l 1,5,-1
 444 478 l 1,6,-1
 258 286 l 1,7,-1
 374 0 l 1,8,-1
 344 0 l 1,9,-1
 236 266 l 1,10,-1
 98 126 l 1,11,-1
 72 0 l 1,12,-1
 44 0 l 1,0,-1
EndSplineSet
Substitution2: "'sups' Superscript in Latin lookup 12 subtable" k.sups
Substitution2: "'aalt' Access All Alternates in Latin lookup 0 subtable" k.sups
EndChar

StartChar: l
Encoding: 108 108 39
Width: 226
GlyphClass: 2
Flags: W
AnchorPoint: "Anchor-3" 60 -22 basechar 0
AnchorPoint: "Anchor-0" 206 730 basechar 0
LayerCount: 2
Fore
SplineSet
86 -12 m 0,0,1
 71 -12 71 -12 60.5 -3 c 128,-1,2
 50 6 50 6 50 24 c 0,3,4
 50 29 50 29 51 35.5 c 128,-1,5
 52 42 52 42 54 50 c 2,6,-1
 188 722 l 1,7,-1
 216 722 l 1,8,-1
 82 48 l 2,9,10
 80 40 80 40 80 35.5 c 128,-1,11
 80 31 80 31 80 28 c 0,12,13
 80 14 80 14 94 14 c 0,14,15
 97 14 97 14 99.5 14.5 c 128,-1,16
 102 15 102 15 110 18 c 1,17,-1
 114 -6 l 1,18,19
 106 -9 106 -9 100.5 -10.5 c 128,-1,20
 95 -12 95 -12 86 -12 c 0,0,1
EndSplineSet
Substitution2: "'ss01' Style Set 1 in Latin lookup 20 subtable" l.a
Substitution2: "'sups' Superscript in Latin lookup 12 subtable" l.sups
AlternateSubs2: "'aalt' Access All Alternates in Latin lookup 1 subtable" l.sups l.a
EndChar

StartChar: m
Encoding: 109 109 40
Width: 776
GlyphClass: 2
Flags: W
AnchorPoint: "Anchor-3" 352 -22 basechar 0
AnchorPoint: "Anchor-0" 460 502 basechar 0
LayerCount: 2
Fore
SplineSet
44 0 m 1,0,-1
 140 478 l 1,1,-1
 164 478 l 1,2,-1
 152 400 l 1,3,-1
 156 400 l 1,4,5
 197 439 197 439 239 464.5 c 128,-1,6
 281 490 281 490 316 490 c 0,7,8
 346 490 346 490 366.5 481.5 c 128,-1,9
 387 473 387 473 400 459 c 128,-1,10
 413 445 413 445 419 426.5 c 128,-1,11
 425 408 425 408 426 388 c 1,12,13
 477 438 477 438 522 464 c 128,-1,14
 567 490 567 490 602 490 c 0,15,16
 662 490 662 490 688 457.5 c 128,-1,17
 714 425 714 425 714 374 c 0,18,19
 714 356 714 356 712.5 343.5 c 128,-1,20
 711 331 711 331 706 310 c 2,21,-1
 644 0 l 1,22,-1
 616 0 l 1,23,-1
 678 306 l 2,24,25
 683 329 683 329 684.5 342 c 128,-1,26
 686 355 686 355 686 370 c 0,27,28
 686 417 686 417 665.5 440.5 c 128,-1,29
 645 464 645 464 598 464 c 0,30,31
 574 464 574 464 528.5 439 c 128,-1,32
 483 414 483 414 430 358 c 1,33,-1
 358 0 l 1,34,-1
 330 0 l 1,35,-1
 392 306 l 2,36,37
 397 329 397 329 398.5 342 c 128,-1,38
 400 355 400 355 400 370 c 0,39,40
 400 417 400 417 379.5 440.5 c 128,-1,41
 359 464 359 464 312 464 c 0,42,43
 288 464 288 464 242.5 439 c 128,-1,44
 197 414 197 414 144 358 c 1,45,-1
 72 0 l 1,46,-1
 44 0 l 1,0,-1
EndSplineSet
Substitution2: "'sups' Superscript in Latin lookup 12 subtable" m.sups
Substitution2: "'aalt' Access All Alternates in Latin lookup 0 subtable" m.sups
EndChar

StartChar: n
Encoding: 110 110 41
Width: 504
GlyphClass: 2
Flags: W
AnchorPoint: "Anchor-3" 218 -22 basechar 0
AnchorPoint: "Anchor-0" 320 502 basechar 0
LayerCount: 2
Fore
SplineSet
44 0 m 1,0,-1
 140 478 l 1,1,-1
 164 478 l 1,2,-1
 152 400 l 1,3,-1
 156 400 l 1,4,5
 201 439 201 439 242.5 464.5 c 128,-1,6
 284 490 284 490 328 490 c 0,7,8
 390 490 390 490 416 457.5 c 128,-1,9
 442 425 442 425 442 374 c 0,10,11
 442 356 442 356 440.5 343.5 c 128,-1,12
 439 331 439 331 434 310 c 2,13,-1
 372 0 l 1,14,-1
 344 0 l 1,15,-1
 406 306 l 2,16,17
 411 329 411 329 412.5 342 c 128,-1,18
 414 355 414 355 414 370 c 0,19,20
 414 417 414 417 393 440.5 c 128,-1,21
 372 464 372 464 324 464 c 0,22,23
 291 464 291 464 246 439 c 128,-1,24
 201 414 201 414 144 358 c 1,25,-1
 72 0 l 1,26,-1
 44 0 l 1,0,-1
EndSplineSet
Substitution2: "'sups' Superscript in Latin lookup 12 subtable" n.sups
Substitution2: "'aalt' Access All Alternates in Latin lookup 0 subtable" n.sups
EndChar

StartChar: o
Encoding: 111 111 42
Width: 500
GlyphClass: 2
Flags: W
AnchorPoint: "Anchor-5" 214 0 basechar 0
AnchorPoint: "Anchor-4" 390 478 basechar 0
AnchorPoint: "Anchor-3" 188 -22 basechar 0
AnchorPoint: "Anchor-0" 318 502 basechar 0
LayerCount: 2
Fore
SplineSet
204 -12 m 0,0,1
 132 -12 132 -12 89 36.5 c 128,-1,2
 46 85 46 85 46 176 c 0,3,4
 46 243 46 243 67 300.5 c 128,-1,5
 88 358 88 358 122.5 400 c 128,-1,6
 157 442 157 442 202 466 c 128,-1,7
 247 490 247 490 296 490 c 0,8,9
 368 490 368 490 411 441.5 c 128,-1,10
 454 393 454 393 454 302 c 0,11,12
 454 235 454 235 433 177.5 c 128,-1,13
 412 120 412 120 377.5 78 c 128,-1,14
 343 36 343 36 298 12 c 128,-1,15
 253 -12 253 -12 204 -12 c 0,0,1
206 14 m 0,16,17
 246 14 246 14 285.5 36.5 c 128,-1,18
 325 59 325 59 356.5 98 c 128,-1,19
 388 137 388 137 407 188 c 128,-1,20
 426 239 426 239 426 296 c 0,21,22
 426 379 426 379 391.5 421.5 c 128,-1,23
 357 464 357 464 294 464 c 0,24,25
 253 464 253 464 214 441.5 c 128,-1,26
 175 419 175 419 143.5 380 c 128,-1,27
 112 341 112 341 93 290 c 128,-1,28
 74 239 74 239 74 182 c 0,29,30
 74 99 74 99 108.5 56.5 c 128,-1,31
 143 14 143 14 206 14 c 0,16,17
EndSplineSet
Substitution2: "'sups' Superscript in Latin lookup 12 subtable" o.sups
Substitution2: "'aalt' Access All Alternates in Latin lookup 0 subtable" o.sups
EndChar

StartChar: p
Encoding: 112 112 43
Width: 520
GlyphClass: 2
Flags: W
AnchorPoint: "Anchor-3" 20 -218 basechar 0
AnchorPoint: "Anchor-0" 330 502 basechar 0
LayerCount: 2
Fore
SplineSet
84 68 m 1,0,-1
 62 -42 l 1,1,-1
 28 -222 l 1,2,-1
 0 -222 l 1,3,-1
 140 478 l 1,4,-1
 164 478 l 1,5,-1
 152 408 l 1,6,-1
 156 408 l 1,7,8
 195 440 195 440 240 465 c 128,-1,9
 285 490 285 490 336 490 c 0,10,11
 399 490 399 490 437.5 446 c 128,-1,12
 476 402 476 402 476 318 c 0,13,14
 476 249 476 249 454 189 c 128,-1,15
 432 129 432 129 395.5 84 c 128,-1,16
 359 39 359 39 312 13.5 c 128,-1,17
 265 -12 265 -12 216 -12 c 0,18,19
 172 -12 172 -12 139.5 10.5 c 128,-1,20
 107 33 107 33 86 68 c 1,21,-1
 84 68 l 1,0,-1
334 464 m 0,22,23
 313 464 313 464 289 457 c 128,-1,24
 265 450 265 450 240.5 437.5 c 128,-1,25
 216 425 216 425 192 407.5 c 128,-1,26
 168 390 168 390 146 370 c 1,27,-1
 92 102 l 1,28,29
 121 54 121 54 151.5 34 c 128,-1,30
 182 14 182 14 218 14 c 0,31,32
 263 14 263 14 304.5 39.5 c 128,-1,33
 346 65 346 65 378 107 c 128,-1,34
 410 149 410 149 429 202.5 c 128,-1,35
 448 256 448 256 448 312 c 0,36,37
 448 388 448 388 417.5 426 c 128,-1,38
 387 464 387 464 334 464 c 0,22,23
EndSplineSet
Substitution2: "'sups' Superscript in Latin lookup 12 subtable" p.sups
Substitution2: "'aalt' Access All Alternates in Latin lookup 0 subtable" p.sups
EndChar

StartChar: q
Encoding: 113 113 44
Width: 524
GlyphClass: 2
Flags: W
AnchorPoint: "Anchor-3" 332 -218 basechar 0
AnchorPoint: "Anchor-0" 318 502 basechar 0
LayerCount: 2
Fore
SplineSet
346 -42 m 1,0,-1
 370 80 l 1,1,-1
 368 80 l 1,2,3
 330 41 330 41 283.5 14.5 c 128,-1,4
 237 -12 237 -12 186 -12 c 0,5,6
 123 -12 123 -12 84.5 31.5 c 128,-1,7
 46 75 46 75 46 160 c 0,8,9
 46 229 46 229 68 289 c 128,-1,10
 90 349 90 349 126.5 394 c 128,-1,11
 163 439 163 439 209.5 464.5 c 128,-1,12
 256 490 256 490 306 490 c 0,13,14
 350 490 350 490 381 468 c 128,-1,15
 412 446 412 446 432 410 c 1,16,-1
 436 410 l 1,17,-1
 454 478 l 1,18,-1
 478 478 l 1,19,-1
 338 -222 l 1,20,-1
 310 -222 l 1,21,-1
 346 -42 l 1,0,-1
188 14 m 0,22,23
 230 14 230 14 281.5 42.5 c 128,-1,24
 333 71 333 71 378 122 c 1,25,-1
 430 372 l 1,26,27
 401 422 401 422 370.5 443 c 128,-1,28
 340 464 340 464 304 464 c 0,29,30
 259 464 259 464 217.5 438 c 128,-1,31
 176 412 176 412 144 370 c 128,-1,32
 112 328 112 328 93 274.5 c 128,-1,33
 74 221 74 221 74 166 c 0,34,35
 74 89 74 89 104.5 51.5 c 128,-1,36
 135 14 135 14 188 14 c 0,22,23
EndSplineSet
Substitution2: "'sups' Superscript in Latin lookup 12 subtable" q.sups
Substitution2: "'aalt' Access All Alternates in Latin lookup 0 subtable" q.sups
EndChar

StartChar: r
Encoding: 114 114 45
Width: 308
GlyphClass: 2
Flags: W
AnchorPoint: "Anchor-3" 64 -22 basechar 0
AnchorPoint: "Anchor-0" 236 502 basechar 0
LayerCount: 2
Fore
SplineSet
44 0 m 1,0,-1
 140 478 l 1,1,-1
 164 478 l 1,2,-1
 148 388 l 1,3,-1
 152 388 l 1,4,5
 182 430 182 430 218.5 460 c 128,-1,6
 255 490 255 490 302 490 c 0,7,8
 311 490 311 490 321.5 488.5 c 128,-1,9
 332 487 332 487 344 482 c 1,10,-1
 332 454 l 1,11,12
 326 457 326 457 318 459.5 c 128,-1,13
 310 462 310 462 296 462 c 0,14,15
 257 462 257 462 213 425 c 128,-1,16
 169 388 169 388 136 322 c 1,17,-1
 72 0 l 1,18,-1
 44 0 l 1,0,-1
EndSplineSet
Substitution2: "'sups' Superscript in Latin lookup 12 subtable" r.sups
Substitution2: "'aalt' Access All Alternates in Latin lookup 0 subtable" r.sups
EndChar

StartChar: s
Encoding: 115 115 46
Width: 384
GlyphClass: 2
Flags: W
AnchorPoint: "Anchor-3" 166 -22 basechar 0
AnchorPoint: "Anchor-2" 166 0 basechar 0
AnchorPoint: "Anchor-0" 248 502 basechar 0
LayerCount: 2
Fore
SplineSet
158 -12 m 0,0,1
 132 -12 132 -12 107.5 -4 c 128,-1,2
 83 4 83 4 62.5 16.5 c 128,-1,3
 42 29 42 29 26 44.5 c 128,-1,4
 10 60 10 60 0 76 c 1,5,-1
 22 92 l 1,6,7
 42 60 42 60 78 37 c 128,-1,8
 114 14 114 14 162 14 c 0,9,10
 188 14 188 14 211.5 22.5 c 128,-1,11
 235 31 235 31 253 46 c 128,-1,12
 271 61 271 61 281.5 80.5 c 128,-1,13
 292 100 292 100 292 122 c 0,14,15
 292 137 292 137 288.5 150 c 128,-1,16
 285 163 285 163 275 175.5 c 128,-1,17
 265 188 265 188 247 201.5 c 128,-1,18
 229 215 229 215 200 230 c 0,19,20
 166 248 166 248 143 263.5 c 128,-1,21
 120 279 120 279 106 294 c 128,-1,22
 92 309 92 309 86 324.5 c 128,-1,23
 80 340 80 340 80 358 c 0,24,25
 80 388 80 388 92 412.5 c 128,-1,26
 104 437 104 437 124 454 c 128,-1,27
 144 471 144 471 170.5 480.5 c 128,-1,28
 197 490 197 490 226 490 c 0,29,30
 265 490 265 490 297.5 475 c 128,-1,31
 330 460 330 460 354 434 c 1,32,-1
 334 414 l 1,33,34
 314 435 314 435 288 449.5 c 128,-1,35
 262 464 262 464 224 464 c 0,36,37
 200 464 200 464 179 456 c 128,-1,38
 158 448 158 448 142 434.5 c 128,-1,39
 126 421 126 421 117 402.5 c 128,-1,40
 108 384 108 384 108 364 c 0,41,42
 108 328 108 328 135 305.5 c 128,-1,43
 162 283 162 283 198 264 c 0,44,45
 239 241 239 241 263.5 223 c 128,-1,46
 288 205 288 205 300.5 188.5 c 128,-1,47
 313 172 313 172 316.5 157.5 c 128,-1,48
 320 143 320 143 320 128 c 0,49,50
 320 96 320 96 307.5 70 c 128,-1,51
 295 44 295 44 273.5 26 c 128,-1,52
 252 8 252 8 222 -2 c 128,-1,53
 192 -12 192 -12 158 -12 c 0,0,1
EndSplineSet
Substitution2: "'sups' Superscript in Latin lookup 12 subtable" s.sups
Substitution2: "'aalt' Access All Alternates in Latin lookup 0 subtable" s.sups
EndChar

StartChar: t
Encoding: 116 116 47
Width: 290
GlyphClass: 2
Flags: W
AnchorPoint: "Anchor-3" 148 -22 basechar 0
AnchorPoint: "Anchor-2" 158 0 basechar 0
AnchorPoint: "Anchor-0" 194 634 basechar 0
LayerCount: 2
Fore
SplineSet
170 -12 m 0,0,1
 116 -12 116 -12 95 15 c 128,-1,2
 74 42 74 42 74 78 c 0,3,4
 74 92 74 92 75 102 c 128,-1,5
 76 112 76 112 78 124 c 2,6,-1
 146 452 l 1,7,-1
 70 452 l 1,8,-1
 74 474 l 1,9,-1
 152 478 l 1,10,-1
 184 616 l 1,11,-1
 208 616 l 1,12,-1
 180 478 l 1,13,-1
 312 478 l 1,14,-1
 306 452 l 1,15,-1
 174 452 l 1,16,-1
 106 122 l 2,17,18
 104 113 104 113 103 104 c 128,-1,19
 102 95 102 95 102 84 c 0,20,21
 102 49 102 49 116.5 31.5 c 128,-1,22
 131 14 131 14 172 14 c 0,23,24
 190 14 190 14 205 20 c 128,-1,25
 220 26 220 26 232 32 c 1,26,-1
 242 10 l 1,27,28
 228 2 228 2 209.5 -5 c 128,-1,29
 191 -12 191 -12 170 -12 c 0,0,1
EndSplineSet
Substitution2: "'sups' Superscript in Latin lookup 12 subtable" t.sups
Substitution2: "'aalt' Access All Alternates in Latin lookup 0 subtable" t.sups
EndChar

StartChar: u
Encoding: 117 117 48
Width: 514
GlyphClass: 2
Flags: W
AnchorPoint: "Anchor-5" 324 0 basechar 0
AnchorPoint: "Anchor-4" 440 488 basechar 0
AnchorPoint: "Anchor-3" 240 -22 basechar 0
AnchorPoint: "Anchor-0" 308 502 basechar 0
LayerCount: 2
Fore
SplineSet
468 478 m 1,0,-1
 372 0 l 1,1,-1
 348 0 l 1,2,-1
 360 80 l 1,3,-1
 356 80 l 1,4,5
 311 41 311 41 269.5 14.5 c 128,-1,6
 228 -12 228 -12 184 -12 c 0,7,8
 122 -12 122 -12 96 20.5 c 128,-1,9
 70 53 70 53 70 104 c 0,10,11
 70 122 70 122 71.5 134.5 c 128,-1,12
 73 147 73 147 78 168 c 2,13,-1
 140 478 l 1,14,-1
 168 478 l 1,15,-1
 106 172 l 2,16,17
 101 149 101 149 99.5 136 c 128,-1,18
 98 123 98 123 98 108 c 0,19,20
 98 61 98 61 119 37.5 c 128,-1,21
 140 14 140 14 188 14 c 0,22,23
 221 14 221 14 266 39 c 128,-1,24
 311 64 311 64 368 120 c 1,25,-1
 440 478 l 1,26,-1
 468 478 l 1,0,-1
EndSplineSet
Substitution2: "'sups' Superscript in Latin lookup 12 subtable" u.sups
Substitution2: "'aalt' Access All Alternates in Latin lookup 0 subtable" u.sups
EndChar

StartChar: v
Encoding: 118 118 49
Width: 408
GlyphClass: 2
Flags: W
AnchorPoint: "Anchor-3" 166 -22 basechar 0
AnchorPoint: "Anchor-0" 266 502 basechar 0
LayerCount: 2
Fore
SplineSet
136 0 m 1,0,-1
 58 478 l 1,1,-1
 86 478 l 1,2,-1
 136 166 l 2,3,4
 142 131 142 131 147 95 c 128,-1,5
 152 59 152 59 158 26 c 1,6,-1
 162 26 l 1,7,8
 180 61 180 61 199 96 c 128,-1,9
 218 131 218 131 238 166 c 2,10,-1
 408 478 l 1,11,-1
 438 478 l 1,12,-1
 174 0 l 1,13,-1
 136 0 l 1,0,-1
EndSplineSet
Substitution2: "'sups' Superscript in Latin lookup 12 subtable" v.sups
Substitution2: "'aalt' Access All Alternates in Latin lookup 0 subtable" v.sups
EndChar

StartChar: w
Encoding: 119 119 50
Width: 674
GlyphClass: 2
Flags: W
AnchorPoint: "Anchor-3" 302 -22 basechar 0
AnchorPoint: "Anchor-0" 392 502 basechar 0
LayerCount: 2
Fore
SplineSet
112 0 m 1,0,-1
 68 478 l 1,1,-1
 96 478 l 1,2,-1
 124 154 l 2,3,4
 127 121 127 121 130 89.5 c 128,-1,5
 133 58 133 58 136 26 c 1,6,-1
 140 26 l 1,7,8
 155 58 155 58 169 89.5 c 128,-1,9
 183 121 183 121 198 154 c 2,10,-1
 348 478 l 1,11,-1
 388 478 l 1,12,-1
 412 154 l 2,13,14
 414 121 414 121 416 89.5 c 128,-1,15
 418 58 418 58 420 26 c 1,16,-1
 424 26 l 1,17,18
 439 58 439 58 453 89.5 c 128,-1,19
 467 121 467 121 484 154 c 2,20,-1
 638 478 l 1,21,-1
 666 478 l 1,22,-1
 438 0 l 1,23,-1
 396 0 l 1,24,-1
 374 312 l 2,25,26
 371 347 371 347 370 384 c 128,-1,27
 369 421 369 421 366 454 c 1,28,-1
 362 454 l 1,29,30
 347 421 347 421 331 384 c 128,-1,31
 315 347 315 347 298 312 c 2,32,-1
 154 0 l 1,33,-1
 112 0 l 1,0,-1
EndSplineSet
Substitution2: "'sups' Superscript in Latin lookup 12 subtable" w.sups
Substitution2: "'aalt' Access All Alternates in Latin lookup 0 subtable" w.sups
EndChar

StartChar: x
Encoding: 120 120 51
Width: 380
GlyphClass: 2
Flags: W
AnchorPoint: "Anchor-3" 152 -22 basechar 0
AnchorPoint: "Anchor-0" 252 504 basechar 0
LayerCount: 2
Fore
SplineSet
-48 0 m 1,0,-1
 178 252 l 1,1,-1
 82 478 l 1,2,-1
 112 478 l 1,3,-1
 164 352 l 2,4,5
 173 329 173 329 180 311 c 128,-1,6
 187 293 187 293 196 272 c 1,7,-1
 200 272 l 1,8,9
 218 292 218 292 236 311.5 c 128,-1,10
 254 331 254 331 272 352 c 2,11,-1
 384 478 l 1,12,-1
 416 478 l 1,13,-1
 212 246 l 1,14,-1
 316 0 l 1,15,-1
 286 0 l 1,16,-1
 232 136 l 2,17,18
 223 159 223 159 213 182 c 128,-1,19
 203 205 203 205 192 228 c 1,20,-1
 188 228 l 1,21,22
 170 205 170 205 150.5 183.5 c 128,-1,23
 131 162 131 162 108 138 c 2,24,-1
 -14 0 l 1,25,-1
 -48 0 l 1,0,-1
EndSplineSet
Substitution2: "'sups' Superscript in Latin lookup 12 subtable" x.sups
Substitution2: "'aalt' Access All Alternates in Latin lookup 0 subtable" x.sups
EndChar

StartChar: y
Encoding: 121 121 52
Width: 408
GlyphClass: 2
Flags: W
AnchorPoint: "Anchor-3" 88 -242 basechar 0
AnchorPoint: "Anchor-0" 248 502 basechar 0
LayerCount: 2
Fore
SplineSet
-40 -222 m 0,0,1
 -48 -222 -48 -222 -59 -220 c 128,-1,2
 -70 -218 -70 -218 -84 -212 c 1,3,-1
 -72 -188 l 1,4,5
 -56 -196 -56 -196 -38 -196 c 0,6,7
 7 -196 7 -196 45.5 -157.5 c 128,-1,8
 84 -119 84 -119 116 -54 c 2,9,-1
 138 -10 l 1,10,-1
 58 478 l 1,11,-1
 86 478 l 1,12,-1
 136 166 l 2,13,14
 142 131 142 131 147.5 94 c 128,-1,15
 153 57 153 57 158 24 c 1,16,-1
 162 24 l 1,17,18
 180 59 180 59 199 94.5 c 128,-1,19
 218 130 218 130 238 166 c 2,20,-1
 408 478 l 1,21,-1
 438 478 l 1,22,-1
 138 -66 l 2,23,24
 124 -94 124 -94 106.5 -121.5 c 128,-1,25
 89 -149 89 -149 67 -171.5 c 128,-1,26
 45 -194 45 -194 18.5 -208 c 128,-1,27
 -8 -222 -8 -222 -40 -222 c 0,0,1
EndSplineSet
Substitution2: "'sups' Superscript in Latin lookup 12 subtable" y.sups
Substitution2: "'aalt' Access All Alternates in Latin lookup 0 subtable" y.sups
EndChar

StartChar: z
Encoding: 122 122 53
Width: 384
GlyphClass: 2
Flags: W
AnchorPoint: "Anchor-3" 164 -22 basechar 0
AnchorPoint: "Anchor-0" 262 502 basechar 0
LayerCount: 2
Fore
SplineSet
-10 0 m 1,0,-1
 -8 18 l 1,1,-1
 364 452 l 1,2,-1
 110 452 l 1,3,-1
 116 478 l 1,4,-1
 406 478 l 1,5,-1
 404 460 l 1,6,-1
 32 26 l 1,7,-1
 324 26 l 1,8,-1
 318 0 l 1,9,-1
 -10 0 l 1,0,-1
EndSplineSet
Substitution2: "'sups' Superscript in Latin lookup 12 subtable" z.sups
Substitution2: "'aalt' Access All Alternates in Latin lookup 0 subtable" z.sups
EndChar

StartChar: Aogonek
Encoding: 260 260 75
Width: 480
GlyphClass: 2
Flags: W
AnchorPoint: "Anchor-1" 344 682 basechar 0
LayerCount: 2
Fore
SplineSet
378 -202 m 0,0,1
 349 -202 349 -202 330.5 -187 c 128,-1,2
 312 -172 312 -172 312 -140 c 0,3,4
 312 -121 312 -121 320 -101.5 c 128,-1,5
 328 -82 328 -82 341 -63.5 c 128,-1,6
 354 -45 354 -45 371 -29 c 128,-1,7
 388 -13 388 -13 406 0 c 1,8,-1
 404 0 l 1,9,-1
 375 238 l 1,10,-1
 118 238 l 1,11,-1
 -12 0 l 1,12,-1
 -46 0 l 1,13,-1
 320 660 l 1,14,-1
 350 660 l 1,15,-1
 434 0 l 1,16,17
 395 -30 395 -30 368.5 -64.5 c 128,-1,18
 342 -99 342 -99 342 -134 c 0,19,20
 342 -154 342 -154 352.5 -165 c 128,-1,21
 363 -176 363 -176 380 -176 c 0,22,23
 392 -176 392 -176 401.5 -173 c 128,-1,24
 411 -170 411 -170 422 -164 c 1,25,-1
 432 -186 l 1,26,27
 403 -202 403 -202 378 -202 c 0,0,1
204 396 m 2,28,-1
 132 264 l 1,29,-1
 372 264 l 1,30,-1
 356 396 l 2,31,32
 350 452 350 452 343 509 c 128,-1,33
 336 566 336 566 330 626 c 1,34,-1
 326 626 l 1,35,36
 296 564 296 564 266 509.5 c 128,-1,37
 236 455 236 455 204 396 c 2,28,-1
EndSplineSet
Ligature2: "'ccmp' Glyph Composition/Decomposition in Latin lookup 6 subtable" A uni0328
EndChar

StartChar: AE
Encoding: 198 198 76
Width: 774
GlyphClass: 2
Flags: W
AnchorPoint: "Anchor-1" 534 694 basechar 0
LayerCount: 2
Fore
SplineSet
292 392 m 1,0,-1
 189 252 l 1,1,-1
 394 252 l 1,2,-1
 470 632 l 1,3,-1
 466 632 l 1,4,-1
 292 392 l 1,0,-1
-32 0 m 1,5,-1
 458 660 l 1,6,-1
 804 660 l 1,7,-1
 798 634 l 1,8,-1
 500 634 l 1,9,-1
 446 364 l 1,10,-1
 696 364 l 1,11,-1
 690 338 l 1,12,-1
 442 338 l 1,13,-1
 378 26 l 1,14,-1
 686 26 l 1,15,-1
 680 0 l 1,16,-1
 344 0 l 1,17,-1
 389 226 l 1,18,-1
 170 226 l 1,19,-1
 4 0 l 1,20,-1
 -32 0 l 1,5,-1
EndSplineSet
EndChar

StartChar: Eogonek
Encoding: 280 280 102
Width: 484
GlyphClass: 2
Flags: W
AnchorPoint: "Anchor-1" 362 682 basechar 0
LayerCount: 2
Fore
SplineSet
40 0 m 1,0,-1
 172 660 l 1,1,-1
 514 660 l 1,2,-1
 508 634 l 1,3,-1
 196 634 l 1,4,-1
 142 364 l 1,5,-1
 406 364 l 1,6,-1
 400 338 l 1,7,-1
 138 338 l 1,8,-1
 74 26 l 1,9,-1
 396 26 l 1,10,-1
 390 0 l 1,11,12
 367 -2 367 -2 345 -16.5 c 128,-1,13
 323 -31 323 -31 306 -50.5 c 128,-1,14
 289 -70 289 -70 278.5 -92.5 c 128,-1,15
 268 -115 268 -115 268 -134 c 0,16,17
 268 -154 268 -154 278.5 -165 c 128,-1,18
 289 -176 289 -176 306 -176 c 0,19,20
 318 -176 318 -176 327.5 -173 c 128,-1,21
 337 -170 337 -170 348 -164 c 1,22,-1
 358 -186 l 1,23,24
 329 -202 329 -202 304 -202 c 0,25,26
 275 -202 275 -202 256.5 -187 c 128,-1,27
 238 -172 238 -172 238 -140 c 0,28,29
 238 -121 238 -121 246 -100.5 c 128,-1,30
 254 -80 254 -80 267.5 -61.5 c 128,-1,31
 281 -43 281 -43 297 -27 c 128,-1,32
 313 -11 313 -11 330 0 c 1,33,-1
 40 0 l 1,0,-1
EndSplineSet
Ligature2: "'ccmp' Glyph Composition/Decomposition in Latin lookup 6 subtable" E uni0328
EndChar

StartChar: Hbar
Encoding: 294 294 113
Width: 630
Flags: W
LayerCount: 2
Fore
SplineSet
80 496 m 1,0,-1
 86 520 l 1,1,-1
 158 522 l 1,2,-1
 186 660 l 1,3,-1
 216 660 l 1,4,-1
 188 522 l 1,5,-1
 544 522 l 1,6,-1
 572 660 l 1,7,-1
 602 660 l 1,8,-1
 574 522 l 1,9,-1
 648 522 l 1,10,-1
 642 496 l 1,11,-1
 569 496 l 1,12,-1
 470 0 l 1,13,-1
 440 0 l 1,14,-1
 508 338 l 1,15,-1
 152 338 l 1,16,-1
 84 0 l 1,17,-1
 54 0 l 1,18,-1
 153 496 l 1,19,-1
 80 496 l 1,0,-1
156 364 m 1,20,-1
 512 364 l 1,21,-1
 539 496 l 1,22,-1
 183 496 l 1,23,-1
 156 364 l 1,20,-1
EndSplineSet
EndChar

StartChar: Iogonek
Encoding: 302 302 124
Width: 290
GlyphClass: 2
Flags: W
AnchorPoint: "Anchor-1" 229 682 basechar 0
LayerCount: 2
Fore
SplineSet
62 -202 m 0,0,1
 35 -202 35 -202 16.5 -187 c 128,-1,2
 -2 -172 -2 -172 -2 -140 c 0,3,4
 -2 -121 -2 -121 6 -100.5 c 128,-1,5
 14 -80 14 -80 26.5 -61.5 c 128,-1,6
 39 -43 39 -43 53.5 -27 c 128,-1,7
 68 -11 68 -11 82 0 c 1,8,-1
 -8 0 l 1,9,-1
 -2 26 l 1,10,-1
 84 26 l 1,11,-1
 206 634 l 1,12,-1
 118 634 l 1,13,-1
 124 660 l 1,14,-1
 332 660 l 1,15,-1
 326 634 l 1,16,-1
 236 634 l 1,17,-1
 114 26 l 1,18,-1
 204 26 l 1,19,-1
 198 0 l 1,20,-1
 110 0 l 1,21,22
 95 -14 95 -14 80.5 -30 c 128,-1,23
 66 -46 66 -46 54 -63.5 c 128,-1,24
 42 -81 42 -81 35 -99 c 128,-1,25
 28 -117 28 -117 28 -134 c 0,26,27
 28 -154 28 -154 38.5 -165 c 128,-1,28
 49 -176 49 -176 66 -176 c 0,29,30
 78 -176 78 -176 87.5 -173 c 128,-1,31
 97 -170 97 -170 108 -164 c 1,32,-1
 118 -182 l 1,33,34
 106 -191 106 -191 89.5 -196.5 c 128,-1,35
 73 -202 73 -202 62 -202 c 0,0,1
EndSplineSet
Substitution2: "'ss04' Style Set 4 in Latin lookup 23 subtable" Iogonek.a
Ligature2: "'ccmp' Glyph Composition/Decomposition in Latin lookup 6 subtable" I uni0328
Substitution2: "'aalt' Access All Alternates in Latin lookup 0 subtable" Iogonek.a
EndChar

StartChar: Lslash
Encoding: 321 321 134
Width: 432
Flags: W
LayerCount: 2
Fore
SplineSet
8 222 m 1,0,-1
 -2 246 l 1,1,-1
 99 294 l 1,2,-1
 172 660 l 1,3,-1
 202 660 l 1,4,-1
 132 307 l 1,5,-1
 334 404 l 1,6,-1
 344 380 l 1,7,-1
 126 277 l 1,8,-1
 76 26 l 1,9,-1
 376 26 l 1,10,-1
 370 0 l 1,11,-1
 40 0 l 1,12,-1
 93 263 l 1,13,-1
 8 222 l 1,0,-1
EndSplineSet
EndChar

StartChar: Oslash
Encoding: 216 216 158
Width: 612
GlyphClass: 2
Flags: W
AnchorPoint: "Anchor-1" 406 682 basechar 0
LayerCount: 2
Fore
SplineSet
274 -12 m 0,0,1
 217 -12 217 -12 176 10 c 128,-1,2
 135 32 135 32 109 72 c 1,3,-1
 24 -22 l 1,4,-1
 2 -4 l 1,5,-1
 95 97 l 1,6,7
 62 164 62 164 62 262 c 0,8,9
 62 306 62 306 71 353.5 c 128,-1,10
 80 401 80 401 98 446.5 c 128,-1,11
 116 492 116 492 142.5 533 c 128,-1,12
 169 574 169 574 203.5 605 c 128,-1,13
 238 636 238 636 280 654 c 128,-1,14
 322 672 322 672 372 672 c 0,15,16
 430 672 430 672 472 649 c 128,-1,17
 514 626 514 626 540 584 c 1,18,-1
 626 678 l 1,19,-1
 642 660 l 1,20,-1
 552 561 l 1,21,22
 569 527 569 527 576.5 486.5 c 128,-1,23
 584 446 584 446 584 398 c 0,24,25
 584 354 584 354 575 306.5 c 128,-1,26
 566 259 566 259 548 213.5 c 128,-1,27
 530 168 530 168 503.5 127 c 128,-1,28
 477 86 477 86 442.5 55 c 128,-1,29
 408 24 408 24 365.5 6 c 128,-1,30
 323 -12 323 -12 274 -12 c 0,0,1
92 266 m 0,31,32
 92 181 92 181 116 121 c 1,33,-1
 519 561 l 1,34,35
 497 601 497 601 460.5 623.5 c 128,-1,36
 424 646 424 646 370 646 c 0,37,38
 325 646 325 646 287 628.5 c 128,-1,39
 249 611 249 611 218 582 c 128,-1,40
 187 553 187 553 163.5 514.5 c 128,-1,41
 140 476 140 476 124 434 c 128,-1,42
 108 392 108 392 100 348.5 c 128,-1,43
 92 305 92 305 92 266 c 0,31,32
276 14 m 0,44,45
 343 14 343 14 395 51.5 c 128,-1,46
 447 89 447 89 482.5 145.5 c 128,-1,47
 518 202 518 202 536 268.5 c 128,-1,48
 554 335 554 335 554 394 c 0,49,50
 554 436 554 436 548.5 472 c 128,-1,51
 543 508 543 508 531 537 c 1,52,-1
 129 94 l 1,53,54
 152 56 152 56 187.5 35 c 128,-1,55
 223 14 223 14 276 14 c 0,44,45
EndSplineSet
EndChar

StartChar: OE
Encoding: 338 338 159
Width: 802
GlyphClass: 2
Flags: W
AnchorPoint: "Anchor-1" 580 682 basechar 0
LayerCount: 2
Fore
SplineSet
332 0 m 2,0,1
 264 0 264 0 213 18.5 c 128,-1,2
 162 37 162 37 128.5 71 c 128,-1,3
 95 105 95 105 78.5 152 c 128,-1,4
 62 199 62 199 62 256 c 0,5,6
 62 340 62 340 84.5 413.5 c 128,-1,7
 107 487 107 487 151 542 c 128,-1,8
 195 597 195 597 261 628.5 c 128,-1,9
 327 660 327 660 414 660 c 2,10,-1
 832 660 l 1,11,-1
 826 634 l 1,12,-1
 538 634 l 1,13,-1
 484 364 l 1,14,-1
 724 364 l 1,15,-1
 718 338 l 1,16,-1
 480 338 l 1,17,-1
 416 26 l 1,18,-1
 714 26 l 1,19,-1
 708 0 l 1,20,-1
 332 0 l 2,0,1
334 26 m 2,21,-1
 388 26 l 1,22,-1
 510 634 l 1,23,-1
 412 634 l 2,24,25
 335 634 335 634 275 603.5 c 128,-1,26
 215 573 215 573 174.5 521 c 128,-1,27
 134 469 134 469 113 401 c 128,-1,28
 92 333 92 333 92 258 c 0,29,30
 92 207 92 207 106.5 164.5 c 128,-1,31
 121 122 121 122 151 91 c 128,-1,32
 181 60 181 60 226.5 43 c 128,-1,33
 272 26 272 26 334 26 c 2,21,-1
EndSplineSet
EndChar

StartChar: Ohorn
Encoding: 416 416 160
Width: 612
GlyphClass: 2
Flags: W
AnchorPoint: "Anchor-3" 270 -22 basechar 0
AnchorPoint: "Anchor-1" 406 682 basechar 0
LayerCount: 2
Fore
SplineSet
274 -12 m 0,0,1
 220 -12 220 -12 180 8.5 c 128,-1,2
 140 29 140 29 114 65 c 128,-1,3
 88 101 88 101 75 151.5 c 128,-1,4
 62 202 62 202 62 262 c 0,5,6
 62 306 62 306 71 353.5 c 128,-1,7
 80 401 80 401 98 446.5 c 128,-1,8
 116 492 116 492 142.5 533 c 128,-1,9
 169 574 169 574 203.5 605 c 128,-1,10
 238 636 238 636 280 654 c 128,-1,11
 322 672 322 672 372 672 c 0,12,13
 434 672 434 672 479 644 c 1,14,15
 532 648 532 648 563 673 c 128,-1,16
 594 698 594 698 594 742 c 0,17,18
 594 750 594 750 593.5 759 c 128,-1,19
 593 768 593 768 588 779 c 1,20,-1
 618 792 l 1,21,22
 626 769 626 769 626 748 c 0,23,24
 626 720 626 720 616.5 698.5 c 128,-1,25
 607 677 607 677 590.5 661.5 c 128,-1,26
 574 646 574 646 553 636 c 128,-1,27
 532 626 532 626 509 622 c 1,28,29
 547 585 547 585 565.5 527.5 c 128,-1,30
 584 470 584 470 584 398 c 0,31,32
 584 354 584 354 575 306.5 c 128,-1,33
 566 259 566 259 548 213.5 c 128,-1,34
 530 168 530 168 503.5 127 c 128,-1,35
 477 86 477 86 442.5 55 c 128,-1,36
 408 24 408 24 365.5 6 c 128,-1,37
 323 -12 323 -12 274 -12 c 0,0,1
276 14 m 0,38,39
 343 14 343 14 395 51.5 c 128,-1,40
 447 89 447 89 482.5 145.5 c 128,-1,41
 518 202 518 202 536 268.5 c 128,-1,42
 554 335 554 335 554 394 c 0,43,44
 554 449 554 449 543.5 495.5 c 128,-1,45
 533 542 533 542 510.5 575.5 c 128,-1,46
 488 609 488 609 453.5 627.5 c 128,-1,47
 419 646 419 646 370 646 c 0,48,49
 325 646 325 646 287 628.5 c 128,-1,50
 249 611 249 611 218 582 c 128,-1,51
 187 553 187 553 163.5 514.5 c 128,-1,52
 140 476 140 476 124 434 c 128,-1,53
 108 392 108 392 100 348.5 c 128,-1,54
 92 305 92 305 92 266 c 0,55,56
 92 210 92 210 102.5 164 c 128,-1,57
 113 118 113 118 135.5 84.5 c 128,-1,58
 158 51 158 51 192.5 32.5 c 128,-1,59
 227 14 227 14 276 14 c 0,38,39
EndSplineSet
EndChar

StartChar: uni01EA
Encoding: 490 490 166
Width: 612
GlyphClass: 2
Flags: W
AnchorPoint: "Anchor-1" 406 682 basechar 0
LayerCount: 2
Fore
SplineSet
248 -202 m 0,0,1
 219 -202 219 -202 200.5 -187 c 128,-1,2
 182 -172 182 -172 182 -140 c 0,3,4
 182 -121 182 -121 190 -101 c 128,-1,5
 198 -81 198 -81 210 -64 c 128,-1,6
 222 -47 222 -47 236.5 -33.5 c 128,-1,7
 251 -20 251 -20 264 -12 c 1,8,9
 214 -10 214 -10 176 10.5 c 128,-1,10
 138 31 138 31 112.5 67 c 128,-1,11
 87 103 87 103 74.5 152.5 c 128,-1,12
 62 202 62 202 62 262 c 0,13,14
 62 306 62 306 71 353.5 c 128,-1,15
 80 401 80 401 98 446.5 c 128,-1,16
 116 492 116 492 142.5 533 c 128,-1,17
 169 574 169 574 203.5 605 c 128,-1,18
 238 636 238 636 280 654 c 128,-1,19
 322 672 322 672 372 672 c 0,20,21
 426 672 426 672 466 651.5 c 128,-1,22
 506 631 506 631 532 595 c 128,-1,23
 558 559 558 559 571 508.5 c 128,-1,24
 584 458 584 458 584 398 c 0,25,26
 584 337 584 337 568 274 c 128,-1,27
 552 211 552 211 521 155.5 c 128,-1,28
 490 100 490 100 445 58 c 128,-1,29
 400 16 400 16 342 -2 c 0,30,31
 274 -25 274 -25 243 -62 c 128,-1,32
 212 -99 212 -99 212 -134 c 0,33,34
 212 -154 212 -154 222.5 -165 c 128,-1,35
 233 -176 233 -176 250 -176 c 0,36,37
 262 -176 262 -176 271.5 -173 c 128,-1,38
 281 -170 281 -170 292 -164 c 1,39,-1
 302 -186 l 1,40,41
 273 -202 273 -202 248 -202 c 0,0,1
276 14 m 0,42,43
 343 14 343 14 395 51.5 c 128,-1,44
 447 89 447 89 482.5 145.5 c 128,-1,45
 518 202 518 202 536 268.5 c 128,-1,46
 554 335 554 335 554 394 c 0,47,48
 554 449 554 449 543.5 495.5 c 128,-1,49
 533 542 533 542 510.5 575.5 c 128,-1,50
 488 609 488 609 453.5 627.5 c 128,-1,51
 419 646 419 646 370 646 c 0,52,53
 325 646 325 646 287 628.5 c 128,-1,54
 249 611 249 611 218 582 c 128,-1,55
 187 553 187 553 163.5 514.5 c 128,-1,56
 140 476 140 476 124 434 c 128,-1,57
 108 392 108 392 100 348.5 c 128,-1,58
 92 305 92 305 92 266 c 0,59,60
 92 210 92 210 102.5 164 c 128,-1,61
 113 118 113 118 135.5 84.5 c 128,-1,62
 158 51 158 51 192.5 32.5 c 128,-1,63
 227 14 227 14 276 14 c 0,42,43
EndSplineSet
Ligature2: "'ccmp' Glyph Composition/Decomposition in Latin lookup 6 subtable" O uni0328
EndChar

StartChar: uni1E9E
Encoding: 7838 7838 180
Width: 602
Flags: W
LayerCount: 2
Fore
SplineSet
368 -12 m 0,0,1
 309 -12 309 -12 265 13.5 c 128,-1,2
 221 39 221 39 194 84 c 1,3,-1
 218 100 l 1,4,5
 245 58 245 58 280.5 36 c 128,-1,6
 316 14 316 14 370 14 c 0,7,8
 403 14 403 14 431.5 27 c 128,-1,9
 460 40 460 40 481 62.5 c 128,-1,10
 502 85 502 85 514 114.5 c 128,-1,11
 526 144 526 144 526 176 c 0,12,13
 526 200 526 200 517 224 c 128,-1,14
 508 248 508 248 485.5 270 c 128,-1,15
 463 292 463 292 426 311 c 128,-1,16
 389 330 389 330 334 344 c 1,17,-1
 338 368 l 1,18,-1
 530 532 l 1,19,20
 510 591 510 591 471 618.5 c 128,-1,21
 432 646 432 646 372 646 c 0,22,23
 294 646 294 646 235.5 592.5 c 128,-1,24
 177 539 177 539 154 424 c 2,25,-1
 70 0 l 1,26,-1
 40 0 l 1,27,-1
 128 440 l 2,28,29
 138 492 138 492 159.5 534.5 c 128,-1,30
 181 577 181 577 212 607.5 c 128,-1,31
 243 638 243 638 283.5 655 c 128,-1,32
 324 672 324 672 374 672 c 0,33,34
 449 672 449 672 493.5 638.5 c 128,-1,35
 538 605 538 605 562 524 c 1,36,-1
 372 362 l 1,37,38
 419 349 419 349 454 329 c 128,-1,39
 489 309 489 309 511.5 285 c 128,-1,40
 534 261 534 261 545 234.5 c 128,-1,41
 556 208 556 208 556 182 c 0,42,43
 556 141 556 141 542.5 106 c 128,-1,44
 529 71 529 71 504 44.5 c 128,-1,45
 479 18 479 18 444.5 3 c 128,-1,46
 410 -12 410 -12 368 -12 c 0,0,1
EndSplineSet
EndChar

StartChar: Uogonek
Encoding: 370 370 202
Width: 594
GlyphClass: 2
Flags: W
AnchorPoint: "Anchor-1" 394 682 basechar 0
LayerCount: 2
Fore
SplineSet
586 660 m 1,0,-1
 500 230 l 2,1,2
 489 174 489 174 471.5 134.5 c 128,-1,3
 454 95 454 95 431 67 c 128,-1,4
 408 39 408 39 379 21 c 128,-1,5
 350 3 350 3 316 -8 c 0,6,7
 285 -18 285 -18 263 -33.5 c 128,-1,8
 241 -49 241 -49 226.5 -66 c 128,-1,9
 212 -83 212 -83 205 -101 c 128,-1,10
 198 -119 198 -119 198 -134 c 0,11,12
 198 -154 198 -154 208.5 -165 c 128,-1,13
 219 -176 219 -176 236 -176 c 0,14,15
 248 -176 248 -176 257.5 -173 c 128,-1,16
 267 -170 267 -170 278 -164 c 1,17,-1
 288 -186 l 1,18,19
 259 -202 259 -202 234 -202 c 0,20,21
 205 -202 205 -202 186.5 -187 c 128,-1,22
 168 -172 168 -172 168 -140 c 256,23,24
 168 -108 168 -108 191.5 -73 c 128,-1,25
 215 -38 215 -38 250 -12 c 1,26,27
 169 -4 169 -4 125.5 45 c 128,-1,28
 82 94 82 94 82 180 c 0,29,30
 82 200 82 200 83.5 219 c 128,-1,31
 85 238 85 238 90 262 c 2,32,-1
 170 660 l 1,33,-1
 200 660 l 1,34,-1
 122 270 l 2,35,36
 116 246 116 246 114 226 c 128,-1,37
 112 206 112 206 112 188 c 0,38,39
 112 105 112 105 152 59.5 c 128,-1,40
 192 14 192 14 272 14 c 0,41,42
 304 14 304 14 335 26 c 128,-1,43
 366 38 366 38 392.5 65 c 128,-1,44
 419 92 419 92 439.5 134.5 c 128,-1,45
 460 177 460 177 472 238 c 2,46,-1
 556 660 l 1,47,-1
 586 660 l 1,0,-1
EndSplineSet
Ligature2: "'ccmp' Glyph Composition/Decomposition in Latin lookup 6 subtable" U uni0328
EndChar

StartChar: Uhorn
Encoding: 431 431 203
Width: 600
GlyphClass: 2
Flags: W
AnchorPoint: "Anchor-3" 254 -22 basechar 0
AnchorPoint: "Anchor-1" 396 682 basechar 0
LayerCount: 2
Fore
SplineSet
90 262 m 2,0,-1
 170 660 l 1,1,-1
 200 660 l 1,2,-1
 122 270 l 2,3,4
 116 246 116 246 114 226 c 128,-1,5
 112 206 112 206 112 188 c 0,6,7
 112 105 112 105 152 59.5 c 128,-1,8
 192 14 192 14 272 14 c 0,9,10
 304 14 304 14 335 26 c 128,-1,11
 366 38 366 38 392.5 65 c 128,-1,12
 419 92 419 92 439.5 134.5 c 128,-1,13
 460 177 460 177 472 238 c 2,14,-1
 556 660 l 1,15,16
 610 662 610 662 642 687.5 c 128,-1,17
 674 713 674 713 674 758 c 0,18,19
 674 766 674 766 673.5 775 c 128,-1,20
 673 784 673 784 668 795 c 1,21,-1
 698 808 l 1,22,23
 706 785 706 785 706 764 c 0,24,25
 706 735 706 735 695.5 713 c 128,-1,26
 685 691 685 691 667.5 675 c 128,-1,27
 650 659 650 659 627.5 649.5 c 128,-1,28
 605 640 605 640 581 636 c 1,29,-1
 500 230 l 2,30,31
 486 162 486 162 462.5 116 c 128,-1,32
 439 70 439 70 408 41.5 c 128,-1,33
 377 13 377 13 341 0.5 c 128,-1,34
 305 -12 305 -12 268 -12 c 0,35,36
 180 -12 180 -12 131 38 c 128,-1,37
 82 88 82 88 82 180 c 0,38,39
 82 200 82 200 83.5 219 c 128,-1,40
 85 238 85 238 90 262 c 2,0,-1
EndSplineSet
EndChar

StartChar: Eth
Encoding: 208 208 225
Width: 590
Flags: W
LayerCount: 2
Fore
SplineSet
54 338 m 1,0,-1
 60 362 l 1,1,-1
 131 364 l 1,2,-1
 190 660 l 1,3,-1
 294 660 l 2,4,5
 362 660 362 660 413 641.5 c 128,-1,6
 464 623 464 623 497.5 589 c 128,-1,7
 531 555 531 555 547.5 508 c 128,-1,8
 564 461 564 461 564 404 c 0,9,10
 564 320 564 320 541.5 246.5 c 128,-1,11
 519 173 519 173 475 118 c 128,-1,12
 431 63 431 63 365 31.5 c 128,-1,13
 299 0 299 0 212 0 c 2,14,-1
 58 0 l 1,15,-1
 126 338 l 1,16,-1
 54 338 l 1,0,-1
92 26 m 1,17,-1
 214 26 l 2,18,19
 291 26 291 26 351 56.5 c 128,-1,20
 411 87 411 87 451.5 139 c 128,-1,21
 492 191 492 191 513 259 c 128,-1,22
 534 327 534 327 534 402 c 0,23,24
 534 453 534 453 519 495.5 c 128,-1,25
 504 538 504 538 474 569 c 128,-1,26
 444 600 444 600 398.5 617 c 128,-1,27
 353 634 353 634 292 634 c 2,28,-1
 214 634 l 1,29,-1
 160 364 l 1,30,-1
 330 364 l 1,31,-1
 324 338 l 1,32,-1
 155 338 l 1,33,-1
 92 26 l 1,17,-1
EndSplineSet
EndChar

StartChar: Thorn
Encoding: 222 222 226
Width: 536
Flags: W
LayerCount: 2
Fore
SplineSet
40 0 m 1,0,-1
 172 660 l 1,1,-1
 202 660 l 1,2,-1
 178 536 l 1,3,-1
 314 536 l 2,4,5
 405 536 405 536 455.5 500 c 128,-1,6
 506 464 506 464 506 386 c 0,7,8
 506 332 506 332 487 291.5 c 128,-1,9
 468 251 468 251 432 224 c 128,-1,10
 396 197 396 197 345 183.5 c 128,-1,11
 294 170 294 170 230 170 c 2,12,-1
 104 170 l 1,13,-1
 70 0 l 1,14,-1
 40 0 l 1,0,-1
110 196 m 1,15,-1
 224 196 l 2,16,17
 349 196 349 196 412.5 243 c 128,-1,18
 476 290 476 290 476 384 c 0,19,20
 476 452 476 452 430.5 481 c 128,-1,21
 385 510 385 510 296 510 c 2,22,-1
 172 510 l 1,23,-1
 110 196 l 1,15,-1
EndSplineSet
EndChar

StartChar: uni018F
Encoding: 399 399 227
Width: 610
GlyphClass: 2
Flags: W
AnchorPoint: "Anchor-3" 283 -22 basechar 0
AnchorPoint: "Anchor-1" 445 682 basechar 0
LayerCount: 2
Fore
SplineSet
260 -12 m 0,0,1
 212 -12 212 -12 175 6 c 128,-1,2
 138 24 138 24 113 56 c 128,-1,3
 88 88 88 88 75 131.5 c 128,-1,4
 62 175 62 175 62 226 c 0,5,6
 62 255 62 255 64.5 276.5 c 128,-1,7
 67 298 67 298 72 322 c 1,8,-1
 549 322 l 1,9,10
 551 339 551 339 552.5 356.5 c 128,-1,11
 554 374 554 374 554 392 c 0,12,13
 554 449 554 449 545 496 c 128,-1,14
 536 543 536 543 515 576 c 128,-1,15
 494 609 494 609 460.5 627.5 c 128,-1,16
 427 646 427 646 378 646 c 0,17,18
 331 646 331 646 288 626 c 128,-1,19
 245 606 245 606 212 574 c 1,20,-1
 194 594 l 1,21,22
 229 627 229 627 278 649.5 c 128,-1,23
 327 672 327 672 380 672 c 256,24,25
 433 672 433 672 471.5 652 c 128,-1,26
 510 632 510 632 535 596 c 128,-1,27
 560 560 560 560 572 509.5 c 128,-1,28
 584 459 584 459 584 398 c 0,29,30
 584 309 584 309 558.5 234 c 128,-1,31
 533 159 533 159 489 104.5 c 128,-1,32
 445 50 445 50 386 19 c 128,-1,33
 327 -12 327 -12 260 -12 c 0,0,1
262 14 m 0,34,35
 314 14 314 14 360 35 c 128,-1,36
 406 56 406 56 443 93.5 c 128,-1,37
 480 131 480 131 506.5 182.5 c 128,-1,38
 533 234 533 234 545 296 c 1,39,-1
 94 296 l 1,40,41
 85 230 85 230 92.5 177.5 c 128,-1,42
 100 125 100 125 122.5 89 c 128,-1,43
 145 53 145 53 180 33.5 c 128,-1,44
 215 14 215 14 262 14 c 0,34,35
EndSplineSet
EndChar

StartChar: aogonek
Encoding: 261 261 249
Width: 524
GlyphClass: 2
Flags: W
AnchorPoint: "Anchor-0" 312 502 basechar 0
LayerCount: 2
Fore
SplineSet
304 -202 m 0,0,1
 275 -202 275 -202 256.5 -187 c 128,-1,2
 238 -172 238 -172 238 -140 c 0,3,4
 238 -119 238 -119 248 -97.5 c 128,-1,5
 258 -76 258 -76 274.5 -56.5 c 128,-1,6
 291 -37 291 -37 313 -20 c 128,-1,7
 335 -3 335 -3 360 10 c 1,8,-1
 370 80 l 1,9,-1
 368 80 l 1,10,11
 330 41 330 41 283.5 14.5 c 128,-1,12
 237 -12 237 -12 186 -12 c 0,13,14
 123 -12 123 -12 84.5 31.5 c 128,-1,15
 46 75 46 75 46 160 c 0,16,17
 46 229 46 229 68 289 c 128,-1,18
 90 349 90 349 126.5 394 c 128,-1,19
 163 439 163 439 209.5 464.5 c 128,-1,20
 256 490 256 490 306 490 c 0,21,22
 350 490 350 490 382 467 c 128,-1,23
 414 444 414 444 434 408 c 1,24,-1
 436 408 l 1,25,-1
 454 478 l 1,26,-1
 478 478 l 1,27,-1
 382 0 l 1,28,29
 329 -30 329 -30 298.5 -64.5 c 128,-1,30
 268 -99 268 -99 268 -134 c 0,31,32
 268 -154 268 -154 278.5 -165 c 128,-1,33
 289 -176 289 -176 306 -176 c 0,34,35
 318 -176 318 -176 327.5 -173 c 128,-1,36
 337 -170 337 -170 348 -164 c 1,37,-1
 358 -186 l 1,38,39
 329 -202 329 -202 304 -202 c 0,0,1
188 14 m 0,40,41
 230 14 230 14 281.5 42.5 c 128,-1,42
 333 71 333 71 378 122 c 1,43,-1
 430 374 l 1,44,45
 401 424 401 424 370.5 444 c 128,-1,46
 340 464 340 464 304 464 c 0,47,48
 259 464 259 464 217.5 438 c 128,-1,49
 176 412 176 412 144 370 c 128,-1,50
 112 328 112 328 93 274.5 c 128,-1,51
 74 221 74 221 74 166 c 0,52,53
 74 89 74 89 104.5 51.5 c 128,-1,54
 135 14 135 14 188 14 c 0,40,41
EndSplineSet
Substitution2: "'ss02' Style Set 2 in Latin lookup 21 subtable" aogonek.a
Ligature2: "'ccmp' Glyph Composition/Decomposition in Latin lookup 6 subtable" a uni0328
Substitution2: "'aalt' Access All Alternates in Latin lookup 0 subtable" aogonek.a
EndChar

StartChar: ae
Encoding: 230 230 250
Width: 766
Flags: W
LayerCount: 2
Fore
SplineSet
40 102 m 0,0,1
 40 151 40 151 63.5 186.5 c 128,-1,2
 87 222 87 222 130 244.5 c 128,-1,3
 173 267 173 267 234 279 c 128,-1,4
 295 291 295 291 370 294 c 1,5,6
 375 314 375 314 376.5 327.5 c 128,-1,7
 378 341 378 341 378 356 c 0,8,9
 378 407 378 407 356 435.5 c 128,-1,10
 334 464 334 464 280 464 c 0,11,12
 245 464 245 464 208 450.5 c 128,-1,13
 171 437 171 437 136 416 c 1,14,-1
 124 440 l 1,15,16
 157 460 157 460 199 475 c 128,-1,17
 241 490 241 490 282 490 c 0,18,19
 336 490 336 490 369.5 461 c 128,-1,20
 403 432 403 432 406 372 c 1,21,22
 441 426 441 426 489 458 c 128,-1,23
 537 490 537 490 588 490 c 0,24,25
 626 490 626 490 653 477.5 c 128,-1,26
 680 465 680 465 697 442.5 c 128,-1,27
 714 420 714 420 722 389.5 c 128,-1,28
 730 359 730 359 730 322 c 0,29,30
 730 298 730 298 726.5 277.5 c 128,-1,31
 723 257 723 257 718 242 c 1,32,-1
 390 242 l 1,33,34
 380 192 380 192 385.5 150.5 c 128,-1,35
 391 109 391 109 409 78.5 c 128,-1,36
 427 48 427 48 455.5 31 c 128,-1,37
 484 14 484 14 522 14 c 0,38,39
 557 14 557 14 589 28 c 128,-1,40
 621 42 621 42 648 62 c 1,41,-1
 662 40 l 1,42,43
 633 19 633 19 597 3.5 c 128,-1,44
 561 -12 561 -12 520 -12 c 0,45,46
 467 -12 467 -12 426 18.5 c 128,-1,47
 385 49 385 49 370 96 c 1,48,49
 319 45 319 45 265.5 16.5 c 128,-1,50
 212 -12 212 -12 158 -12 c 0,51,52
 135 -12 135 -12 113.5 -5 c 128,-1,53
 92 2 92 2 75.5 16.5 c 128,-1,54
 59 31 59 31 49.5 52 c 128,-1,55
 40 73 40 73 40 102 c 0,0,1
396 268 m 1,56,-1
 696 268 l 1,57,58
 699 283 699 283 700.5 297 c 128,-1,59
 702 311 702 311 702 328 c 0,60,61
 702 353 702 353 696 377.5 c 128,-1,62
 690 402 690 402 676.5 421.5 c 128,-1,63
 663 441 663 441 640.5 452.5 c 128,-1,64
 618 464 618 464 586 464 c 0,65,66
 557 464 557 464 527 449.5 c 128,-1,67
 497 435 497 435 471.5 409 c 128,-1,68
 446 383 446 383 426 347 c 128,-1,69
 406 311 406 311 396 268 c 1,56,-1
366 268 m 1,70,71
 299 266 299 266 244 256 c 128,-1,72
 189 246 189 246 150 226.5 c 128,-1,73
 111 207 111 207 89.5 177.5 c 128,-1,74
 68 148 68 148 68 108 c 0,75,76
 68 61 68 61 95.5 37.5 c 128,-1,77
 123 14 123 14 164 14 c 0,78,79
 203 14 203 14 255.5 40 c 128,-1,80
 308 66 308 66 362 122 c 1,81,82
 359 143 359 143 358 161 c 128,-1,83
 357 179 357 179 357.5 196 c 128,-1,84
 358 213 358 213 360 230.5 c 128,-1,85
 362 248 362 248 366 268 c 1,70,71
EndSplineSet
EndChar

StartChar: dcroat
Encoding: 273 273 259
Width: 522
Flags: W
LayerCount: 2
Fore
SplineSet
186 -12 m 0,0,1
 123 -12 123 -12 84.5 31.5 c 128,-1,2
 46 75 46 75 46 160 c 0,3,4
 46 221 46 221 67.5 277.5 c 128,-1,5
 89 334 89 334 125 376.5 c 128,-1,6
 161 419 161 419 207.5 444.5 c 128,-1,7
 254 470 254 470 304 470 c 0,8,9
 348 470 348 470 379 448 c 128,-1,10
 410 426 410 426 428 390 c 1,11,-1
 432 390 l 1,12,-1
 452 486 l 1,13,-1
 472 584 l 1,14,-1
 306 584 l 1,15,-1
 312 610 l 1,16,-1
 477 610 l 1,17,-1
 500 722 l 1,18,-1
 528 722 l 1,19,-1
 505 610 l 1,20,-1
 580 610 l 1,21,-1
 574 588 l 1,22,-1
 500 584 l 1,23,-1
 382 0 l 1,24,-1
 358 0 l 1,25,-1
 370 78 l 1,26,-1
 366 78 l 1,27,28
 328 39 328 39 282.5 13.5 c 128,-1,29
 237 -12 237 -12 186 -12 c 0,0,1
188 14 m 0,30,31
 238 14 238 14 285.5 42.5 c 128,-1,32
 333 71 333 71 378 122 c 1,33,-1
 426 352 l 1,34,35
 399 402 399 402 368.5 423 c 128,-1,36
 338 444 338 444 302 444 c 0,37,38
 257 444 257 444 215.5 419 c 128,-1,39
 174 394 174 394 142.5 354 c 128,-1,40
 111 314 111 314 92.5 264.5 c 128,-1,41
 74 215 74 215 74 166 c 0,42,43
 74 89 74 89 104.5 51.5 c 128,-1,44
 135 14 135 14 188 14 c 0,30,31
EndSplineSet
EndChar

StartChar: eogonek
Encoding: 281 281 276
Width: 468
GlyphClass: 2
Flags: W
AnchorPoint: "Anchor-0" 294 502 basechar 0
LayerCount: 2
Fore
SplineSet
186 -140 m 0,0,1
 186 -121 186 -121 194 -101.5 c 128,-1,2
 202 -82 202 -82 214 -64.5 c 128,-1,3
 226 -47 226 -47 241 -32 c 128,-1,4
 256 -17 256 -17 270 -6 c 1,5,6
 258 -9 258 -9 245.5 -10.5 c 128,-1,7
 233 -12 233 -12 224 -12 c 0,8,9
 141 -12 141 -12 92.5 37.5 c 128,-1,10
 44 87 44 87 44 184 c 0,11,12
 44 252 44 252 65.5 308.5 c 128,-1,13
 87 365 87 365 121.5 405.5 c 128,-1,14
 156 446 156 446 200 468 c 128,-1,15
 244 490 244 490 290 490 c 0,16,17
 328 490 328 490 355 477.5 c 128,-1,18
 382 465 382 465 399 442.5 c 128,-1,19
 416 420 416 420 424 389.5 c 128,-1,20
 432 359 432 359 432 322 c 0,21,22
 432 298 432 298 428.5 277.5 c 128,-1,23
 425 257 425 257 420 242 c 1,24,-1
 78 242 l 1,25,26
 67 182 67 182 75 139 c 128,-1,27
 83 96 83 96 104 68 c 128,-1,28
 125 40 125 40 156.5 27 c 128,-1,29
 188 14 188 14 226 14 c 0,30,31
 259 14 259 14 291 28 c 128,-1,32
 323 42 323 42 350 62 c 1,33,-1
 364 40 l 1,34,35
 284 -14 284 -14 250 -56.5 c 128,-1,36
 216 -99 216 -99 216 -134 c 0,37,38
 216 -154 216 -154 226.5 -165 c 128,-1,39
 237 -176 237 -176 254 -176 c 0,40,41
 266 -176 266 -176 275.5 -173 c 128,-1,42
 285 -170 285 -170 296 -164 c 1,43,-1
 306 -186 l 1,44,45
 277 -202 277 -202 252 -202 c 0,46,47
 223 -202 223 -202 204.5 -187 c 128,-1,48
 186 -172 186 -172 186 -140 c 0,0,1
84 268 m 1,49,-1
 398 268 l 1,50,51
 401 283 401 283 402.5 297 c 128,-1,52
 404 311 404 311 404 328 c 0,53,54
 404 353 404 353 398 377.5 c 128,-1,55
 392 402 392 402 378.5 421.5 c 128,-1,56
 365 441 365 441 342.5 452.5 c 128,-1,57
 320 464 320 464 288 464 c 0,58,59
 254 464 254 464 221.5 449.5 c 128,-1,60
 189 435 189 435 162 409 c 128,-1,61
 135 383 135 383 114.5 347 c 128,-1,62
 94 311 94 311 84 268 c 1,49,-1
EndSplineSet
Ligature2: "'ccmp' Glyph Composition/Decomposition in Latin lookup 6 subtable" e uni0328
EndChar

StartChar: hbar
Encoding: 295 295 287
Width: 498
Flags: W
LayerCount: 2
Fore
SplineSet
44 0 m 1,0,-1
 160 584 l 1,1,-1
 88 584 l 1,2,-1
 92 606 l 1,3,-1
 166 610 l 1,4,-1
 188 722 l 1,5,-1
 216 722 l 1,6,-1
 193 610 l 1,7,-1
 380 610 l 1,8,-1
 374 584 l 1,9,-1
 188 584 l 1,10,-1
 156 424 l 1,11,-1
 144 378 l 1,12,-1
 148 378 l 1,13,14
 196 419 196 419 238 444.5 c 128,-1,15
 280 470 280 470 324 470 c 0,16,17
 386 470 386 470 412 437.5 c 128,-1,18
 438 405 438 405 438 354 c 0,19,20
 438 336 438 336 436.5 323.5 c 128,-1,21
 435 311 435 311 430 290 c 2,22,-1
 372 0 l 1,23,-1
 344 0 l 1,24,-1
 402 286 l 2,25,26
 407 309 407 309 408.5 322 c 128,-1,27
 410 335 410 335 410 350 c 0,28,29
 410 397 410 397 389 420.5 c 128,-1,30
 368 444 368 444 320 444 c 0,31,32
 287 444 287 444 242 419 c 128,-1,33
 197 394 197 394 140 338 c 1,34,-1
 72 0 l 1,35,-1
 44 0 l 1,0,-1
EndSplineSet
EndChar

StartChar: iogonek
Encoding: 303 303 297
Width: 214
GlyphClass: 3
Flags: W
LayerCount: 2
Fore
SplineSet
22 -202 m 0,0,1
 -7 -202 -7 -202 -25.5 -187 c 128,-1,2
 -44 -172 -44 -172 -44 -140 c 0,3,4
 -44 -121 -44 -121 -36 -100.5 c 128,-1,5
 -28 -80 -28 -80 -15 -61.5 c 128,-1,6
 -2 -43 -2 -43 14 -27 c 128,-1,7
 30 -11 30 -11 46 0 c 1,8,-1
 44 0 l 1,9,-1
 140 478 l 1,10,-1
 168 478 l 1,11,-1
 72 0 l 1,12,13
 34 -33 34 -33 10 -66 c 128,-1,14
 -14 -99 -14 -99 -14 -134 c 0,15,16
 -14 -154 -14 -154 -3.5 -165 c 128,-1,17
 7 -176 7 -176 24 -176 c 0,18,19
 36 -176 36 -176 45.5 -173 c 128,-1,20
 55 -170 55 -170 66 -164 c 1,21,-1
 76 -186 l 1,22,23
 47 -202 47 -202 22 -202 c 0,0,1
180 600 m 0,24,25
 168 600 168 600 160 608 c 128,-1,26
 152 616 152 616 152 628 c 0,27,28
 152 646 152 646 163 657 c 128,-1,29
 174 668 174 668 188 668 c 0,30,31
 200 668 200 668 208 660 c 128,-1,32
 216 652 216 652 216 638 c 0,33,34
 216 621 216 621 205 610.5 c 128,-1,35
 194 600 194 600 180 600 c 0,24,25
EndSplineSet
Substitution2: "Single Substitution lookup 26 subtable" iogonek.d
Ligature2: "'ccmp' Glyph Composition/Decomposition in Latin lookup 6 subtable" i uni0328
EndChar

StartChar: iogonek.d
Encoding: 65539 -1 298
Width: 214
GlyphClass: 2
Flags: W
AnchorPoint: "Anchor-0" 166 502 basechar 0
LayerCount: 2
Fore
SplineSet
22 -202 m 0,0,1
 -7 -202 -7 -202 -25.5 -187 c 128,-1,2
 -44 -172 -44 -172 -44 -140 c 0,3,4
 -44 -121 -44 -121 -36 -100.5 c 128,-1,5
 -28 -80 -28 -80 -15 -61.5 c 128,-1,6
 -2 -43 -2 -43 14 -27 c 128,-1,7
 30 -11 30 -11 46 0 c 1,8,-1
 44 0 l 1,9,-1
 140 478 l 1,10,-1
 168 478 l 1,11,-1
 72 0 l 1,12,13
 34 -33 34 -33 10 -66 c 128,-1,14
 -14 -99 -14 -99 -14 -134 c 0,15,16
 -14 -154 -14 -154 -3.5 -165 c 128,-1,17
 7 -176 7 -176 24 -176 c 0,18,19
 36 -176 36 -176 45.5 -173 c 128,-1,20
 55 -170 55 -170 66 -164 c 1,21,-1
 76 -186 l 1,22,23
 47 -202 47 -202 22 -202 c 0,0,1
EndSplineSet
Ligature2: "Ligature Substitution lookup 25 subtable" i uni0328
EndChar

StartChar: dotlessi
Encoding: 305 305 299
Width: 214
GlyphClass: 2
Flags: W
AnchorPoint: "Anchor-5" 58 0 basechar 0
AnchorPoint: "Anchor-3" 66 -22 basechar 0
AnchorPoint: "Anchor-0" 166 502 basechar 0
LayerCount: 2
Fore
SplineSet
44 0 m 1,0,-1
 140 478 l 1,1,-1
 168 478 l 1,2,-1
 72 0 l 1,3,-1
 44 0 l 1,0,-1
EndSplineSet
EndChar

StartChar: kgreenlandic
Encoding: 312 312 302
Width: 436
Flags: W
LayerCount: 2
Fore
SplineSet
44 0 m 1,0,-1
 140 478 l 1,1,-1
 168 478 l 1,2,-1
 108 176 l 1,3,-1
 110 176 l 1,4,-1
 408 478 l 1,5,-1
 444 478 l 1,6,-1
 258 286 l 1,7,-1
 374 0 l 1,8,-1
 344 0 l 1,9,-1
 236 266 l 1,10,-1
 98 126 l 1,11,-1
 72 0 l 1,12,-1
 44 0 l 1,0,-1
EndSplineSet
EndChar

StartChar: lslash
Encoding: 322 322 310
Width: 226
Flags: W
LayerCount: 2
Fore
SplineSet
86 -12 m 0,0,1
 71 -12 71 -12 60.5 -3 c 128,-1,2
 50 6 50 6 50 24 c 0,3,4
 50 29 50 29 51 35.5 c 128,-1,5
 52 42 52 42 54 50 c 2,6,-1
 119 375 l 1,7,-1
 54 336 l 1,8,-1
 44 358 l 1,9,-1
 125 407 l 1,10,-1
 188 722 l 1,11,-1
 216 722 l 1,12,-1
 157 424 l 1,13,-1
 232 470 l 1,14,-1
 242 448 l 1,15,-1
 151 393 l 1,16,-1
 82 48 l 2,17,18
 80 40 80 40 80 35.5 c 128,-1,19
 80 31 80 31 80 28 c 0,20,21
 80 14 80 14 94 14 c 0,22,23
 97 14 97 14 99.5 14.5 c 128,-1,24
 102 15 102 15 110 18 c 1,25,-1
 114 -6 l 1,26,27
 106 -9 106 -9 100.5 -10.5 c 128,-1,28
 95 -12 95 -12 86 -12 c 0,0,1
EndSplineSet
Substitution2: "'ss01' Style Set 1 in Latin lookup 20 subtable" lslash.a
Substitution2: "'aalt' Access All Alternates in Latin lookup 0 subtable" lslash.a
EndChar

StartChar: oslash
Encoding: 248 248 335
Width: 500
GlyphClass: 2
Flags: W
AnchorPoint: "Anchor-0" 318 502 basechar 0
LayerCount: 2
Fore
SplineSet
204 -12 m 0,0,1
 125 -12 125 -12 83 45 c 1,2,-1
 18 -22 l 1,3,-1
 0 -4 l 1,4,-1
 69 67 l 1,5,6
 46 111 46 111 46 176 c 0,7,8
 46 243 46 243 67 300.5 c 128,-1,9
 88 358 88 358 122.5 400 c 128,-1,10
 157 442 157 442 202 466 c 128,-1,11
 247 490 247 490 296 490 c 0,12,13
 378 490 378 490 421 429 c 1,14,-1
 488 498 l 1,15,-1
 506 480 l 1,16,-1
 434 406 l 1,17,18
 454 361 454 361 454 302 c 0,19,20
 454 235 454 235 433 177.5 c 128,-1,21
 412 120 412 120 377.5 78 c 128,-1,22
 343 36 343 36 298 12 c 128,-1,23
 253 -12 253 -12 204 -12 c 0,0,1
74 182 m 256,24,25
 74 125 74 125 90 89 c 1,26,-1
 401 408 l 1,27,28
 366 464 366 464 294 464 c 0,29,30
 253 464 253 464 214 441.5 c 128,-1,31
 175 419 175 419 143.5 380 c 128,-1,32
 112 341 112 341 93 290 c 128,-1,33
 74 239 74 239 74 182 c 256,24,25
206 14 m 0,34,35
 246 14 246 14 285.5 36.5 c 128,-1,36
 325 59 325 59 356.5 98 c 128,-1,37
 388 137 388 137 407 188 c 128,-1,38
 426 239 426 239 426 296 c 0,39,40
 426 347 426 347 412 384 c 1,41,-1
 103 65 l 1,42,43
 136 14 136 14 206 14 c 0,34,35
EndSplineSet
EndChar

StartChar: oe
Encoding: 339 339 336
Width: 824
GlyphClass: 2
Flags: W
AnchorPoint: "Anchor-0" 460 502 basechar 0
LayerCount: 2
Fore
SplineSet
204 -12 m 0,0,1
 132 -12 132 -12 89 36.5 c 128,-1,2
 46 85 46 85 46 176 c 0,3,4
 46 243 46 243 67 300.5 c 128,-1,5
 88 358 88 358 122.5 400 c 128,-1,6
 157 442 157 442 202 466 c 128,-1,7
 247 490 247 490 296 490 c 0,8,9
 361 490 361 490 402 451 c 128,-1,10
 443 412 443 412 452 340 c 1,11,12
 484 411 484 411 537 450.5 c 128,-1,13
 590 490 590 490 646 490 c 0,14,15
 684 490 684 490 711 477.5 c 128,-1,16
 738 465 738 465 755 442.5 c 128,-1,17
 772 420 772 420 780 389.5 c 128,-1,18
 788 359 788 359 788 322 c 0,19,20
 788 298 788 298 784.5 277.5 c 128,-1,21
 781 257 781 257 776 242 c 1,22,-1
 452 242 l 1,23,24
 443 182 443 182 450 139 c 128,-1,25
 457 96 457 96 475.5 68 c 128,-1,26
 494 40 494 40 522 27 c 128,-1,27
 550 14 550 14 582 14 c 0,28,29
 615 14 615 14 647 28 c 128,-1,30
 679 42 679 42 706 62 c 1,31,-1
 720 40 l 1,32,33
 691 19 691 19 655 3.5 c 128,-1,34
 619 -12 619 -12 580 -12 c 0,35,36
 514 -12 514 -12 471.5 29 c 128,-1,37
 429 70 429 70 420 148 c 1,38,39
 403 111 403 111 380 81.5 c 128,-1,40
 357 52 357 52 328.5 31 c 128,-1,41
 300 10 300 10 268.5 -1 c 128,-1,42
 237 -12 237 -12 204 -12 c 0,0,1
206 14 m 0,43,44
 246 14 246 14 285.5 36.5 c 128,-1,45
 325 59 325 59 356.5 98 c 128,-1,46
 388 137 388 137 407 188 c 128,-1,47
 426 239 426 239 426 296 c 0,48,49
 426 379 426 379 391.5 421.5 c 128,-1,50
 357 464 357 464 294 464 c 0,51,52
 253 464 253 464 214 441.5 c 128,-1,53
 175 419 175 419 143.5 380 c 128,-1,54
 112 341 112 341 93 290 c 128,-1,55
 74 239 74 239 74 182 c 0,56,57
 74 99 74 99 108.5 56.5 c 128,-1,58
 143 14 143 14 206 14 c 0,43,44
458 268 m 1,59,-1
 754 268 l 1,60,61
 757 283 757 283 758.5 297 c 128,-1,62
 760 311 760 311 760 328 c 0,63,64
 760 353 760 353 754 377.5 c 128,-1,65
 748 402 748 402 734.5 421.5 c 128,-1,66
 721 441 721 441 698.5 452.5 c 128,-1,67
 676 464 676 464 644 464 c 0,68,69
 613 464 613 464 583.5 449.5 c 128,-1,70
 554 435 554 435 529 409 c 128,-1,71
 504 383 504 383 485.5 347 c 128,-1,72
 467 311 467 311 458 268 c 1,59,-1
EndSplineSet
EndChar

StartChar: ohorn
Encoding: 417 417 337
Width: 500
GlyphClass: 2
Flags: W
AnchorPoint: "Anchor-3" 188 -22 basechar 0
AnchorPoint: "Anchor-0" 318 502 basechar 0
LayerCount: 2
Fore
SplineSet
204 -12 m 0,0,1
 132 -12 132 -12 89 36.5 c 128,-1,2
 46 85 46 85 46 176 c 0,3,4
 46 243 46 243 67 300.5 c 128,-1,5
 88 358 88 358 122.5 400 c 128,-1,6
 157 442 157 442 202 466 c 128,-1,7
 247 490 247 490 296 490 c 0,8,9
 349 490 349 490 384 465 c 1,10,11
 434 471 434 471 463.5 495 c 128,-1,12
 493 519 493 519 496 564 c 0,13,14
 498 583 498 583 490 606 c 1,15,-1
 518 620 l 1,16,17
 523 606 523 606 524.5 593 c 128,-1,18
 526 580 526 580 526 568 c 0,19,20
 526 539 526 539 515 518 c 128,-1,21
 504 497 504 497 486.5 482 c 128,-1,22
 469 467 469 467 448 458 c 128,-1,23
 427 449 427 449 408 444 c 1,24,25
 430 420 430 420 442 384.5 c 128,-1,26
 454 349 454 349 454 302 c 0,27,28
 454 235 454 235 433 177.5 c 128,-1,29
 412 120 412 120 377.5 78 c 128,-1,30
 343 36 343 36 298 12 c 128,-1,31
 253 -12 253 -12 204 -12 c 0,0,1
206 14 m 0,32,33
 246 14 246 14 285.5 36.5 c 128,-1,34
 325 59 325 59 356.5 98 c 128,-1,35
 388 137 388 137 407 188 c 128,-1,36
 426 239 426 239 426 296 c 0,37,38
 426 379 426 379 391.5 421.5 c 128,-1,39
 357 464 357 464 294 464 c 0,40,41
 253 464 253 464 214 441.5 c 128,-1,42
 175 419 175 419 143.5 380 c 128,-1,43
 112 341 112 341 93 290 c 128,-1,44
 74 239 74 239 74 182 c 0,45,46
 74 99 74 99 108.5 56.5 c 128,-1,47
 143 14 143 14 206 14 c 0,32,33
EndSplineSet
EndChar

StartChar: uni1EE1
Encoding: 7905 7905 341
Width: 500
Flags: W
LayerCount: 2
Fore
SplineSet
388 580 m 0,0,1
 361 580 361 580 345.5 596 c 128,-1,2
 330 612 330 612 317.5 631 c 128,-1,3
 305 650 305 650 291.5 666 c 128,-1,4
 278 682 278 682 256 682 c 0,5,6
 227 682 227 682 210 653 c 128,-1,7
 193 624 193 624 184 582 c 1,8,-1
 158 584 l 1,9,10
 163 606 163 606 171 627.5 c 128,-1,11
 179 649 179 649 191 666.5 c 128,-1,12
 203 684 203 684 220 695 c 128,-1,13
 237 706 237 706 260 706 c 0,14,15
 287 706 287 706 302.5 690 c 128,-1,16
 318 674 318 674 330.5 655 c 128,-1,17
 343 636 343 636 356.5 620 c 128,-1,18
 370 604 370 604 392 604 c 0,19,20
 420 604 420 604 437.5 634 c 128,-1,21
 455 664 455 664 464 704 c 1,22,-1
 490 702 l 1,23,24
 485 681 485 681 477 659.5 c 128,-1,25
 469 638 469 638 457 620 c 128,-1,26
 445 602 445 602 428 591 c 128,-1,27
 411 580 411 580 388 580 c 0,0,1
204 -12 m 0,28,29
 132 -12 132 -12 89 36.5 c 128,-1,30
 46 85 46 85 46 176 c 0,31,32
 46 243 46 243 67 300.5 c 128,-1,33
 88 358 88 358 122.5 400 c 128,-1,34
 157 442 157 442 202 466 c 128,-1,35
 247 490 247 490 296 490 c 0,36,37
 349 490 349 490 384 465 c 1,38,39
 434 471 434 471 463.5 495 c 128,-1,40
 493 519 493 519 496 564 c 0,41,42
 498 583 498 583 490 606 c 1,43,-1
 518 620 l 1,44,45
 523 606 523 606 524.5 593 c 128,-1,46
 526 580 526 580 526 568 c 0,47,48
 526 539 526 539 515 518 c 128,-1,49
 504 497 504 497 486.5 482 c 128,-1,50
 469 467 469 467 448 458 c 128,-1,51
 427 449 427 449 408 444 c 1,52,53
 430 420 430 420 442 384.5 c 128,-1,54
 454 349 454 349 454 302 c 0,55,56
 454 235 454 235 433 177.5 c 128,-1,57
 412 120 412 120 377.5 78 c 128,-1,58
 343 36 343 36 298 12 c 128,-1,59
 253 -12 253 -12 204 -12 c 0,28,29
206 14 m 0,60,61
 246 14 246 14 285.5 36.5 c 128,-1,62
 325 59 325 59 356.5 98 c 128,-1,63
 388 137 388 137 407 188 c 128,-1,64
 426 239 426 239 426 296 c 0,65,66
 426 379 426 379 391.5 421.5 c 128,-1,67
 357 464 357 464 294 464 c 0,68,69
 253 464 253 464 214 441.5 c 128,-1,70
 175 419 175 419 143.5 380 c 128,-1,71
 112 341 112 341 93 290 c 128,-1,72
 74 239 74 239 74 182 c 0,73,74
 74 99 74 99 108.5 56.5 c 128,-1,75
 143 14 143 14 206 14 c 0,60,61
EndSplineSet
EndChar

StartChar: uni01EB
Encoding: 491 491 343
Width: 500
GlyphClass: 2
Flags: W
AnchorPoint: "Anchor-0" 318 502 basechar 0
LayerCount: 2
Fore
SplineSet
184 -202 m 0,0,1
 155 -202 155 -202 136.5 -187 c 128,-1,2
 118 -172 118 -172 118 -140 c 0,3,4
 118 -121 118 -121 126 -101 c 128,-1,5
 134 -81 134 -81 146 -64 c 128,-1,6
 158 -47 158 -47 173 -33.5 c 128,-1,7
 188 -20 188 -20 202 -12 c 1,8,9
 128 -9 128 -9 87 38 c 128,-1,10
 46 85 46 85 46 176 c 0,11,12
 46 243 46 243 67 300.5 c 128,-1,13
 88 358 88 358 122.5 400 c 128,-1,14
 157 442 157 442 202 466 c 128,-1,15
 247 490 247 490 296 490 c 0,16,17
 368 490 368 490 411 441.5 c 128,-1,18
 454 393 454 393 454 302 c 0,19,20
 454 190 454 190 401.5 111.5 c 128,-1,21
 349 33 349 33 260 -6 c 0,22,23
 233 -18 233 -18 212.5 -33.5 c 128,-1,24
 192 -49 192 -49 177.5 -66.5 c 128,-1,25
 163 -84 163 -84 155.5 -101.5 c 128,-1,26
 148 -119 148 -119 148 -134 c 0,27,28
 148 -154 148 -154 158.5 -165 c 128,-1,29
 169 -176 169 -176 186 -176 c 0,30,31
 198 -176 198 -176 207.5 -173 c 128,-1,32
 217 -170 217 -170 228 -164 c 1,33,-1
 238 -186 l 1,34,35
 209 -202 209 -202 184 -202 c 0,0,1
206 14 m 0,36,37
 246 14 246 14 285.5 36.5 c 128,-1,38
 325 59 325 59 356.5 98 c 128,-1,39
 388 137 388 137 407 188 c 128,-1,40
 426 239 426 239 426 296 c 0,41,42
 426 379 426 379 391.5 421.5 c 128,-1,43
 357 464 357 464 294 464 c 0,44,45
 253 464 253 464 214 441.5 c 128,-1,46
 175 419 175 419 143.5 380 c 128,-1,47
 112 341 112 341 93 290 c 128,-1,48
 74 239 74 239 74 182 c 0,49,50
 74 99 74 99 108.5 56.5 c 128,-1,51
 143 14 143 14 206 14 c 0,36,37
EndSplineSet
Ligature2: "'ccmp' Glyph Composition/Decomposition in Latin lookup 6 subtable" o uni0328
EndChar

StartChar: germandbls
Encoding: 223 223 357
Width: 512
Flags: W
LayerCount: 2
Fore
SplineSet
310 -12 m 0,0,1
 275 -12 275 -12 240 2 c 128,-1,2
 205 16 205 16 176 42 c 1,3,-1
 194 62 l 1,4,5
 221 39 221 39 249 26.5 c 128,-1,6
 277 14 277 14 312 14 c 0,7,8
 336 14 336 14 357.5 22 c 128,-1,9
 379 30 379 30 395.5 45 c 128,-1,10
 412 60 412 60 422 80 c 128,-1,11
 432 100 432 100 432 124 c 0,12,13
 432 153 432 153 420 175 c 128,-1,14
 408 197 408 197 390 214 c 128,-1,15
 372 231 372 231 351 246 c 128,-1,16
 330 261 330 261 312 277 c 128,-1,17
 294 293 294 293 282 311.5 c 128,-1,18
 270 330 270 330 270 356 c 0,19,20
 270 385 270 385 281 407 c 128,-1,21
 292 429 292 429 308.5 448 c 128,-1,22
 325 467 325 467 344 484.5 c 128,-1,23
 363 502 363 502 379.5 521 c 128,-1,24
 396 540 396 540 407 563 c 128,-1,25
 418 586 418 586 418 616 c 0,26,27
 418 655 418 655 398.5 681.5 c 128,-1,28
 379 708 379 708 334 708 c 0,29,30
 305 708 305 708 279.5 694 c 128,-1,31
 254 680 254 680 234 656 c 128,-1,32
 214 632 214 632 199.5 599.5 c 128,-1,33
 185 567 185 567 178 530 c 2,34,-1
 72 0 l 1,35,-1
 44 0 l 1,36,-1
 152 540 l 2,37,38
 160 579 160 579 176.5 614 c 128,-1,39
 193 649 193 649 216.5 676 c 128,-1,40
 240 703 240 703 270 718.5 c 128,-1,41
 300 734 300 734 336 734 c 0,42,43
 387 734 387 734 416.5 703.5 c 128,-1,44
 446 673 446 673 446 616 c 0,45,46
 446 566 446 566 423 533 c 128,-1,47
 400 500 400 500 372 474 c 128,-1,48
 344 448 344 448 321 422.5 c 128,-1,49
 298 397 298 397 298 362 c 0,50,51
 298 338 298 338 310 320.5 c 128,-1,52
 322 303 322 303 340 288 c 128,-1,53
 358 273 358 273 379 258 c 128,-1,54
 400 243 400 243 418 225.5 c 128,-1,55
 436 208 436 208 448 185 c 128,-1,56
 460 162 460 162 460 130 c 0,57,58
 460 101 460 101 449 75 c 128,-1,59
 438 49 438 49 418 29.5 c 128,-1,60
 398 10 398 10 370.5 -1 c 128,-1,61
 343 -12 343 -12 310 -12 c 0,0,1
EndSplineSet
EndChar

StartChar: uogonek
Encoding: 371 371 380
Width: 514
GlyphClass: 2
Flags: W
AnchorPoint: "Anchor-0" 308 502 basechar 0
LayerCount: 2
Fore
SplineSet
294 -202 m 0,0,1
 265 -202 265 -202 246.5 -187 c 128,-1,2
 228 -172 228 -172 228 -140 c 0,3,4
 228 -119 228 -119 238 -97.5 c 128,-1,5
 248 -76 248 -76 264.5 -56.5 c 128,-1,6
 281 -37 281 -37 303 -20 c 128,-1,7
 325 -3 325 -3 350 10 c 1,8,-1
 360 80 l 1,9,-1
 356 80 l 1,10,11
 311 41 311 41 269.5 14.5 c 128,-1,12
 228 -12 228 -12 184 -12 c 0,13,14
 122 -12 122 -12 96 20.5 c 128,-1,15
 70 53 70 53 70 104 c 0,16,17
 70 122 70 122 71.5 134.5 c 128,-1,18
 73 147 73 147 78 168 c 2,19,-1
 140 478 l 1,20,-1
 168 478 l 1,21,-1
 106 172 l 2,22,23
 101 149 101 149 99.5 136 c 128,-1,24
 98 123 98 123 98 108 c 0,25,26
 98 61 98 61 119 37.5 c 128,-1,27
 140 14 140 14 188 14 c 0,28,29
 221 14 221 14 266 39 c 128,-1,30
 311 64 311 64 368 120 c 1,31,-1
 440 478 l 1,32,-1
 468 478 l 1,33,-1
 372 0 l 1,34,35
 319 -30 319 -30 288.5 -64.5 c 128,-1,36
 258 -99 258 -99 258 -134 c 0,37,38
 258 -154 258 -154 268.5 -165 c 128,-1,39
 279 -176 279 -176 296 -176 c 0,40,41
 308 -176 308 -176 317.5 -173 c 128,-1,42
 327 -170 327 -170 338 -164 c 1,43,-1
 348 -186 l 1,44,45
 319 -202 319 -202 294 -202 c 0,0,1
EndSplineSet
Ligature2: "'ccmp' Glyph Composition/Decomposition in Latin lookup 6 subtable" u uni0328
EndChar

StartChar: uhorn
Encoding: 432 432 381
Width: 524
GlyphClass: 2
Flags: W
AnchorPoint: "Anchor-3" 240 -22 basechar 0
AnchorPoint: "Anchor-0" 308 502 basechar 0
LayerCount: 2
Fore
SplineSet
356 80 m 1,0,1
 311 41 311 41 269.5 14.5 c 128,-1,2
 228 -12 228 -12 184 -12 c 0,3,4
 122 -12 122 -12 96 20.5 c 128,-1,5
 70 53 70 53 70 104 c 0,6,7
 70 122 70 122 71.5 134.5 c 128,-1,8
 73 147 73 147 78 168 c 2,9,-1
 140 478 l 1,10,-1
 168 478 l 1,11,-1
 106 172 l 2,12,13
 101 149 101 149 99.5 136 c 128,-1,14
 98 123 98 123 98 108 c 0,15,16
 98 61 98 61 119 37.5 c 128,-1,17
 140 14 140 14 188 14 c 0,18,19
 221 14 221 14 266 39 c 128,-1,20
 311 64 311 64 368 120 c 1,21,-1
 440 478 l 1,22,23
 459 479 459 479 477 486 c 128,-1,24
 495 493 495 493 509.5 506 c 128,-1,25
 524 519 524 519 533 537.5 c 128,-1,26
 542 556 542 556 544 580 c 0,27,28
 546 599 546 599 538 622 c 1,29,-1
 566 636 l 1,30,31
 571 622 571 622 572.5 609 c 128,-1,32
 574 596 574 596 574 584 c 0,33,34
 574 552 574 552 561.5 529.5 c 128,-1,35
 549 507 549 507 531.5 491.5 c 128,-1,36
 514 476 514 476 495.5 467.5 c 128,-1,37
 477 459 477 459 464 456 c 1,38,-1
 372 0 l 1,39,-1
 348 0 l 1,40,-1
 360 80 l 1,41,-1
 356 80 l 1,0,1
EndSplineSet
EndChar

StartChar: eth
Encoding: 240 240 403
Width: 514
Flags: W
LayerCount: 2
Fore
SplineSet
210 -12 m 0,0,1
 175 -12 175 -12 145.5 2 c 128,-1,2
 116 16 116 16 95 40 c 128,-1,3
 74 64 74 64 62 96 c 128,-1,4
 50 128 50 128 50 164 c 0,5,6
 50 217 50 217 66.5 267 c 128,-1,7
 83 317 83 317 113.5 355.5 c 128,-1,8
 144 394 144 394 187.5 417 c 128,-1,9
 231 440 231 440 284 440 c 0,10,11
 324 440 324 440 358.5 417.5 c 128,-1,12
 393 395 393 395 420 359 c 1,13,14
 417 433 417 433 398 489 c 128,-1,15
 379 545 379 545 347 590 c 1,16,-1
 198 526 l 1,17,-1
 190 548 l 1,18,-1
 333 609 l 1,19,20
 310 636 310 636 283.5 659 c 128,-1,21
 257 682 257 682 226 702 c 1,22,-1
 242 722 l 1,23,24
 309 679 309 679 358 620 c 1,25,-1
 504 682 l 1,26,-1
 512 660 l 1,27,-1
 372 600 l 1,28,29
 407 550 407 550 427.5 486.5 c 128,-1,30
 448 423 448 423 448 340 c 0,31,32
 448 266 448 266 431 202 c 128,-1,33
 414 138 414 138 382.5 90.5 c 128,-1,34
 351 43 351 43 307 15.5 c 128,-1,35
 263 -12 263 -12 210 -12 c 0,0,1
216 14 m 0,36,37
 260 14 260 14 296.5 39 c 128,-1,38
 333 64 333 64 360 105.5 c 128,-1,39
 387 147 387 147 402.5 202 c 128,-1,40
 418 257 418 257 420 317 c 1,41,42
 408 335 408 335 394 352.5 c 128,-1,43
 380 370 380 370 363 383.5 c 128,-1,44
 346 397 346 397 326 405.5 c 128,-1,45
 306 414 306 414 282 414 c 0,46,47
 236 414 236 414 198.5 393 c 128,-1,48
 161 372 161 372 134 337.5 c 128,-1,49
 107 303 107 303 92.5 258.5 c 128,-1,50
 78 214 78 214 78 168 c 0,51,52
 78 137 78 137 87 109 c 128,-1,53
 96 81 96 81 114 60 c 128,-1,54
 132 39 132 39 157.5 26.5 c 128,-1,55
 183 14 183 14 216 14 c 0,36,37
EndSplineSet
EndChar

StartChar: thorn
Encoding: 254 254 404
Width: 520
GlyphClass: 2
Flags: W
AnchorPoint: "Anchor-3" 226 -22 basechar 0
AnchorPoint: "Anchor-0" 208 730 basechar 0
LayerCount: 2
Fore
SplineSet
0 -222 m 1,0,-1
 188 722 l 1,1,-1
 216 722 l 1,2,-1
 172 506 l 1,3,-1
 152 408 l 1,4,-1
 154 408 l 1,5,6
 193 440 193 440 239 465 c 128,-1,7
 285 490 285 490 336 490 c 0,8,9
 399 490 399 490 437.5 446 c 128,-1,10
 476 402 476 402 476 318 c 0,11,12
 476 249 476 249 454 189 c 128,-1,13
 432 129 432 129 395.5 84 c 128,-1,14
 359 39 359 39 312 13.5 c 128,-1,15
 265 -12 265 -12 216 -12 c 0,16,17
 172 -12 172 -12 140 10.5 c 128,-1,18
 108 33 108 33 86 68 c 1,19,-1
 84 68 l 1,20,-1
 62 -42 l 1,21,-1
 28 -222 l 1,22,-1
 0 -222 l 1,0,-1
218 14 m 0,23,24
 263 14 263 14 304.5 39.5 c 128,-1,25
 346 65 346 65 378 107 c 128,-1,26
 410 149 410 149 429 202.5 c 128,-1,27
 448 256 448 256 448 312 c 0,28,29
 448 388 448 388 417.5 426 c 128,-1,30
 387 464 387 464 334 464 c 0,31,32
 313 464 313 464 289 457 c 128,-1,33
 265 450 265 450 240.5 437.5 c 128,-1,34
 216 425 216 425 192 408 c 128,-1,35
 168 391 168 391 146 372 c 1,36,-1
 92 102 l 1,37,38
 121 54 121 54 151.5 34 c 128,-1,39
 182 14 182 14 218 14 c 0,23,24
EndSplineSet
EndChar

StartChar: uni0237
Encoding: 567 567 405
Width: 214
GlyphClass: 2
Flags: W
AnchorPoint: "Anchor-0" 160 502 basechar 0
LayerCount: 2
Fore
SplineSet
-60 -234 m 0,0,1
 -81 -234 -81 -234 -94 -229 c 128,-1,2
 -107 -224 -107 -224 -118 -218 c 1,3,-1
 -106 -194 l 1,4,5
 -97 -200 -97 -200 -87.5 -204 c 128,-1,6
 -78 -208 -78 -208 -58 -208 c 0,7,8
 -28 -208 -28 -208 -8.5 -179.5 c 128,-1,9
 11 -151 11 -151 22 -104 c 2,10,-1
 140 478 l 1,11,-1
 168 478 l 1,12,-1
 52 -98 l 2,13,14
 38 -163 38 -163 11.5 -198.5 c 128,-1,15
 -15 -234 -15 -234 -60 -234 c 0,0,1
EndSplineSet
EndChar

StartChar: uni0259
Encoding: 601 601 407
Width: 466
Flags: W
LayerCount: 2
Fore
SplineSet
420 294 m 0,0,1
 420 226 420 226 398.5 169.5 c 128,-1,2
 377 113 377 113 342 72.5 c 128,-1,3
 307 32 307 32 263 10 c 128,-1,4
 219 -12 219 -12 174 -12 c 0,5,6
 136 -12 136 -12 109 0.5 c 128,-1,7
 82 13 82 13 65 35.5 c 128,-1,8
 48 58 48 58 40 88.5 c 128,-1,9
 32 119 32 119 32 156 c 0,10,11
 32 182 32 182 36 204.5 c 128,-1,12
 40 227 40 227 46 248 c 1,13,-1
 388 248 l 1,14,15
 395 296 395 296 389.5 335.5 c 128,-1,16
 384 375 384 375 367.5 403.5 c 128,-1,17
 351 432 351 432 323.5 448 c 128,-1,18
 296 464 296 464 260 464 c 0,19,20
 222 464 222 464 191.5 451.5 c 128,-1,21
 161 439 161 439 132 424 c 1,22,-1
 120 448 l 1,23,24
 149 463 149 463 183 476.5 c 128,-1,25
 217 490 217 490 262 490 c 0,26,27
 334 490 334 490 377 439.5 c 128,-1,28
 420 389 420 389 420 294 c 0,0,1
176 14 m 256,29,30
 210 14 210 14 242.5 28.5 c 128,-1,31
 275 43 275 43 302.5 70 c 128,-1,32
 330 97 330 97 350.5 135.5 c 128,-1,33
 371 174 371 174 382 222 c 1,34,-1
 68 222 l 1,35,36
 63 205 63 205 61.5 186 c 128,-1,37
 60 167 60 167 60 150 c 0,38,39
 60 124 60 124 65.5 100 c 128,-1,40
 71 76 71 76 84.5 56.5 c 128,-1,41
 98 37 98 37 120 25.5 c 128,-1,42
 142 14 142 14 176 14 c 256,29,30
EndSplineSet
Substitution2: "'sups' Superscript in Latin lookup 12 subtable" uni0259.sups
Substitution2: "'aalt' Access All Alternates in Latin lookup 0 subtable" uni0259.sups
EndChar

StartChar: f_f
Encoding: 64256 64256 409
Width: 492
GlyphClass: 3
Flags: W
LayerCount: 2
Fore
SplineSet
294 0 m 1,0,-1
 385 452 l 1,1,-1
 167 452 l 1,2,-1
 76 0 l 1,3,-1
 48 0 l 1,4,-1
 139 452 l 1,5,-1
 76 452 l 1,6,-1
 80 474 l 1,7,-1
 144 478 l 1,8,-1
 166 588 l 2,9,10
 183 659 183 659 218.5 691.5 c 128,-1,11
 254 724 254 724 300 724 c 0,12,13
 328 724 328 724 345.5 718 c 128,-1,14
 363 712 363 712 380 704 c 1,15,-1
 366 680 l 1,16,17
 352 688 352 688 337 693 c 128,-1,18
 322 698 322 698 298 698 c 0,19,20
 277 698 277 698 260 689 c 128,-1,21
 243 680 243 680 230 665 c 128,-1,22
 217 650 217 650 208 630 c 128,-1,23
 199 610 199 610 194 588 c 2,24,-1
 172 478 l 1,25,-1
 390 478 l 1,26,-1
 414 598 l 2,27,28
 429 669 429 669 462.5 701.5 c 128,-1,29
 496 734 496 734 538 734 c 0,30,31
 562 734 562 734 577.5 728 c 128,-1,32
 593 722 593 722 608 714 c 1,33,-1
 594 690 l 1,34,35
 582 698 582 698 569 703 c 128,-1,36
 556 708 556 708 536 708 c 0,37,38
 517 708 517 708 502 699 c 128,-1,39
 487 690 487 690 475 675 c 128,-1,40
 463 660 463 660 454.5 640 c 128,-1,41
 446 620 446 620 442 598 c 2,42,-1
 418 478 l 1,43,-1
 526 478 l 1,44,-1
 520 452 l 1,45,-1
 413 452 l 1,46,-1
 322 0 l 1,47,-1
 294 0 l 1,0,-1
EndSplineSet
Ligature2: "'liga' Standard Ligatures in Latin lookup 24 subtable" f f
EndChar

StartChar: f_t
Encoding: 65540 -1 410
Width: 490
GlyphClass: 3
Flags: W
LayerCount: 2
Fore
SplineSet
48 0 m 1,0,-1
 139 452 l 1,1,-1
 76 452 l 1,2,-1
 80 474 l 1,3,-1
 144 478 l 1,4,-1
 168 598 l 2,5,6
 183 669 183 669 216.5 701.5 c 128,-1,7
 250 734 250 734 292 734 c 0,8,9
 316 734 316 734 331.5 728 c 128,-1,10
 347 722 347 722 362 714 c 1,11,-1
 348 690 l 1,12,13
 336 698 336 698 323 703 c 128,-1,14
 310 708 310 708 290 708 c 0,15,16
 271 708 271 708 256 699 c 128,-1,17
 241 690 241 690 229 675 c 128,-1,18
 217 660 217 660 208.5 640 c 128,-1,19
 200 620 200 620 196 598 c 2,20,-1
 172 478 l 1,21,-1
 352 478 l 1,22,-1
 384 616 l 1,23,-1
 408 616 l 1,24,-1
 380 478 l 1,25,-1
 512 478 l 1,26,-1
 506 452 l 1,27,-1
 374 452 l 1,28,-1
 306 122 l 2,29,30
 304 113 304 113 303 104 c 128,-1,31
 302 95 302 95 302 84 c 0,32,33
 302 49 302 49 316.5 31.5 c 128,-1,34
 331 14 331 14 372 14 c 0,35,36
 390 14 390 14 405 20 c 128,-1,37
 420 26 420 26 432 32 c 1,38,-1
 442 10 l 1,39,40
 428 2 428 2 409.5 -5 c 128,-1,41
 391 -12 391 -12 370 -12 c 0,42,43
 316 -12 316 -12 295 15 c 128,-1,44
 274 42 274 42 274 78 c 0,45,46
 274 92 274 92 275 102 c 128,-1,47
 276 112 276 112 278 124 c 2,48,-1
 346 452 l 1,49,-1
 167 452 l 1,50,-1
 76 0 l 1,51,-1
 48 0 l 1,0,-1
EndSplineSet
Ligature2: "'liga' Standard Ligatures in Latin lookup 24 subtable" f t
EndChar

StartChar: I.a
Encoding: 65541 -1 411
Width: 218
GlyphClass: 2
Flags: W
LayerCount: 2
Fore
SplineSet
40 0 m 1,0,-1
 172 660 l 1,1,-1
 202 660 l 1,2,-1
 70 0 l 1,3,-1
 40 0 l 1,0,-1
EndSplineSet
EndChar

StartChar: Iogonek.a
Encoding: 65552 -1 422
Width: 218
GlyphClass: 2
Flags: W
AnchorPoint: "Anchor-1" 191 682 basechar 0
LayerCount: 2
Fore
SplineSet
22 -202 m 0,0,1
 -5 -202 -5 -202 -23.5 -187 c 128,-1,2
 -42 -172 -42 -172 -42 -140 c 0,3,4
 -42 -121 -42 -121 -34 -100.5 c 128,-1,5
 -26 -80 -26 -80 -13.5 -61.5 c 128,-1,6
 -1 -43 -1 -43 13.5 -27 c 128,-1,7
 28 -11 28 -11 42 0 c 1,8,-1
 40 0 l 1,9,-1
 172 660 l 1,10,-1
 202 660 l 1,11,-1
 70 0 l 1,12,13
 55 -14 55 -14 40.5 -30 c 128,-1,14
 26 -46 26 -46 14 -63.5 c 128,-1,15
 2 -81 2 -81 -5 -99 c 128,-1,16
 -12 -117 -12 -117 -12 -134 c 0,17,18
 -12 -154 -12 -154 -1.5 -165 c 128,-1,19
 9 -176 9 -176 26 -176 c 0,20,21
 38 -176 38 -176 47.5 -173 c 128,-1,22
 57 -170 57 -170 68 -164 c 1,23,-1
 78 -182 l 1,24,25
 66 -191 66 -191 49.5 -196.5 c 128,-1,26
 33 -202 33 -202 22 -202 c 0,0,1
EndSplineSet
EndChar

StartChar: a.a
Encoding: 65553 -1 423
Width: 474
GlyphClass: 2
Flags: W
AnchorPoint: "Anchor-5" 300 0 basechar 0
AnchorPoint: "Anchor-3" 194 -22 basechar 0
AnchorPoint: "Anchor-0" 292 502 basechar 0
LayerCount: 2
Fore
SplineSet
40 102 m 0,0,1
 40 151 40 151 63.5 186.5 c 128,-1,2
 87 222 87 222 131 245 c 128,-1,3
 175 268 175 268 237.5 280 c 128,-1,4
 300 292 300 292 378 294 c 1,5,6
 383 314 383 314 384.5 327.5 c 128,-1,7
 386 341 386 341 386 356 c 0,8,9
 386 416 386 416 361 440 c 128,-1,10
 336 464 336 464 280 464 c 0,11,12
 245 464 245 464 208 450.5 c 128,-1,13
 171 437 171 437 136 416 c 1,14,-1
 124 440 l 1,15,16
 157 460 157 460 199 475 c 128,-1,17
 241 490 241 490 282 490 c 0,18,19
 313 490 313 490 337.5 483 c 128,-1,20
 362 476 362 476 379 460.5 c 128,-1,21
 396 445 396 445 405 420 c 128,-1,22
 414 395 414 395 414 358 c 0,23,24
 414 344 414 344 411.5 326 c 128,-1,25
 409 308 409 308 406 296 c 2,26,-1
 348 0 l 1,27,-1
 324 0 l 1,28,-1
 332 62 l 1,29,-1
 330 62 l 1,30,31
 294 30 294 30 248 9 c 128,-1,32
 202 -12 202 -12 158 -12 c 0,33,34
 135 -12 135 -12 113.5 -5 c 128,-1,35
 92 2 92 2 75.5 16.5 c 128,-1,36
 59 31 59 31 49.5 52 c 128,-1,37
 40 73 40 73 40 102 c 0,0,1
374 268 m 1,38,39
 304 266 304 266 247.5 256 c 128,-1,40
 191 246 191 246 151 226.5 c 128,-1,41
 111 207 111 207 89.5 177.5 c 128,-1,42
 68 148 68 148 68 108 c 0,43,44
 68 58 68 58 95.5 36 c 128,-1,45
 123 14 123 14 164 14 c 0,46,47
 242 14 242 14 340 100 c 1,48,-1
 374 268 l 1,38,39
EndSplineSet
EndChar

StartChar: aogonek.a
Encoding: 65575 -1 445
Width: 474
GlyphClass: 2
Flags: W
AnchorPoint: "Anchor-0" 292 502 basechar 0
LayerCount: 2
Fore
SplineSet
326 10 m 1,0,-1
 332 62 l 1,1,-1
 330 62 l 1,2,3
 294 30 294 30 248 9 c 128,-1,4
 202 -12 202 -12 158 -12 c 0,5,6
 135 -12 135 -12 113.5 -5 c 128,-1,7
 92 2 92 2 75.5 16.5 c 128,-1,8
 59 31 59 31 49.5 52 c 128,-1,9
 40 73 40 73 40 102 c 0,10,11
 40 151 40 151 63.5 186.5 c 128,-1,12
 87 222 87 222 131 245 c 128,-1,13
 175 268 175 268 237.5 280 c 128,-1,14
 300 292 300 292 378 294 c 1,15,16
 383 314 383 314 384.5 327.5 c 128,-1,17
 386 341 386 341 386 356 c 0,18,19
 386 416 386 416 361 440 c 128,-1,20
 336 464 336 464 280 464 c 0,21,22
 245 464 245 464 208 450.5 c 128,-1,23
 171 437 171 437 136 416 c 1,24,-1
 124 440 l 1,25,26
 157 460 157 460 199 475 c 128,-1,27
 241 490 241 490 282 490 c 0,28,29
 313 490 313 490 337.5 483 c 128,-1,30
 362 476 362 476 379 460.5 c 128,-1,31
 396 445 396 445 405 420 c 128,-1,32
 414 395 414 395 414 358 c 0,33,34
 414 344 414 344 411.5 326 c 128,-1,35
 409 308 409 308 406 296 c 2,36,-1
 348 0 l 1,37,38
 295 -30 295 -30 264.5 -64.5 c 128,-1,39
 234 -99 234 -99 234 -134 c 0,40,41
 234 -154 234 -154 244.5 -165 c 128,-1,42
 255 -176 255 -176 272 -176 c 0,43,44
 284 -176 284 -176 293.5 -173 c 128,-1,45
 303 -170 303 -170 314 -164 c 1,46,-1
 324 -186 l 1,47,48
 295 -202 295 -202 270 -202 c 0,49,50
 241 -202 241 -202 222.5 -187 c 128,-1,51
 204 -172 204 -172 204 -140 c 0,52,53
 204 -119 204 -119 214 -97.5 c 128,-1,54
 224 -76 224 -76 240.5 -56.5 c 128,-1,55
 257 -37 257 -37 279 -20 c 128,-1,56
 301 -3 301 -3 326 10 c 1,0,-1
374 268 m 1,57,58
 304 266 304 266 247.5 256 c 128,-1,59
 191 246 191 246 151 226.5 c 128,-1,60
 111 207 111 207 89.5 177.5 c 128,-1,61
 68 148 68 148 68 108 c 0,62,63
 68 58 68 58 95.5 36 c 128,-1,64
 123 14 123 14 164 14 c 0,65,66
 242 14 242 14 340 100 c 1,67,-1
 374 268 l 1,57,58
EndSplineSet
EndChar

StartChar: g.a
Encoding: 65576 -1 446
Width: 456
GlyphClass: 2
Flags: W
AnchorPoint: "Anchor-3" 158 -230 basechar 0
AnchorPoint: "Anchor-0" 276 502 basechar 0
LayerCount: 2
Fore
SplineSet
156 -234 m 0,0,1
 125 -234 125 -234 96 -227 c 128,-1,2
 67 -220 67 -220 44.5 -205.5 c 128,-1,3
 22 -191 22 -191 8 -169 c 128,-1,4
 -6 -147 -6 -147 -6 -118 c 0,5,6
 -6 -92 -6 -92 6.5 -70 c 128,-1,7
 19 -48 19 -48 38.5 -30.5 c 128,-1,8
 58 -13 58 -13 80 0.5 c 128,-1,9
 102 14 102 14 122 24 c 1,10,-1
 122 26 l 1,11,12
 105 35 105 35 96.5 52.5 c 128,-1,13
 88 70 88 70 88 88 c 0,14,15
 88 132 88 132 136 174 c 1,16,-1
 136 178 l 1,17,18
 116 195 116 195 103 221.5 c 128,-1,19
 90 248 90 248 90 280 c 0,20,21
 90 324 90 324 104 362.5 c 128,-1,22
 118 401 118 401 143.5 429.5 c 128,-1,23
 169 458 169 458 204.5 474 c 128,-1,24
 240 490 240 490 282 490 c 0,25,26
 299 490 299 490 310.5 487 c 128,-1,27
 322 484 322 484 334 478 c 1,28,-1
 486 478 l 1,29,-1
 480 452 l 1,30,-1
 366 452 l 1,31,32
 383 434 383 434 392.5 409.5 c 128,-1,33
 402 385 402 385 402 362 c 0,34,35
 402 318 402 318 387.5 279.5 c 128,-1,36
 373 241 373 241 347.5 212.5 c 128,-1,37
 322 184 322 184 287 168 c 128,-1,38
 252 152 252 152 210 152 c 0,39,40
 182 152 182 152 158 164 c 1,41,42
 143 152 143 152 129.5 133.5 c 128,-1,43
 116 115 116 115 116 94 c 0,44,45
 116 64 116 64 139.5 49 c 128,-1,46
 163 34 163 34 220 28 c 0,47,48
 303 19 303 19 338.5 -5.5 c 128,-1,49
 374 -30 374 -30 374 -78 c 0,50,51
 374 -116 374 -116 356 -145.5 c 128,-1,52
 338 -175 338 -175 308 -194.5 c 128,-1,53
 278 -214 278 -214 238.5 -224 c 128,-1,54
 199 -234 199 -234 156 -234 c 0,0,1
214 178 m 0,55,56
 248 178 248 178 277 192.5 c 128,-1,57
 306 207 306 207 327.5 231 c 128,-1,58
 349 255 349 255 361.5 286.5 c 128,-1,59
 374 318 374 318 374 352 c 0,60,61
 374 402 374 402 348.5 433 c 128,-1,62
 323 464 323 464 278 464 c 0,63,64
 244 464 244 464 215 449.5 c 128,-1,65
 186 435 186 435 164.5 411 c 128,-1,66
 143 387 143 387 130.5 355.5 c 128,-1,67
 118 324 118 324 118 290 c 0,68,69
 118 240 118 240 143.5 209 c 128,-1,70
 169 178 169 178 214 178 c 0,55,56
158 -208 m 0,71,72
 198 -208 198 -208 232 -198 c 128,-1,73
 266 -188 266 -188 291.5 -171.5 c 128,-1,74
 317 -155 317 -155 331.5 -132.5 c 128,-1,75
 346 -110 346 -110 346 -84 c 0,76,77
 346 -46 346 -46 313.5 -27 c 128,-1,78
 281 -8 281 -8 204 0 c 0,79,80
 190 2 190 2 174.5 4.5 c 128,-1,81
 159 7 159 7 144 10 c 1,82,83
 124 2 124 2 102.5 -11 c 128,-1,84
 81 -24 81 -24 63 -40 c 128,-1,85
 45 -56 45 -56 33.5 -74.5 c 128,-1,86
 22 -93 22 -93 22 -112 c 0,87,88
 22 -138 22 -138 33.5 -156 c 128,-1,89
 45 -174 45 -174 64 -185.5 c 128,-1,90
 83 -197 83 -197 107.5 -202.5 c 128,-1,91
 132 -208 132 -208 158 -208 c 0,71,72
EndSplineSet
EndChar

StartChar: l.a
Encoding: 65584 -1 454
Width: 216
GlyphClass: 2
Flags: W
AnchorPoint: "Anchor-3" 60 -22 basechar 0
AnchorPoint: "Anchor-0" 206 730 basechar 0
LayerCount: 2
Fore
SplineSet
44 0 m 1,0,-1
 188 722 l 1,1,-1
 216 722 l 1,2,-1
 72 0 l 1,3,-1
 44 0 l 1,0,-1
EndSplineSet
EndChar

StartChar: lslash.a
Encoding: 65592 -1 462
Width: 216
Flags: W
LayerCount: 2
Fore
SplineSet
54 336 m 1,0,-1
 44 358 l 1,1,-1
 125 407 l 1,2,-1
 188 722 l 1,3,-1
 216 722 l 1,4,-1
 157 424 l 1,5,-1
 232 470 l 1,6,-1
 242 448 l 1,7,-1
 150 392 l 1,8,-1
 72 0 l 1,9,-1
 44 0 l 1,10,-1
 119 375 l 1,11,-1
 54 336 l 1,0,-1
EndSplineSet
EndChar

StartChar: ampersand
Encoding: 38 38 463
Width: 542
Flags: W
LayerCount: 2
Fore
SplineSet
163 -12 m 0,0,1
 131 -12 131 -12 104.5 -2 c 128,-1,2
 78 8 78 8 58 27 c 128,-1,3
 38 46 38 46 27 73 c 128,-1,4
 16 100 16 100 16 134 c 0,5,6
 16 175 16 175 31 208 c 128,-1,7
 46 241 46 241 70.5 268.5 c 128,-1,8
 95 296 95 296 127 319.5 c 128,-1,9
 159 343 159 343 193 365 c 1,10,11
 176 427 176 427 176 482 c 0,12,13
 176 525 176 525 189 560 c 128,-1,14
 202 595 202 595 223 620 c 128,-1,15
 244 645 244 645 271.5 658.5 c 128,-1,16
 299 672 299 672 328 672 c 0,17,18
 373 672 373 672 393.5 645.5 c 128,-1,19
 414 619 414 619 414 584 c 0,20,21
 414 545 414 545 397.5 513.5 c 128,-1,22
 381 482 381 482 354 455 c 128,-1,23
 327 428 327 428 293 404 c 128,-1,24
 259 380 259 380 224 357 c 1,25,26
 244 289 244 289 279 225 c 128,-1,27
 314 161 314 161 357 112 c 1,28,29
 404 160 404 160 439 217 c 128,-1,30
 474 274 474 274 506 341 c 1,31,-1
 534 341 l 1,32,33
 501 271 501 271 461.5 208 c 128,-1,34
 422 145 422 145 374 94 c 1,35,36
 401 65 401 65 426.5 44 c 128,-1,37
 452 23 452 23 478 12 c 1,38,-1
 464 -12 l 1,39,40
 438 -1 438 -1 410 20 c 128,-1,41
 382 41 382 41 353 73 c 1,42,43
 311 34 311 34 263.5 11 c 128,-1,44
 216 -12 216 -12 163 -12 c 0,0,1
204 486 m 0,45,46
 204 436 204 436 218 382 c 1,47,48
 250 403 250 403 280.5 424 c 128,-1,49
 311 445 311 445 334.5 468 c 128,-1,50
 358 491 358 491 372 518 c 128,-1,51
 386 545 386 545 386 577 c 0,52,53
 386 603 386 603 372 624.5 c 128,-1,54
 358 646 358 646 326 646 c 0,55,56
 299 646 299 646 277 634 c 128,-1,57
 255 622 255 622 238.5 600.5 c 128,-1,58
 222 579 222 579 213 549.5 c 128,-1,59
 204 520 204 520 204 486 c 0,45,46
170 14 m 0,60,61
 214 14 214 14 256 36 c 128,-1,62
 298 58 298 58 336 92 c 1,63,64
 294 142 294 142 257.5 207 c 128,-1,65
 221 272 221 272 200 341 c 1,66,67
 170 320 170 320 142 298.5 c 128,-1,68
 114 277 114 277 92.5 253 c 128,-1,69
 71 229 71 229 58.5 201 c 128,-1,70
 46 173 46 173 46 140 c 0,71,72
 46 111 46 111 55.5 88 c 128,-1,73
 65 65 65 65 81.5 48.5 c 128,-1,74
 98 32 98 32 120.5 23 c 128,-1,75
 143 14 143 14 170 14 c 0,60,61
EndSplineSet
EndChar

StartChar: zero
Encoding: 48 48 464
Width: 456
Flags: W
LayerCount: 2
Fore
SplineSet
186 -12 m 0,0,1
 148 -12 148 -12 121.5 6 c 128,-1,2
 95 24 95 24 78.5 53 c 128,-1,3
 62 82 62 82 54 119.5 c 128,-1,4
 46 157 46 157 46 196 c 0,5,6
 46 247 46 247 54.5 300.5 c 128,-1,7
 63 354 63 354 78.5 405 c 128,-1,8
 94 456 94 456 116.5 500.5 c 128,-1,9
 139 545 139 545 166.5 579 c 128,-1,10
 194 613 194 613 226.5 632.5 c 128,-1,11
 259 652 259 652 296 652 c 256,12,13
 333 652 333 652 359.5 633.5 c 128,-1,14
 386 615 386 615 403 585 c 128,-1,15
 420 555 420 555 428 517.5 c 128,-1,16
 436 480 436 480 436 442 c 0,17,18
 436 391 436 391 427.5 337.5 c 128,-1,19
 419 284 419 284 403.5 233.5 c 128,-1,20
 388 183 388 183 365.5 138.5 c 128,-1,21
 343 94 343 94 315.5 60.5 c 128,-1,22
 288 27 288 27 255 7.5 c 128,-1,23
 222 -12 222 -12 186 -12 c 0,0,1
186 14 m 0,24,25
 234 14 234 14 274.5 55 c 128,-1,26
 315 96 315 96 345 159 c 128,-1,27
 375 222 375 222 391.5 296 c 128,-1,28
 408 370 408 370 408 436 c 0,29,30
 408 473 408 473 401.5 507 c 128,-1,31
 395 541 395 541 381 567.5 c 128,-1,32
 367 594 367 594 345.5 610 c 128,-1,33
 324 626 324 626 294 626 c 0,34,35
 262 626 262 626 233.5 606.5 c 128,-1,36
 205 587 205 587 180.5 554.5 c 128,-1,37
 156 522 156 522 136 479 c 128,-1,38
 116 436 116 436 102.5 389 c 128,-1,39
 89 342 89 342 81.5 293.5 c 128,-1,40
 74 245 74 245 74 202 c 0,41,42
 74 166 74 166 80 132 c 128,-1,43
 86 98 86 98 99.5 72 c 128,-1,44
 113 46 113 46 134.5 30 c 128,-1,45
 156 14 156 14 186 14 c 0,24,25
EndSplineSet
Substitution2: "'zero' Slashed Zero in Latin lookup 18 subtable" zero.0
Substitution2: "'ss05' Style Set 5 in Latin lookup 17 subtable" zero.0s
Substitution2: "'onum' Oldstyle Figures in Latin lookup 16 subtable" zero.tnum
Substitution2: "'pnum' Proportional Numbers in Latin lookup 15 subtable" zero.pnum
Substitution2: "'subs' Subscript in Latin lookup 14 subtable" zero.subs
Substitution2: "'sups' Superscript in Latin lookup 13 subtable" zero.sups
Substitution2: "'dnom' Denominators in Latin lookup 9 subtable" zero.dnom
Substitution2: "'numr' Numerators in Latin lookup 8 subtable" zero.numr
AlternateSubs2: "'aalt' Access All Alternates in Latin lookup 1 subtable" zero.numr zero.dnom zero.sups zero.subs zero.pnum zero.tnum
EndChar

StartChar: one
Encoding: 49 49 465
Width: 456
Flags: W
LayerCount: 2
Fore
SplineSet
32 0 m 1,0,-1
 38 26 l 1,1,-1
 182 26 l 1,2,-1
 294 582 l 1,3,-1
 182 582 l 1,4,-1
 186 602 l 1,5,6
 222 607 222 607 254.5 616.5 c 128,-1,7
 287 626 287 626 310 640 c 1,8,-1
 334 640 l 1,9,-1
 210 26 l 1,10,-1
 350 26 l 1,11,-1
 346 0 l 1,12,-1
 32 0 l 1,0,-1
EndSplineSet
Substitution2: "'onum' Oldstyle Figures in Latin lookup 16 subtable" one.tnum
Substitution2: "'pnum' Proportional Numbers in Latin lookup 15 subtable" one.pnum
Substitution2: "'subs' Subscript in Latin lookup 14 subtable" one.subs
Substitution2: "'sups' Superscript in Latin lookup 13 subtable" one.sups
Substitution2: "'dnom' Denominators in Latin lookup 9 subtable" one.dnom
Substitution2: "'numr' Numerators in Latin lookup 8 subtable" one.numr
AlternateSubs2: "'aalt' Access All Alternates in Latin lookup 1 subtable" one.numr one.dnom one.sups one.subs one.pnum one.tnum
EndChar

StartChar: two
Encoding: 50 50 466
Width: 456
Flags: W
LayerCount: 2
Fore
SplineSet
-8 0 m 1,0,-1
 -6 20 l 1,1,2
 104 115 104 115 181.5 183 c 128,-1,3
 259 251 259 251 308 305 c 128,-1,4
 357 359 357 359 379.5 404.5 c 128,-1,5
 402 450 402 450 402 500 c 0,6,7
 402 525 402 525 394.5 548 c 128,-1,8
 387 571 387 571 371.5 588.5 c 128,-1,9
 356 606 356 606 332 616 c 128,-1,10
 308 626 308 626 276 626 c 0,11,12
 240 626 240 626 201 608 c 128,-1,13
 162 590 162 590 124 552 c 1,14,-1
 106 574 l 1,15,16
 148 610 148 610 189 631 c 128,-1,17
 230 652 230 652 278 652 c 0,18,19
 315 652 315 652 343.5 640.5 c 128,-1,20
 372 629 372 629 391.5 609.5 c 128,-1,21
 411 590 411 590 420.5 563.5 c 128,-1,22
 430 537 430 537 430 506 c 0,23,24
 430 450 430 450 407.5 400.5 c 128,-1,25
 385 351 385 351 337.5 297 c 128,-1,26
 290 243 290 243 216.5 178 c 128,-1,27
 143 113 143 113 42 26 c 1,28,-1
 366 26 l 1,29,-1
 362 0 l 1,30,-1
 -8 0 l 1,0,-1
EndSplineSet
Substitution2: "'onum' Oldstyle Figures in Latin lookup 16 subtable" two.tnum
Substitution2: "'pnum' Proportional Numbers in Latin lookup 15 subtable" two.pnum
Substitution2: "'subs' Subscript in Latin lookup 14 subtable" two.subs
Substitution2: "'sups' Superscript in Latin lookup 13 subtable" two.sups
Substitution2: "'dnom' Denominators in Latin lookup 9 subtable" two.dnom
Substitution2: "'numr' Numerators in Latin lookup 8 subtable" two.numr
AlternateSubs2: "'aalt' Access All Alternates in Latin lookup 1 subtable" two.numr two.dnom two.sups two.subs two.pnum two.tnum
EndChar

StartChar: three
Encoding: 51 51 467
Width: 456
Flags: W
LayerCount: 2
Fore
SplineSet
174 -12 m 0,0,1
 139 -12 139 -12 111 -1.5 c 128,-1,2
 83 9 83 9 61 24.5 c 128,-1,3
 39 40 39 40 22.5 58.5 c 128,-1,4
 6 77 6 77 -4 94 c 1,5,-1
 18 110 l 1,6,7
 29 93 29 93 44 76 c 128,-1,8
 59 59 59 59 78.5 45.5 c 128,-1,9
 98 32 98 32 122.5 23 c 128,-1,10
 147 14 147 14 178 14 c 0,11,12
 219 14 219 14 254 27 c 128,-1,13
 289 40 289 40 314.5 62.5 c 128,-1,14
 340 85 340 85 354 116 c 128,-1,15
 368 147 368 147 368 182 c 0,16,17
 368 211 368 211 356 236.5 c 128,-1,18
 344 262 344 262 318.5 281 c 128,-1,19
 293 300 293 300 254 311 c 128,-1,20
 215 322 215 322 160 322 c 1,21,-1
 166 348 l 1,22,23
 233 348 233 348 278.5 363.5 c 128,-1,24
 324 379 324 379 352.5 402.5 c 128,-1,25
 381 426 381 426 393.5 453.5 c 128,-1,26
 406 481 406 481 406 506 c 0,27,28
 406 559 406 559 377.5 592.5 c 128,-1,29
 349 626 349 626 286 626 c 0,30,31
 269 626 269 626 249.5 621.5 c 128,-1,32
 230 617 230 617 210.5 609.5 c 128,-1,33
 191 602 191 602 173 590.5 c 128,-1,34
 155 579 155 579 142 566 c 1,35,-1
 124 588 l 1,36,37
 159 617 159 617 201.5 634.5 c 128,-1,38
 244 652 244 652 288 652 c 0,39,40
 363 652 363 652 398.5 613.5 c 128,-1,41
 434 575 434 575 434 512 c 0,42,43
 434 450 434 450 392 401 c 128,-1,44
 350 352 350 352 276 334 c 1,45,-1
 276 330 l 1,46,47
 329 315 329 315 362.5 278.5 c 128,-1,48
 396 242 396 242 396 188 c 0,49,50
 396 144 396 144 379.5 107 c 128,-1,51
 363 70 363 70 333.5 43.5 c 128,-1,52
 304 17 304 17 263.5 2.5 c 128,-1,53
 223 -12 223 -12 174 -12 c 0,0,1
EndSplineSet
Substitution2: "'onum' Oldstyle Figures in Latin lookup 16 subtable" three.tnum
Substitution2: "'pnum' Proportional Numbers in Latin lookup 15 subtable" three.pnum
Substitution2: "'subs' Subscript in Latin lookup 14 subtable" three.subs
Substitution2: "'sups' Superscript in Latin lookup 13 subtable" three.sups
Substitution2: "'dnom' Denominators in Latin lookup 9 subtable" three.dnom
Substitution2: "'numr' Numerators in Latin lookup 8 subtable" three.numr
AlternateSubs2: "'aalt' Access All Alternates in Latin lookup 1 subtable" three.numr three.dnom three.sups three.subs three.pnum three.tnum
EndChar

StartChar: four
Encoding: 52 52 468
Width: 456
Flags: W
LayerCount: 2
Fore
SplineSet
276 0 m 1,0,-1
 248 0 l 1,1,-1
 287 194 l 1,2,-1
 8 194 l 1,3,-1
 10 210 l 1,4,-1
 384 640 l 1,5,-1
 404 640 l 1,6,-1
 320 220 l 1,7,-1
 412 220 l 1,8,-1
 406 194 l 1,9,-1
 315 194 l 1,10,-1
 276 0 l 1,0,-1
54 220 m 1,11,-1
 292 220 l 1,12,-1
 342 470 l 2,13,14
 347 493 347 493 354.5 523.5 c 128,-1,15
 362 554 362 554 370 586 c 1,16,-1
 366 586 l 1,17,18
 345 559 345 559 324.5 535 c 128,-1,19
 304 511 304 511 286 490 c 2,20,-1
 54 220 l 1,11,-1
EndSplineSet
Substitution2: "'onum' Oldstyle Figures in Latin lookup 16 subtable" four.tnum
Substitution2: "'pnum' Proportional Numbers in Latin lookup 15 subtable" four.pnum
Substitution2: "'subs' Subscript in Latin lookup 14 subtable" four.subs
Substitution2: "'sups' Superscript in Latin lookup 13 subtable" four.sups
Substitution2: "'dnom' Denominators in Latin lookup 9 subtable" four.dnom
Substitution2: "'numr' Numerators in Latin lookup 8 subtable" four.numr
AlternateSubs2: "'aalt' Access All Alternates in Latin lookup 1 subtable" four.numr four.dnom four.sups four.subs four.pnum four.tnum
EndChar

StartChar: five
Encoding: 53 53 469
Width: 456
Flags: W
LayerCount: 2
Fore
SplineSet
170 -12 m 0,0,1
 135 -12 135 -12 107 -2 c 128,-1,2
 79 8 79 8 58 23 c 128,-1,3
 37 38 37 38 22.5 56.5 c 128,-1,4
 8 75 8 75 -2 92 c 1,5,-1
 20 108 l 1,6,7
 30 92 30 92 42.5 75.5 c 128,-1,8
 55 59 55 59 73 45.5 c 128,-1,9
 91 32 91 32 116 23 c 128,-1,10
 141 14 141 14 176 14 c 0,11,12
 214 14 214 14 249 29.5 c 128,-1,13
 284 45 284 45 311 73 c 128,-1,14
 338 101 338 101 354 140 c 128,-1,15
 370 179 370 179 370 226 c 0,16,17
 370 301 370 301 332 337.5 c 128,-1,18
 294 374 294 374 232 374 c 0,19,20
 196 374 196 374 170 364.5 c 128,-1,21
 144 355 144 355 114 338 c 1,22,-1
 96 352 l 1,23,-1
 176 640 l 1,24,-1
 442 640 l 1,25,-1
 436 614 l 1,26,-1
 196 614 l 1,27,-1
 130 374 l 1,28,29
 150 385 150 385 175 392.5 c 128,-1,30
 200 400 200 400 232 400 c 0,31,32
 304 400 304 400 351 358 c 128,-1,33
 398 316 398 316 398 232 c 0,34,35
 398 176 398 176 379.5 131 c 128,-1,36
 361 86 361 86 329.5 54.5 c 128,-1,37
 298 23 298 23 257 5.5 c 128,-1,38
 216 -12 216 -12 170 -12 c 0,0,1
EndSplineSet
Substitution2: "'onum' Oldstyle Figures in Latin lookup 16 subtable" five.tnum
Substitution2: "'pnum' Proportional Numbers in Latin lookup 15 subtable" five.pnum
Substitution2: "'subs' Subscript in Latin lookup 14 subtable" five.subs
Substitution2: "'sups' Superscript in Latin lookup 13 subtable" five.sups
Substitution2: "'dnom' Denominators in Latin lookup 9 subtable" five.dnom
Substitution2: "'numr' Numerators in Latin lookup 8 subtable" five.numr
AlternateSubs2: "'aalt' Access All Alternates in Latin lookup 1 subtable" five.numr five.dnom five.sups five.subs five.pnum five.tnum
EndChar

StartChar: six
Encoding: 54 54 470
Width: 456
Flags: W
LayerCount: 2
Fore
SplineSet
212 -12 m 0,0,1
 174 -12 174 -12 144.5 3.5 c 128,-1,2
 115 19 115 19 94.5 47 c 128,-1,3
 74 75 74 75 63 113 c 128,-1,4
 52 151 52 151 52 196 c 0,5,6
 52 293 52 293 73.5 376.5 c 128,-1,7
 95 460 95 460 133 521.5 c 128,-1,8
 171 583 171 583 222.5 617.5 c 128,-1,9
 274 652 274 652 334 652 c 0,10,11
 379 652 379 652 408.5 631.5 c 128,-1,12
 438 611 438 611 458 576 c 1,13,-1
 434 560 l 1,14,15
 416 593 416 593 391.5 609.5 c 128,-1,16
 367 626 367 626 332 626 c 0,17,18
 287 626 287 626 247 600.5 c 128,-1,19
 207 575 207 575 174.5 531 c 128,-1,20
 142 487 142 487 119 426.5 c 128,-1,21
 96 366 96 366 86 296 c 1,22,23
 124 338 124 338 168 358 c 128,-1,24
 212 378 212 378 250 378 c 0,25,26
 287 378 287 378 315.5 365.5 c 128,-1,27
 344 353 344 353 363.5 331 c 128,-1,28
 383 309 383 309 393.5 278.5 c 128,-1,29
 404 248 404 248 404 212 c 0,30,31
 404 165 404 165 389 124 c 128,-1,32
 374 83 374 83 348 53 c 128,-1,33
 322 23 322 23 287 5.5 c 128,-1,34
 252 -12 252 -12 212 -12 c 0,0,1
214 14 m 0,35,36
 245 14 245 14 274.5 29.5 c 128,-1,37
 304 45 304 45 326.5 70.5 c 128,-1,38
 349 96 349 96 362.5 130 c 128,-1,39
 376 164 376 164 376 202 c 0,40,41
 376 270 376 270 343.5 310 c 128,-1,42
 311 350 311 350 248 350 c 0,43,44
 234 350 234 350 214.5 345.5 c 128,-1,45
 195 341 195 341 172.5 330.5 c 128,-1,46
 150 320 150 320 126.5 301.5 c 128,-1,47
 103 283 103 283 82 255 c 1,48,49
 81 242 81 242 80.5 229 c 128,-1,50
 80 216 80 216 80 202 c 0,51,52
 80 161 80 161 89 127 c 128,-1,53
 98 93 98 93 115.5 67.5 c 128,-1,54
 133 42 133 42 157.5 28 c 128,-1,55
 182 14 182 14 214 14 c 0,35,36
EndSplineSet
Substitution2: "'onum' Oldstyle Figures in Latin lookup 16 subtable" six.tnum
Substitution2: "'pnum' Proportional Numbers in Latin lookup 15 subtable" six.pnum
Substitution2: "'subs' Subscript in Latin lookup 14 subtable" six.subs
Substitution2: "'sups' Superscript in Latin lookup 13 subtable" six.sups
Substitution2: "'dnom' Denominators in Latin lookup 9 subtable" six.dnom
Substitution2: "'numr' Numerators in Latin lookup 8 subtable" six.numr
AlternateSubs2: "'aalt' Access All Alternates in Latin lookup 1 subtable" six.numr six.dnom six.sups six.subs six.pnum six.tnum
EndChar

StartChar: seven
Encoding: 55 55 471
Width: 456
Flags: W
LayerCount: 2
Fore
SplineSet
136 0 m 1,0,1
 157 95 157 95 183 177.5 c 128,-1,2
 209 260 209 260 245 334 c 128,-1,3
 281 408 281 408 331 477 c 128,-1,4
 381 546 381 546 450 614 c 1,5,-1
 114 614 l 1,6,-1
 120 640 l 1,7,-1
 492 640 l 1,8,-1
 488 620 l 1,9,10
 412 547 412 547 359.5 475.5 c 128,-1,11
 307 404 307 404 271 329 c 128,-1,12
 235 254 235 254 211 172.5 c 128,-1,13
 187 91 187 91 168 0 c 1,14,-1
 136 0 l 1,0,1
EndSplineSet
Substitution2: "'onum' Oldstyle Figures in Latin lookup 16 subtable" seven.tnum
Substitution2: "'pnum' Proportional Numbers in Latin lookup 15 subtable" seven.pnum
Substitution2: "'subs' Subscript in Latin lookup 14 subtable" seven.subs
Substitution2: "'sups' Superscript in Latin lookup 13 subtable" seven.sups
Substitution2: "'dnom' Denominators in Latin lookup 9 subtable" seven.dnom
Substitution2: "'numr' Numerators in Latin lookup 8 subtable" seven.numr
AlternateSubs2: "'aalt' Access All Alternates in Latin lookup 1 subtable" seven.numr seven.dnom seven.sups seven.subs seven.pnum seven.tnum
EndChar

StartChar: eight
Encoding: 56 56 472
Width: 456
Flags: W
LayerCount: 2
Fore
SplineSet
212 -12 m 0,0,1
 177 -12 177 -12 145 -1.5 c 128,-1,2
 113 9 113 9 88.5 30 c 128,-1,3
 64 51 64 51 49 82 c 128,-1,4
 34 113 34 113 34 154 c 0,5,6
 34 193 34 193 47.5 224.5 c 128,-1,7
 61 256 61 256 83 281 c 128,-1,8
 105 306 105 306 133.5 325 c 128,-1,9
 162 344 162 344 192 358 c 1,10,-1
 192 362 l 1,11,12
 163 389 163 389 148.5 417 c 128,-1,13
 134 445 134 445 134 486 c 0,14,15
 134 525 134 525 148 556 c 128,-1,16
 162 587 162 587 185.5 608 c 128,-1,17
 209 629 209 629 239.5 640.5 c 128,-1,18
 270 652 270 652 304 652 c 0,19,20
 333 652 333 652 359.5 642.5 c 128,-1,21
 386 633 386 633 406 615 c 128,-1,22
 426 597 426 597 438 569.5 c 128,-1,23
 450 542 450 542 450 506 c 0,24,25
 450 472 450 472 440 444.5 c 128,-1,26
 430 417 430 417 412.5 394.5 c 128,-1,27
 395 372 395 372 371.5 353 c 128,-1,28
 348 334 348 334 320 318 c 1,29,-1
 320 314 l 1,30,31
 332 306 332 306 348 292.5 c 128,-1,32
 364 279 364 279 378 261 c 128,-1,33
 392 243 392 243 402 220.5 c 128,-1,34
 412 198 412 198 412 172 c 0,35,36
 412 129 412 129 396 95 c 128,-1,37
 380 61 380 61 352.5 37 c 128,-1,38
 325 13 325 13 288.5 0.5 c 128,-1,39
 252 -12 252 -12 212 -12 c 0,0,1
296 330 m 1,40,41
 320 343 320 343 342.5 361 c 128,-1,42
 365 379 365 379 383 400.5 c 128,-1,43
 401 422 401 422 411.5 448 c 128,-1,44
 422 474 422 474 422 504 c 256,45,46
 422 534 422 534 412 557 c 128,-1,47
 402 580 402 580 385.5 595 c 128,-1,48
 369 610 369 610 347 618 c 128,-1,49
 325 626 325 626 302 626 c 0,50,51
 275 626 275 626 249.5 616.5 c 128,-1,52
 224 607 224 607 204.5 589 c 128,-1,53
 185 571 185 571 173.5 545.5 c 128,-1,54
 162 520 162 520 162 488 c 0,55,56
 162 457 162 457 171.5 434 c 128,-1,57
 181 411 181 411 198.5 392.5 c 128,-1,58
 216 374 216 374 240.5 359 c 128,-1,59
 265 344 265 344 296 330 c 1,40,41
212 14 m 0,60,61
 244 14 244 14 275 24 c 128,-1,62
 306 34 306 34 330 53.5 c 128,-1,63
 354 73 354 73 369 101.5 c 128,-1,64
 384 130 384 130 384 166 c 0,65,66
 384 200 384 200 369 226 c 128,-1,67
 354 252 354 252 330 272.5 c 128,-1,68
 306 293 306 293 275 310 c 128,-1,69
 244 327 244 327 212 344 c 1,70,71
 179 327 179 327 151.5 308 c 128,-1,72
 124 289 124 289 104 266.5 c 128,-1,73
 84 244 84 244 73 217 c 128,-1,74
 62 190 62 190 62 156 c 0,75,76
 62 121 62 121 74.5 94.5 c 128,-1,77
 87 68 87 68 108 50 c 128,-1,78
 129 32 129 32 156 23 c 128,-1,79
 183 14 183 14 212 14 c 0,60,61
EndSplineSet
Substitution2: "'onum' Oldstyle Figures in Latin lookup 16 subtable" eight.tnum
Substitution2: "'pnum' Proportional Numbers in Latin lookup 15 subtable" eight.pnum
Substitution2: "'subs' Subscript in Latin lookup 14 subtable" eight.subs
Substitution2: "'sups' Superscript in Latin lookup 13 subtable" eight.sups
Substitution2: "'dnom' Denominators in Latin lookup 9 subtable" eight.dnom
Substitution2: "'numr' Numerators in Latin lookup 8 subtable" eight.numr
AlternateSubs2: "'aalt' Access All Alternates in Latin lookup 1 subtable" eight.numr eight.dnom eight.sups eight.subs eight.pnum eight.tnum
EndChar

StartChar: nine
Encoding: 57 57 473
Width: 456
Flags: W
LayerCount: 2
Fore
SplineSet
234 290 m 0,0,1
 247 290 247 290 267 294.5 c 128,-1,2
 287 299 287 299 309.5 309.5 c 128,-1,3
 332 320 332 320 355.5 338.5 c 128,-1,4
 379 357 379 357 400 385 c 1,5,6
 401 398 401 398 401.5 411 c 128,-1,7
 402 424 402 424 402 438 c 0,8,9
 402 478 402 478 393 512.5 c 128,-1,10
 384 547 384 547 366.5 572.5 c 128,-1,11
 349 598 349 598 324 612 c 128,-1,12
 299 626 299 626 268 626 c 0,13,14
 236 626 236 626 207 610.5 c 128,-1,15
 178 595 178 595 155.5 569.5 c 128,-1,16
 133 544 133 544 119.5 509.5 c 128,-1,17
 106 475 106 475 106 438 c 0,18,19
 106 370 106 370 138.5 330 c 128,-1,20
 171 290 171 290 234 290 c 0,0,1
148 -12 m 0,21,22
 103 -12 103 -12 73.5 8.5 c 128,-1,23
 44 29 44 29 24 64 c 1,24,-1
 48 80 l 1,25,26
 66 47 66 47 90.5 30.5 c 128,-1,27
 115 14 115 14 150 14 c 0,28,29
 195 14 195 14 235 39.5 c 128,-1,30
 275 65 275 65 307.5 109 c 128,-1,31
 340 153 340 153 363 213.5 c 128,-1,32
 386 274 386 274 396 344 c 1,33,34
 358 302 358 302 314 282 c 128,-1,35
 270 262 270 262 232 262 c 0,36,37
 195 262 195 262 166.5 274.5 c 128,-1,38
 138 287 138 287 118.5 309 c 128,-1,39
 99 331 99 331 88.5 361.5 c 128,-1,40
 78 392 78 392 78 428 c 0,41,42
 78 475 78 475 93 516 c 128,-1,43
 108 557 108 557 134 587 c 128,-1,44
 160 617 160 617 195 634.5 c 128,-1,45
 230 652 230 652 270 652 c 0,46,47
 307 652 307 652 337 636.5 c 128,-1,48
 367 621 367 621 387.5 593 c 128,-1,49
 408 565 408 565 419 527 c 128,-1,50
 430 489 430 489 430 444 c 0,51,52
 430 346 430 346 408.5 263 c 128,-1,53
 387 180 387 180 349 118.5 c 128,-1,54
 311 57 311 57 259.5 22.5 c 128,-1,55
 208 -12 208 -12 148 -12 c 0,21,22
EndSplineSet
Substitution2: "'onum' Oldstyle Figures in Latin lookup 16 subtable" nine.tnum
Substitution2: "'pnum' Proportional Numbers in Latin lookup 15 subtable" nine.pnum
Substitution2: "'subs' Subscript in Latin lookup 14 subtable" nine.subs
Substitution2: "'sups' Superscript in Latin lookup 13 subtable" nine.sups
Substitution2: "'dnom' Denominators in Latin lookup 9 subtable" nine.dnom
Substitution2: "'numr' Numerators in Latin lookup 8 subtable" nine.numr
AlternateSubs2: "'aalt' Access All Alternates in Latin lookup 1 subtable" nine.numr nine.dnom nine.sups nine.subs nine.pnum nine.tnum
EndChar

StartChar: zero.pnum
Encoding: 65593 -1 474
Width: 474
Flags: W
LayerCount: 2
Fore
SplineSet
196 -12 m 0,0,1
 155 -12 155 -12 126.5 6.5 c 128,-1,2
 98 25 98 25 80 54.5 c 128,-1,3
 62 84 62 84 54 121 c 128,-1,4
 46 158 46 158 46 196 c 0,5,6
 46 247 46 247 54.5 300.5 c 128,-1,7
 63 354 63 354 79.5 405 c 128,-1,8
 96 456 96 456 119 500.5 c 128,-1,9
 142 545 142 545 171 579 c 128,-1,10
 200 613 200 613 234 632.5 c 128,-1,11
 268 652 268 652 306 652 c 0,12,13
 346 652 346 652 374.5 633 c 128,-1,14
 403 614 403 614 421 584 c 128,-1,15
 439 554 439 554 447.5 516.5 c 128,-1,16
 456 479 456 479 456 442 c 0,17,18
 456 391 456 391 447.5 337.5 c 128,-1,19
 439 284 439 284 422.5 233.5 c 128,-1,20
 406 183 406 183 383 138.5 c 128,-1,21
 360 94 360 94 331 60.5 c 128,-1,22
 302 27 302 27 268 7.5 c 128,-1,23
 234 -12 234 -12 196 -12 c 0,0,1
196 14 m 256,24,25
 229 14 229 14 259.5 33 c 128,-1,26
 290 52 290 52 315.5 84.5 c 128,-1,27
 341 117 341 117 362 159 c 128,-1,28
 383 201 383 201 397.5 248 c 128,-1,29
 412 295 412 295 420 343.5 c 128,-1,30
 428 392 428 392 428 436 c 0,31,32
 428 473 428 473 421 507 c 128,-1,33
 414 541 414 541 399 567.5 c 128,-1,34
 384 594 384 594 360.5 610 c 128,-1,35
 337 626 337 626 304 626 c 0,36,37
 270 626 270 626 240 606.5 c 128,-1,38
 210 587 210 587 184.5 554.5 c 128,-1,39
 159 522 159 522 138.5 479 c 128,-1,40
 118 436 118 436 103.5 389 c 128,-1,41
 89 342 89 342 81.5 293.5 c 128,-1,42
 74 245 74 245 74 202 c 0,43,44
 74 166 74 166 80.5 132 c 128,-1,45
 87 98 87 98 102 72 c 128,-1,46
 117 46 117 46 140 30 c 128,-1,47
 163 14 163 14 196 14 c 256,24,25
EndSplineSet
Substitution2: "'zero' Slashed Zero in Latin lookup 18 subtable" zero.0p
Substitution2: "'ss05' Style Set 5 in Latin lookup 17 subtable" zero.0ps
Substitution2: "'onum' Oldstyle Figures in Latin lookup 16 subtable" zero.onum
Substitution2: "'aalt' Access All Alternates in Latin lookup 0 subtable" zero.onum
EndChar

StartChar: one.pnum
Encoding: 65594 -1 475
Width: 310
Flags: W
LayerCount: 2
Fore
SplineSet
112 0 m 1,0,-1
 228 582 l 1,1,-1
 116 582 l 1,2,-1
 120 602 l 1,3,4
 156 607 156 607 188.5 616.5 c 128,-1,5
 221 626 221 626 244 640 c 1,6,-1
 268 640 l 1,7,-1
 140 0 l 1,8,-1
 112 0 l 1,0,-1
EndSplineSet
Substitution2: "'onum' Oldstyle Figures in Latin lookup 16 subtable" one.onum
Substitution2: "'aalt' Access All Alternates in Latin lookup 0 subtable" one.onum
EndChar

StartChar: two.pnum
Encoding: 65595 -1 476
Width: 448
Flags: W
LayerCount: 2
Fore
SplineSet
-8 0 m 1,0,-1
 -6 20 l 1,1,2
 102 115 102 115 177.5 183 c 128,-1,3
 253 251 253 251 301 305 c 128,-1,4
 349 359 349 359 370.5 404.5 c 128,-1,5
 392 450 392 450 392 500 c 0,6,7
 392 525 392 525 385 548 c 128,-1,8
 378 571 378 571 363.5 588.5 c 128,-1,9
 349 606 349 606 327 616 c 128,-1,10
 305 626 305 626 276 626 c 0,11,12
 240 626 240 626 201 608 c 128,-1,13
 162 590 162 590 124 552 c 1,14,-1
 106 574 l 1,15,16
 148 610 148 610 189 631 c 128,-1,17
 230 652 230 652 278 652 c 0,18,19
 312 652 312 652 338.5 640.5 c 128,-1,20
 365 629 365 629 383 609.5 c 128,-1,21
 401 590 401 590 410.5 563.5 c 128,-1,22
 420 537 420 537 420 506 c 0,23,24
 420 450 420 450 398 400.5 c 128,-1,25
 376 351 376 351 329.5 297 c 128,-1,26
 283 243 283 243 211.5 178 c 128,-1,27
 140 113 140 113 42 26 c 1,28,-1
 356 26 l 1,29,-1
 352 0 l 1,30,-1
 -8 0 l 1,0,-1
EndSplineSet
Substitution2: "'onum' Oldstyle Figures in Latin lookup 16 subtable" two.onum
Substitution2: "'aalt' Access All Alternates in Latin lookup 0 subtable" two.onum
EndChar

StartChar: seven.pnum
Encoding: 65600 -1 481
Width: 436
Flags: W
LayerCount: 2
Fore
SplineSet
120 0 m 1,0,1
 141 95 141 95 166.5 177.5 c 128,-1,2
 192 260 192 260 228 334 c 128,-1,3
 264 408 264 408 313 477 c 128,-1,4
 362 546 362 546 430 614 c 1,5,-1
 104 614 l 1,6,-1
 110 640 l 1,7,-1
 472 640 l 1,8,-1
 468 620 l 1,9,10
 394 547 394 547 342 475.5 c 128,-1,11
 290 404 290 404 254 329 c 128,-1,12
 218 254 218 254 194.5 172.5 c 128,-1,13
 171 91 171 91 152 0 c 1,14,-1
 120 0 l 1,0,1
EndSplineSet
Substitution2: "'onum' Oldstyle Figures in Latin lookup 16 subtable" seven.onum
Substitution2: "'aalt' Access All Alternates in Latin lookup 0 subtable" seven.onum
EndChar

StartChar: zero.tnum
Encoding: 65603 -1 484
Width: 456
Flags: W
LayerCount: 2
Fore
SplineSet
188 -12 m 0,0,1
 120 -12 120 -12 81 41.5 c 128,-1,2
 42 95 42 95 42 186 c 0,3,4
 42 254 42 254 60 324.5 c 128,-1,5
 78 395 78 395 109.5 452 c 128,-1,6
 141 509 141 509 185 545.5 c 128,-1,7
 229 582 229 582 281 582 c 0,8,9
 348 582 348 582 387 528 c 128,-1,10
 426 474 426 474 426 384 c 0,11,12
 426 316 426 316 408 245.5 c 128,-1,13
 390 175 390 175 358.5 118 c 128,-1,14
 327 61 327 61 283.5 24.5 c 128,-1,15
 240 -12 240 -12 188 -12 c 0,0,1
190 14 m 0,16,17
 234 14 234 14 272 48 c 128,-1,18
 310 82 310 82 338 135 c 128,-1,19
 366 188 366 188 382 252.5 c 128,-1,20
 398 317 398 317 398 378 c 0,21,22
 398 464 398 464 366.5 510 c 128,-1,23
 335 556 335 556 278 556 c 0,24,25
 234 556 234 556 196 522 c 128,-1,26
 158 488 158 488 130 435 c 128,-1,27
 102 382 102 382 86 317.5 c 128,-1,28
 70 253 70 253 70 192 c 0,29,30
 70 106 70 106 101.5 60 c 128,-1,31
 133 14 133 14 190 14 c 0,16,17
EndSplineSet
Substitution2: "'pnum' Proportional Numbers in Latin lookup 15 subtable" zero.onum
Substitution2: "'aalt' Access All Alternates in Latin lookup 0 subtable" zero.onum
EndChar

StartChar: one.tnum
Encoding: 65604 -1 485
Width: 456
Flags: W
LayerCount: 2
Fore
SplineSet
32 0 m 1,0,-1
 38 26 l 1,1,-1
 182 26 l 1,2,-1
 280 512 l 1,3,-1
 168 512 l 1,4,-1
 172 532 l 1,5,6
 208 537 208 537 240.5 546.5 c 128,-1,7
 273 556 273 556 296 570 c 1,8,-1
 320 570 l 1,9,-1
 210 26 l 1,10,-1
 350 26 l 1,11,-1
 346 0 l 1,12,-1
 32 0 l 1,0,-1
EndSplineSet
Substitution2: "'pnum' Proportional Numbers in Latin lookup 15 subtable" one.onum
Substitution2: "'aalt' Access All Alternates in Latin lookup 0 subtable" one.onum
EndChar

StartChar: two.tnum
Encoding: 65605 -1 486
Width: 456
Flags: W
LayerCount: 2
Fore
SplineSet
-8 0 m 1,0,-1
 -6 20 l 1,1,2
 99 102 99 102 173 160.5 c 128,-1,3
 247 219 247 219 294 264.5 c 128,-1,4
 341 310 341 310 362.5 348.5 c 128,-1,5
 384 387 384 387 384 430 c 0,6,7
 384 455 384 455 376.5 478 c 128,-1,8
 369 501 369 501 353.5 518.5 c 128,-1,9
 338 536 338 536 314 546 c 128,-1,10
 290 556 290 556 258 556 c 0,11,12
 222 556 222 556 183 538 c 128,-1,13
 144 520 144 520 106 482 c 1,14,-1
 88 504 l 1,15,16
 130 540 130 540 171 561 c 128,-1,17
 212 582 212 582 260 582 c 0,18,19
 297 582 297 582 325.5 570.5 c 128,-1,20
 354 559 354 559 373.5 539.5 c 128,-1,21
 393 520 393 520 402.5 493.5 c 128,-1,22
 412 467 412 467 412 436 c 0,23,24
 412 388 412 388 389.5 345.5 c 128,-1,25
 367 303 367 303 321.5 256.5 c 128,-1,26
 276 210 276 210 207 154.5 c 128,-1,27
 138 99 138 99 44 26 c 1,28,-1
 366 26 l 1,29,-1
 362 0 l 1,30,-1
 -8 0 l 1,0,-1
EndSplineSet
Substitution2: "'pnum' Proportional Numbers in Latin lookup 15 subtable" two.onum
Substitution2: "'aalt' Access All Alternates in Latin lookup 0 subtable" two.onum
EndChar

StartChar: three.tnum
Encoding: 65606 -1 487
Width: 456
Flags: W
LayerCount: 2
Fore
SplineSet
160 -82 m 0,0,1
 125 -82 125 -82 97 -71.5 c 128,-1,2
 69 -61 69 -61 47 -45.5 c 128,-1,3
 25 -30 25 -30 8.5 -11.5 c 128,-1,4
 -8 7 -8 7 -18 24 c 1,5,-1
 4 40 l 1,6,7
 15 23 15 23 30 6 c 128,-1,8
 45 -11 45 -11 64.5 -24.5 c 128,-1,9
 84 -38 84 -38 108.5 -47 c 128,-1,10
 133 -56 133 -56 164 -56 c 0,11,12
 205 -56 205 -56 240 -43 c 128,-1,13
 275 -30 275 -30 300.5 -7.5 c 128,-1,14
 326 15 326 15 340 46 c 128,-1,15
 354 77 354 77 354 112 c 0,16,17
 354 141 354 141 342 166.5 c 128,-1,18
 330 192 330 192 304.5 211 c 128,-1,19
 279 230 279 230 240 241 c 128,-1,20
 201 252 201 252 146 252 c 1,21,-1
 152 278 l 1,22,23
 219 278 219 278 264.5 293.5 c 128,-1,24
 310 309 310 309 338.5 332.5 c 128,-1,25
 367 356 367 356 379.5 383.5 c 128,-1,26
 392 411 392 411 392 436 c 0,27,28
 392 489 392 489 363.5 522.5 c 128,-1,29
 335 556 335 556 272 556 c 0,30,31
 255 556 255 556 235.5 551.5 c 128,-1,32
 216 547 216 547 196.5 539.5 c 128,-1,33
 177 532 177 532 159 520.5 c 128,-1,34
 141 509 141 509 128 496 c 1,35,-1
 110 518 l 1,36,37
 145 547 145 547 187.5 564.5 c 128,-1,38
 230 582 230 582 274 582 c 0,39,40
 349 582 349 582 384.5 543.5 c 128,-1,41
 420 505 420 505 420 442 c 0,42,43
 420 380 420 380 378 331 c 128,-1,44
 336 282 336 282 262 264 c 1,45,-1
 262 260 l 1,46,47
 315 245 315 245 348.5 208.5 c 128,-1,48
 382 172 382 172 382 118 c 0,49,50
 382 74 382 74 365.5 37 c 128,-1,51
 349 0 349 0 319.5 -26.5 c 128,-1,52
 290 -53 290 -53 249.5 -67.5 c 128,-1,53
 209 -82 209 -82 160 -82 c 0,0,1
EndSplineSet
Substitution2: "'pnum' Proportional Numbers in Latin lookup 15 subtable" three.onum
Substitution2: "'aalt' Access All Alternates in Latin lookup 0 subtable" three.onum
EndChar

StartChar: four.tnum
Encoding: 65607 -1 488
Width: 456
Flags: W
LayerCount: 2
Fore
SplineSet
244 -70 m 1,0,-1
 279 104 l 1,1,-1
 -14 104 l 1,2,-1
 -12 120 l 1,3,-1
 380 570 l 1,4,-1
 400 570 l 1,5,-1
 312 130 l 1,6,-1
 402 130 l 1,7,-1
 396 104 l 1,8,-1
 307 104 l 1,9,-1
 272 -70 l 1,10,-1
 244 -70 l 1,0,-1
32 130 m 1,11,-1
 284 130 l 1,12,-1
 338 400 l 2,13,14
 343 423 343 423 350.5 453.5 c 128,-1,15
 358 484 358 484 366 516 c 1,16,-1
 362 516 l 1,17,18
 341 489 341 489 320.5 465 c 128,-1,19
 300 441 300 441 282 420 c 2,20,-1
 32 130 l 1,11,-1
EndSplineSet
Substitution2: "'pnum' Proportional Numbers in Latin lookup 15 subtable" four.onum
Substitution2: "'aalt' Access All Alternates in Latin lookup 0 subtable" four.onum
EndChar

StartChar: five.tnum
Encoding: 65608 -1 489
Width: 456
Flags: W
LayerCount: 2
Fore
SplineSet
156 -84 m 0,0,1
 121 -84 121 -84 93 -74 c 128,-1,2
 65 -64 65 -64 44 -49 c 128,-1,3
 23 -34 23 -34 8.5 -15.5 c 128,-1,4
 -6 3 -6 3 -16 20 c 1,5,-1
 6 36 l 1,6,7
 16 20 16 20 28.5 3.5 c 128,-1,8
 41 -13 41 -13 59 -26.5 c 128,-1,9
 77 -40 77 -40 102 -49 c 128,-1,10
 127 -58 127 -58 162 -58 c 0,11,12
 200 -58 200 -58 235 -43 c 128,-1,13
 270 -28 270 -28 297 -0.5 c 128,-1,14
 324 27 324 27 340 66 c 128,-1,15
 356 105 356 105 356 152 c 0,16,17
 356 227 356 227 318 265.5 c 128,-1,18
 280 304 280 304 218 304 c 0,19,20
 182 304 182 304 156 294.5 c 128,-1,21
 130 285 130 285 100 268 c 1,22,-1
 82 282 l 1,23,-1
 162 570 l 1,24,-1
 428 570 l 1,25,-1
 422 544 l 1,26,-1
 182 544 l 1,27,-1
 116 304 l 1,28,29
 136 315 136 315 161 322.5 c 128,-1,30
 186 330 186 330 218 330 c 0,31,32
 290 330 290 330 337 286 c 128,-1,33
 384 242 384 242 384 158 c 0,34,35
 384 102 384 102 365.5 57.5 c 128,-1,36
 347 13 347 13 315.5 -18.5 c 128,-1,37
 284 -50 284 -50 243 -67 c 128,-1,38
 202 -84 202 -84 156 -84 c 0,0,1
EndSplineSet
Substitution2: "'pnum' Proportional Numbers in Latin lookup 15 subtable" five.onum
Substitution2: "'aalt' Access All Alternates in Latin lookup 0 subtable" five.onum
EndChar

StartChar: seven.tnum
Encoding: 65610 -1 491
Width: 456
Flags: W
LayerCount: 2
Fore
SplineSet
122 -70 m 1,0,1
 143 25 143 25 169 107.5 c 128,-1,2
 195 190 195 190 231 264 c 128,-1,3
 267 338 267 338 317 407 c 128,-1,4
 367 476 367 476 436 544 c 1,5,-1
 100 544 l 1,6,-1
 106 570 l 1,7,-1
 478 570 l 1,8,-1
 474 550 l 1,9,10
 398 477 398 477 345.5 405.5 c 128,-1,11
 293 334 293 334 257 259 c 128,-1,12
 221 184 221 184 197 102.5 c 128,-1,13
 173 21 173 21 154 -70 c 1,14,-1
 122 -70 l 1,0,1
EndSplineSet
Substitution2: "'pnum' Proportional Numbers in Latin lookup 15 subtable" seven.onum
Substitution2: "'aalt' Access All Alternates in Latin lookup 0 subtable" seven.onum
EndChar

StartChar: nine.tnum
Encoding: 65612 -1 493
Width: 456
Flags: W
LayerCount: 2
Fore
SplineSet
212 200 m 0,0,1
 226 200 226 200 245.5 204 c 128,-1,2
 265 208 265 208 287.5 218.5 c 128,-1,3
 310 229 310 229 334 247 c 128,-1,4
 358 265 358 265 382 293 c 1,5,6
 384 311 384 311 385 329.5 c 128,-1,7
 386 348 386 348 386 368 c 0,8,9
 386 408 386 408 377 442.5 c 128,-1,10
 368 477 368 477 350.5 502.5 c 128,-1,11
 333 528 333 528 308 542 c 128,-1,12
 283 556 283 556 252 556 c 0,13,14
 219 556 219 556 188 540 c 128,-1,15
 157 524 157 524 133 497 c 128,-1,16
 109 470 109 470 94.5 434 c 128,-1,17
 80 398 80 398 80 358 c 0,18,19
 80 286 80 286 114.5 243 c 128,-1,20
 149 200 149 200 212 200 c 0,0,1
132 -82 m 0,21,22
 87 -82 87 -82 57.5 -61.5 c 128,-1,23
 28 -41 28 -41 8 -6 c 1,24,-1
 32 10 l 1,25,26
 50 -23 50 -23 74.5 -39.5 c 128,-1,27
 99 -56 99 -56 134 -56 c 0,28,29
 177 -56 177 -56 216 -33 c 128,-1,30
 255 -10 255 -10 286.5 31.5 c 128,-1,31
 318 73 318 73 341.5 129 c 128,-1,32
 365 185 365 185 376 251 c 1,33,34
 337 210 337 210 292.5 191 c 128,-1,35
 248 172 248 172 210 172 c 0,36,37
 175 172 175 172 146 185 c 128,-1,38
 117 198 117 198 96 221 c 128,-1,39
 75 244 75 244 63.5 276.5 c 128,-1,40
 52 309 52 309 52 348 c 0,41,42
 52 397 52 397 68 440 c 128,-1,43
 84 483 84 483 111 514.5 c 128,-1,44
 138 546 138 546 175 564 c 128,-1,45
 212 582 212 582 254 582 c 0,46,47
 291 582 291 582 321 566.5 c 128,-1,48
 351 551 351 551 371.5 523 c 128,-1,49
 392 495 392 495 403 457 c 128,-1,50
 414 419 414 419 414 374 c 0,51,52
 414 276 414 276 392.5 193 c 128,-1,53
 371 110 371 110 333 48.5 c 128,-1,54
 295 -13 295 -13 243.5 -47.5 c 128,-1,55
 192 -82 192 -82 132 -82 c 0,21,22
EndSplineSet
Substitution2: "'pnum' Proportional Numbers in Latin lookup 15 subtable" nine.onum
Substitution2: "'aalt' Access All Alternates in Latin lookup 0 subtable" nine.onum
EndChar

StartChar: one.onum
Encoding: 65614 -1 495
Width: 316
Flags: W
LayerCount: 2
Fore
SplineSet
96 0 m 1,0,-1
 200 512 l 1,1,-1
 88 512 l 1,2,-1
 92 532 l 1,3,4
 128 537 128 537 160.5 546.5 c 128,-1,5
 193 556 193 556 216 570 c 1,6,-1
 240 570 l 1,7,-1
 124 0 l 1,8,-1
 96 0 l 1,0,-1
EndSplineSet
EndChar

StartChar: two.onum
Encoding: 65615 -1 496
Width: 448
Flags: W
LayerCount: 2
Fore
SplineSet
-8 0 m 1,0,-1
 -6 20 l 1,1,2
 96 102 96 102 168.5 160.5 c 128,-1,3
 241 219 241 219 286.5 264.5 c 128,-1,4
 332 310 332 310 353 348.5 c 128,-1,5
 374 387 374 387 374 430 c 0,6,7
 374 455 374 455 367 478 c 128,-1,8
 360 501 360 501 345.5 518.5 c 128,-1,9
 331 536 331 536 309 546 c 128,-1,10
 287 556 287 556 258 556 c 0,11,12
 222 556 222 556 183 538 c 128,-1,13
 144 520 144 520 106 482 c 1,14,-1
 88 504 l 1,15,16
 130 540 130 540 171 561 c 128,-1,17
 212 582 212 582 260 582 c 0,18,19
 294 582 294 582 320.5 570.5 c 128,-1,20
 347 559 347 559 365 539.5 c 128,-1,21
 383 520 383 520 392.5 493.5 c 128,-1,22
 402 467 402 467 402 436 c 0,23,24
 402 388 402 388 380 345.5 c 128,-1,25
 358 303 358 303 314 256.5 c 128,-1,26
 270 210 270 210 202.5 154.5 c 128,-1,27
 135 99 135 99 44 26 c 1,28,-1
 356 26 l 1,29,-1
 352 0 l 1,30,-1
 -8 0 l 1,0,-1
EndSplineSet
EndChar

StartChar: seven.onum
Encoding: 65620 -1 501
Width: 436
Flags: W
LayerCount: 2
Fore
SplineSet
98 -70 m 1,0,1
 119 25 119 25 144.5 107.5 c 128,-1,2
 170 190 170 190 206 264 c 128,-1,3
 242 338 242 338 291 407 c 128,-1,4
 340 476 340 476 408 544 c 1,5,-1
 82 544 l 1,6,-1
 88 570 l 1,7,-1
 450 570 l 1,8,-1
 446 550 l 1,9,10
 371 477 371 477 319.5 405.5 c 128,-1,11
 268 334 268 334 232 259 c 128,-1,12
 196 184 196 184 172.5 102.5 c 128,-1,13
 149 21 149 21 130 -70 c 1,14,-1
 98 -70 l 1,0,1
EndSplineSet
EndChar

StartChar: period
Encoding: 46 46 504
Width: 202
Flags: W
LayerCount: 2
Fore
SplineSet
50 -12 m 0,0,1
 36 -12 36 -12 29 -3 c 128,-1,2
 22 6 22 6 22 18 c 0,3,4
 22 35 22 35 34.5 49.5 c 128,-1,5
 47 64 47 64 64 64 c 0,6,7
 78 64 78 64 84 55 c 128,-1,8
 90 46 90 46 90 32 c 0,9,10
 90 15 90 15 78.5 1.5 c 128,-1,11
 67 -12 67 -12 50 -12 c 0,0,1
EndSplineSet
Substitution2: "'subs' Subscript in Latin lookup 14 subtable" period.subs
Substitution2: "'sups' Superscript in Latin lookup 13 subtable" period.sups
Substitution2: "'dnom' Denominators in Latin lookup 9 subtable" period.dnom
Substitution2: "'numr' Numerators in Latin lookup 8 subtable" period.numr
AlternateSubs2: "'aalt' Access All Alternates in Latin lookup 1 subtable" period.numr period.dnom period.sups period.subs
EndChar

StartChar: comma
Encoding: 44 44 505
Width: 202
Flags: W
LayerCount: 2
Fore
SplineSet
-26 -146 m 1,0,-1
 -34 -122 l 1,1,2
 5 -104 5 -104 31 -74 c 128,-1,3
 57 -44 57 -44 62 -8 c 1,4,-1
 56 -8 l 2,5,6
 42 -8 42 -8 34 0 c 128,-1,7
 26 8 26 8 26 22 c 0,8,9
 26 37 26 37 37 50.5 c 128,-1,10
 48 64 48 64 66 64 c 0,11,12
 82 64 82 64 90 52 c 128,-1,13
 98 40 98 40 98 22 c 0,14,15
 98 -6 98 -6 88.5 -31.5 c 128,-1,16
 79 -57 79 -57 62.5 -79 c 128,-1,17
 46 -101 46 -101 23 -118.5 c 128,-1,18
 0 -136 0 -136 -26 -146 c 1,0,-1
EndSplineSet
Substitution2: "'subs' Subscript in Latin lookup 14 subtable" comma.subs
Substitution2: "'sups' Superscript in Latin lookup 13 subtable" comma.sups
Substitution2: "'dnom' Denominators in Latin lookup 9 subtable" comma.dnom
Substitution2: "'numr' Numerators in Latin lookup 8 subtable" comma.numr
AlternateSubs2: "'aalt' Access All Alternates in Latin lookup 1 subtable" comma.numr comma.dnom comma.sups comma.subs
EndChar

StartChar: exclam
Encoding: 33 33 509
Width: 242
Flags: W
LayerCount: 2
Fore
SplineSet
92 172 m 1,0,-1
 176 608 l 1,1,-1
 188 672 l 1,2,-1
 216 672 l 1,3,-1
 204 608 l 1,4,-1
 116 172 l 1,5,-1
 92 172 l 1,0,-1
70 -12 m 0,6,7
 56 -12 56 -12 49 -3 c 128,-1,8
 42 6 42 6 42 18 c 0,9,10
 42 35 42 35 54.5 49.5 c 128,-1,11
 67 64 67 64 84 64 c 0,12,13
 98 64 98 64 104 55 c 128,-1,14
 110 46 110 46 110 32 c 0,15,16
 110 15 110 15 98.5 1.5 c 128,-1,17
 87 -12 87 -12 70 -12 c 0,6,7
EndSplineSet
EndChar

StartChar: exclamdown
Encoding: 161 161 510
Width: 242
Flags: W
LayerCount: 2
Fore
SplineSet
24 -194 m 1,0,-1
 36 -130 l 1,1,-1
 124 306 l 1,2,-1
 148 306 l 1,3,-1
 64 -130 l 1,4,-1
 52 -194 l 1,5,-1
 24 -194 l 1,0,-1
156 414 m 0,6,7
 142 414 142 414 136 423 c 128,-1,8
 130 432 130 432 130 446 c 0,9,10
 130 463 130 463 141.5 476.5 c 128,-1,11
 153 490 153 490 170 490 c 0,12,13
 184 490 184 490 191 481 c 128,-1,14
 198 472 198 472 198 460 c 0,15,16
 198 443 198 443 185.5 428.5 c 128,-1,17
 173 414 173 414 156 414 c 0,6,7
EndSplineSet
EndChar

StartChar: question
Encoding: 63 63 511
Width: 380
Flags: W
LayerCount: 2
Fore
SplineSet
144 176 m 1,0,1
 146 220 146 220 162 254.5 c 128,-1,2
 178 289 178 289 202 318 c 128,-1,3
 226 347 226 347 253.5 373 c 128,-1,4
 281 399 281 399 304 425.5 c 128,-1,5
 327 452 327 452 342.5 481.5 c 128,-1,6
 358 511 358 511 358 548 c 0,7,8
 358 599 358 599 331 627.5 c 128,-1,9
 304 656 304 656 256 656 c 0,10,11
 220 656 220 656 186 638.5 c 128,-1,12
 152 621 152 621 128 594 c 1,13,-1
 110 614 l 1,14,15
 134 641 134 641 173.5 661.5 c 128,-1,16
 213 682 213 682 258 682 c 0,17,18
 318 682 318 682 352 648 c 128,-1,19
 386 614 386 614 386 554 c 0,20,21
 386 512 386 512 370.5 479.5 c 128,-1,22
 355 447 355 447 331.5 418.5 c 128,-1,23
 308 390 308 390 281 363.5 c 128,-1,24
 254 337 254 337 230 308.5 c 128,-1,25
 206 280 206 280 189 247.5 c 128,-1,26
 172 215 172 215 170 174 c 1,27,-1
 144 176 l 1,0,1
126 -12 m 0,28,29
 112 -12 112 -12 105 -3 c 128,-1,30
 98 6 98 6 98 18 c 0,31,32
 98 35 98 35 110.5 49.5 c 128,-1,33
 123 64 123 64 140 64 c 0,34,35
 154 64 154 64 160 55 c 128,-1,36
 166 46 166 46 166 32 c 0,37,38
 166 15 166 15 154.5 1.5 c 128,-1,39
 143 -12 143 -12 126 -12 c 0,28,29
EndSplineSet
EndChar

StartChar: questiondown
Encoding: 191 191 512
Width: 380
Flags: W
LayerCount: 2
Fore
SplineSet
122 -202 m 0,0,1
 62 -202 62 -202 28 -168 c 128,-1,2
 -6 -134 -6 -134 -6 -74 c 0,3,4
 -6 -33 -6 -33 9.5 0 c 128,-1,5
 25 33 25 33 48.5 61.5 c 128,-1,6
 72 90 72 90 99 116.5 c 128,-1,7
 126 143 126 143 150 171.5 c 128,-1,8
 174 200 174 200 191 232.5 c 128,-1,9
 208 265 208 265 210 306 c 1,10,-1
 236 304 l 1,11,12
 235 260 235 260 218.5 225.5 c 128,-1,13
 202 191 202 191 178 162 c 128,-1,14
 154 133 154 133 126.5 107 c 128,-1,15
 99 81 99 81 76 54.5 c 128,-1,16
 53 28 53 28 37.5 -2 c 128,-1,17
 22 -32 22 -32 22 -68 c 0,18,19
 22 -119 22 -119 49 -147.5 c 128,-1,20
 76 -176 76 -176 124 -176 c 0,21,22
 160 -176 160 -176 194 -158.5 c 128,-1,23
 228 -141 228 -141 252 -114 c 1,24,-1
 270 -134 l 1,25,26
 246 -161 246 -161 206.5 -181.5 c 128,-1,27
 167 -202 167 -202 122 -202 c 0,0,1
240 416 m 0,28,29
 226 416 226 416 220 425 c 128,-1,30
 214 434 214 434 214 448 c 0,31,32
 214 465 214 465 225.5 478.5 c 128,-1,33
 237 492 237 492 254 492 c 0,34,35
 268 492 268 492 275 483 c 128,-1,36
 282 474 282 474 282 462 c 0,37,38
 282 445 282 445 269.5 430.5 c 128,-1,39
 257 416 257 416 240 416 c 0,28,29
EndSplineSet
EndChar

StartChar: quotesingle
Encoding: 39 39 513
Width: 202
Flags: W
LayerCount: 2
Fore
SplineSet
134 478 m 1,0,-1
 158 608 l 1,1,-1
 170 672 l 1,2,-1
 198 672 l 1,3,-1
 186 608 l 1,4,-1
 156 478 l 1,5,-1
 134 478 l 1,0,-1
EndSplineSet
EndChar

StartChar: quoteleft
Encoding: 8216 8216 515
Width: 202
Flags: W
LayerCount: 2
Fore
SplineSet
156 498 m 0,0,1
 141 498 141 498 130.5 509.5 c 128,-1,2
 120 521 120 521 120 542 c 0,3,4
 120 595 120 595 147.5 635.5 c 128,-1,5
 175 676 175 676 220 702 c 1,6,-1
 232 682 l 1,7,8
 193 658 193 658 172.5 627 c 128,-1,9
 152 596 152 596 152 564 c 1,10,-1
 156 564 l 2,11,12
 170 564 170 564 179 556.5 c 128,-1,13
 188 549 188 549 188 534 c 256,14,15
 188 519 188 519 179 508.5 c 128,-1,16
 170 498 170 498 156 498 c 0,0,1
EndSplineSet
EndChar

StartChar: quoteright
Encoding: 8217 8217 516
Width: 202
Flags: W
LayerCount: 2
Fore
SplineSet
126 498 m 1,0,-1
 114 518 l 1,1,2
 153 542 153 542 173.5 573 c 128,-1,3
 194 604 194 604 194 636 c 1,4,-1
 190 636 l 2,5,6
 176 636 176 636 167 643.5 c 128,-1,7
 158 651 158 651 158 666 c 256,8,9
 158 681 158 681 167 691.5 c 128,-1,10
 176 702 176 702 190 702 c 0,11,12
 205 702 205 702 215.5 690.5 c 128,-1,13
 226 679 226 679 226 658 c 0,14,15
 226 605 226 605 198.5 564.5 c 128,-1,16
 171 524 171 524 126 498 c 1,0,-1
EndSplineSet
EndChar

StartChar: guilsinglleft
Encoding: 8249 8249 521
Width: 236
Flags: W
LayerCount: 2
Fore
SplineSet
142 74 m 1,0,-1
 40 240 l 1,1,-1
 46 272 l 1,2,-1
 204 428 l 1,3,-1
 220 412 l 1,4,-1
 72 252 l 1,5,-1
 162 86 l 1,6,-1
 142 74 l 1,0,-1
EndSplineSet
EndChar

StartChar: guilsinglright
Encoding: 8250 8250 522
Width: 236
Flags: W
LayerCount: 2
Fore
SplineSet
36 74 m 1,0,-1
 20 90 l 1,1,-1
 168 250 l 1,2,-1
 78 416 l 1,3,-1
 98 428 l 1,4,-1
 200 262 l 1,5,-1
 194 230 l 1,6,-1
 36 74 l 1,0,-1
EndSplineSet
EndChar

StartChar: hyphen
Encoding: 45 45 525
Width: 282
Flags: W
LayerCount: 2
Fore
SplineSet
36 236 m 1,0,-1
 42 264 l 1,1,-1
 248 264 l 1,2,-1
 242 236 l 1,3,-1
 36 236 l 1,0,-1
EndSplineSet
EndChar

StartChar: endash
Encoding: 8211 8211 527
Width: 462
Flags: W
LayerCount: 2
Fore
SplineSet
36 238 m 1,0,-1
 42 264 l 1,1,-1
 426 264 l 1,2,-1
 418 238 l 1,3,-1
 36 238 l 1,0,-1
EndSplineSet
EndChar

StartChar: emdash
Encoding: 8212 8212 528
Width: 768
Flags: W
LayerCount: 2
Fore
SplineSet
36 238 m 1,0,-1
 42 264 l 1,1,-1
 732 264 l 1,2,-1
 726 238 l 1,3,-1
 36 238 l 1,0,-1
EndSplineSet
EndChar

StartChar: figuredash
Encoding: 8210 8210 529
Width: 456
Flags: W
LayerCount: 2
Fore
SplineSet
36 238 m 1,0,-1
 42 264 l 1,1,-1
 420 264 l 1,2,-1
 412 238 l 1,3,-1
 36 238 l 1,0,-1
EndSplineSet
EndChar

StartChar: bullet
Encoding: 8226 8226 532
Width: 266
Flags: W
LayerCount: 2
Fore
SplineSet
126 160 m 0,0,1
 90 160 90 160 66 185.5 c 128,-1,2
 42 211 42 211 42 252 c 0,3,4
 42 274 42 274 49.5 295 c 128,-1,5
 57 316 57 316 70.5 332.5 c 128,-1,6
 84 349 84 349 103.5 359.5 c 128,-1,7
 123 370 123 370 148 370 c 0,8,9
 183 370 183 370 206.5 344.5 c 128,-1,10
 230 319 230 319 230 278 c 0,11,12
 230 255 230 255 222.5 234 c 128,-1,13
 215 213 215 213 201.5 196.5 c 128,-1,14
 188 180 188 180 169 170 c 128,-1,15
 150 160 150 160 126 160 c 0,0,1
EndSplineSet
EndChar

StartChar: underscore
Encoding: 95 95 533
Width: 484
Flags: W
LayerCount: 2
Fore
SplineSet
-26 -112 m 1,0,-1
 -20 -84 l 1,1,-1
 438 -84 l 1,2,-1
 432 -112 l 1,3,-1
 -26 -112 l 1,0,-1
EndSplineSet
EndChar

StartChar: parenleft
Encoding: 40 40 534
Width: 260
Flags: W
LayerCount: 2
Fore
SplineSet
128 -174 m 1,0,1
 102 -109 102 -109 87 -29 c 128,-1,2
 72 51 72 51 72 134 c 0,3,4
 72 222 72 222 88 300 c 128,-1,5
 104 378 104 378 134 450.5 c 128,-1,6
 164 523 164 523 207 592 c 128,-1,7
 250 661 250 661 304 730 c 1,8,-1
 322 716 l 1,9,10
 215 586 215 586 157.5 441 c 128,-1,11
 100 296 100 296 100 128 c 0,12,13
 100 90 100 90 103 50.5 c 128,-1,14
 106 11 106 11 112 -27.5 c 128,-1,15
 118 -66 118 -66 127 -102 c 128,-1,16
 136 -138 136 -138 148 -168 c 1,17,-1
 128 -174 l 1,0,1
EndSplineSet
Substitution2: "'subs' Subscript in Latin lookup 14 subtable" parenleft.subs
Substitution2: "'sups' Superscript in Latin lookup 13 subtable" parenleft.sups
Substitution2: "'dnom' Denominators in Latin lookup 9 subtable" parenleft.dnom
Substitution2: "'numr' Numerators in Latin lookup 8 subtable" parenleft.numr
AlternateSubs2: "'aalt' Access All Alternates in Latin lookup 1 subtable" parenleft.numr parenleft.dnom parenleft.sups parenleft.subs
EndChar

StartChar: parenright
Encoding: 41 41 535
Width: 262
Flags: W
LayerCount: 2
Fore
SplineSet
-36 -174 m 1,0,-1
 -54 -160 l 1,1,2
 53 -30 53 -30 110.5 115 c 128,-1,3
 168 260 168 260 168 428 c 0,4,5
 168 465 168 465 165 505 c 128,-1,6
 162 545 162 545 156 583.5 c 128,-1,7
 150 622 150 622 141 658 c 128,-1,8
 132 694 132 694 120 724 c 1,9,-1
 140 730 l 1,10,11
 166 665 166 665 181 585 c 128,-1,12
 196 505 196 505 196 422 c 0,13,14
 196 334 196 334 180 256 c 128,-1,15
 164 178 164 178 134 105.5 c 128,-1,16
 104 33 104 33 61 -36 c 128,-1,17
 18 -105 18 -105 -36 -174 c 1,0,-1
EndSplineSet
Substitution2: "'subs' Subscript in Latin lookup 14 subtable" parenright.subs
Substitution2: "'sups' Superscript in Latin lookup 13 subtable" parenright.sups
Substitution2: "'dnom' Denominators in Latin lookup 9 subtable" parenright.dnom
Substitution2: "'numr' Numerators in Latin lookup 8 subtable" parenright.numr
AlternateSubs2: "'aalt' Access All Alternates in Latin lookup 1 subtable" parenright.numr parenright.dnom parenright.sups parenright.subs
EndChar

StartChar: bracketleft
Encoding: 91 91 536
Width: 262
Flags: W
LayerCount: 2
Fore
SplineSet
18 -152 m 1,0,-1
 190 708 l 1,1,-1
 334 708 l 1,2,-1
 332 686 l 1,3,-1
 208 686 l 1,4,-1
 46 -130 l 1,5,-1
 168 -130 l 1,6,-1
 162 -152 l 1,7,-1
 18 -152 l 1,0,-1
EndSplineSet
EndChar

StartChar: bracketright
Encoding: 93 93 537
Width: 262
Flags: W
LayerCount: 2
Fore
SplineSet
-64 -152 m 1,0,-1
 -60 -130 l 1,1,-1
 62 -130 l 1,2,-1
 228 686 l 1,3,-1
 104 686 l 1,4,-1
 108 708 l 1,5,-1
 254 708 l 1,6,-1
 82 -152 l 1,7,-1
 -64 -152 l 1,0,-1
EndSplineSet
EndChar

StartChar: braceleft
Encoding: 123 123 538
Width: 260
Flags: W
LayerCount: 2
Fore
SplineSet
130 -152 m 2,0,1
 88 -152 88 -152 68 -135.5 c 128,-1,2
 48 -119 48 -119 48 -78 c 0,3,4
 48 -52 48 -52 57 -12.5 c 128,-1,5
 66 27 66 27 77 68.5 c 128,-1,6
 88 110 88 110 97 148.5 c 128,-1,7
 106 187 106 187 106 212 c 0,8,9
 106 222 106 222 103.5 231.5 c 128,-1,10
 101 241 101 241 93.5 248.5 c 128,-1,11
 86 256 86 256 72 261 c 128,-1,12
 58 266 58 266 36 266 c 1,13,-1
 42 290 l 1,14,15
 68 290 68 290 85.5 297 c 128,-1,16
 103 304 103 304 114 316 c 128,-1,17
 125 328 125 328 131 342.5 c 128,-1,18
 137 357 137 357 140 372 c 0,19,20
 149 420 149 420 157 474.5 c 128,-1,21
 165 529 165 529 176 580 c 0,22,23
 183 617 183 617 193.5 642 c 128,-1,24
 204 667 204 667 218.5 681.5 c 128,-1,25
 233 696 233 696 253 702 c 128,-1,26
 273 708 273 708 300 708 c 2,27,-1
 332 708 l 1,28,-1
 328 686 l 1,29,-1
 296 686 l 2,30,31
 249 686 249 686 229 658 c 128,-1,32
 209 630 209 630 198 576 c 0,33,34
 189 531 189 531 182 480.5 c 128,-1,35
 175 430 175 430 166 382 c 0,36,37
 157 340 157 340 141.5 313.5 c 128,-1,38
 126 287 126 287 94 278 c 1,39,-1
 94 274 l 1,40,41
 115 265 115 265 121.5 250 c 128,-1,42
 128 235 128 235 128 220 c 0,43,44
 128 193 128 193 119 153.5 c 128,-1,45
 110 114 110 114 99.5 72.5 c 128,-1,46
 89 31 89 31 80.5 -8 c 128,-1,47
 72 -47 72 -47 72 -72 c 0,48,49
 72 -101 72 -101 85 -115.5 c 128,-1,50
 98 -130 98 -130 136 -130 c 2,51,-1
 166 -130 l 1,52,-1
 160 -152 l 1,53,-1
 130 -152 l 2,0,1
EndSplineSet
EndChar

StartChar: braceright
Encoding: 125 125 539
Width: 262
Flags: W
LayerCount: 2
Fore
SplineSet
-64 -152 m 1,0,-1
 -60 -130 l 1,1,-1
 -28 -130 l 2,2,3
 19 -130 19 -130 39 -103 c 128,-1,4
 59 -76 59 -76 70 -22 c 0,5,6
 79 23 79 23 86 73.5 c 128,-1,7
 93 124 93 124 102 172 c 0,8,9
 111 216 111 216 126.5 242.5 c 128,-1,10
 142 269 142 269 174 278 c 1,11,-1
 174 282 l 1,12,13
 151 291 151 291 145.5 306 c 128,-1,14
 140 321 140 321 140 336 c 0,15,16
 140 362 140 362 148.5 401 c 128,-1,17
 157 440 157 440 167.5 481.5 c 128,-1,18
 178 523 178 523 187 561.5 c 128,-1,19
 196 600 196 600 196 626 c 0,20,21
 196 656 196 656 183 671 c 128,-1,22
 170 686 170 686 132 686 c 2,23,-1
 102 686 l 1,24,-1
 108 708 l 1,25,-1
 138 708 l 2,26,27
 180 708 180 708 200 690.5 c 128,-1,28
 220 673 220 673 220 634 c 0,29,30
 220 608 220 608 211 568 c 128,-1,31
 202 528 202 528 191 486 c 128,-1,32
 180 444 180 444 171 405.5 c 128,-1,33
 162 367 162 367 162 342 c 0,34,35
 162 333 162 333 164.5 323.5 c 128,-1,36
 167 314 167 314 174.5 306.5 c 128,-1,37
 182 299 182 299 195.5 294.5 c 128,-1,38
 209 290 209 290 232 290 c 1,39,-1
 226 266 l 1,40,41
 200 266 200 266 182.5 259 c 128,-1,42
 165 252 165 252 154 240 c 128,-1,43
 143 228 143 228 137 213.5 c 128,-1,44
 131 199 131 199 128 184 c 0,45,46
 119 136 119 136 111 80.5 c 128,-1,47
 103 25 103 25 92 -26 c 0,48,49
 84 -64 84 -64 74 -88 c 128,-1,50
 64 -112 64 -112 49 -126.5 c 128,-1,51
 34 -141 34 -141 14 -146.5 c 128,-1,52
 -6 -152 -6 -152 -32 -152 c 2,53,-1
 -64 -152 l 1,0,-1
EndSplineSet
EndChar

StartChar: slash
Encoding: 47 47 540
Width: 350
Flags: W
LayerCount: 2
Fore
SplineSet
-74 -160 m 1,0,-1
 410 710 l 1,1,-1
 438 710 l 1,2,-1
 -46 -160 l 1,3,-1
 -74 -160 l 1,0,-1
EndSplineSet
Substitution2: "'frac' Diagonal Fractions in Latin lookup 10 subtable" slash.frac
EndChar

StartChar: bar
Encoding: 124 124 541
Width: 212
Flags: W
LayerCount: 2
Fore
SplineSet
100 -250 m 1,0,-1
 100 750 l 1,1,-1
 126 750 l 1,2,-1
 126 -250 l 1,3,-1
 100 -250 l 1,0,-1
EndSplineSet
EndChar

StartChar: backslash
Encoding: 92 92 542
Width: 350
Flags: W
LayerCount: 2
Fore
SplineSet
238 -160 m 1,0,-1
 90 710 l 1,1,-1
 114 710 l 1,2,-1
 262 -160 l 1,3,-1
 238 -160 l 1,0,-1
EndSplineSet
EndChar

StartChar: brokenbar
Encoding: 166 166 543
Width: 212
Flags: W
LayerCount: 2
Fore
SplineSet
100 274 m 1,0,-1
 100 750 l 1,1,-1
 126 750 l 1,2,-1
 126 274 l 1,3,-1
 100 274 l 1,0,-1
100 -250 m 1,4,-1
 100 220 l 1,5,-1
 126 220 l 1,6,-1
 126 -250 l 1,7,-1
 100 -250 l 1,4,-1
EndSplineSet
EndChar

StartChar: asterisk
Encoding: 42 42 544
Width: 374
Flags: W
LayerCount: 2
Fore
SplineSet
178 488 m 1,0,-1
 162 502 l 1,1,-1
 226 582 l 1,2,-1
 144 626 l 1,3,-1
 152 646 l 1,4,-1
 244 614 l 1,5,-1
 264 712 l 1,6,-1
 286 710 l 1,7,-1
 278 612 l 1,8,-1
 372 626 l 1,9,-1
 376 604 l 1,10,-1
 280 578 l 1,11,-1
 318 488 l 1,12,-1
 298 476 l 1,13,-1
 252 560 l 1,14,-1
 178 488 l 1,0,-1
EndSplineSet
EndChar

StartChar: dagger
Encoding: 8224 8224 545
Width: 392
Flags: W
LayerCount: 2
Fore
SplineSet
114 -80 m 1,0,-1
 240 536 l 1,1,-1
 116 534 l 1,2,-1
 122 564 l 1,3,-1
 244 562 l 1,4,-1
 272 712 l 1,5,-1
 302 712 l 1,6,-1
 272 562 l 1,7,-1
 394 564 l 1,8,-1
 388 534 l 1,9,-1
 266 536 l 1,10,-1
 144 -80 l 1,11,-1
 114 -80 l 1,0,-1
EndSplineSet
EndChar

StartChar: daggerdbl
Encoding: 8225 8225 546
Width: 392
Flags: W
LayerCount: 2
Fore
SplineSet
116 -80 m 1,0,-1
 146 70 l 1,1,-1
 24 68 l 1,2,-1
 30 98 l 1,3,-1
 152 96 l 1,4,-1
 194 316 l 1,5,-1
 240 536 l 1,6,-1
 116 534 l 1,7,-1
 122 564 l 1,8,-1
 244 562 l 1,9,-1
 272 712 l 1,10,-1
 302 712 l 1,11,-1
 272 562 l 1,12,-1
 394 564 l 1,13,-1
 388 534 l 1,14,-1
 266 536 l 1,15,-1
 224 316 l 1,16,-1
 178 96 l 1,17,-1
 302 98 l 1,18,-1
 296 68 l 1,19,-1
 174 70 l 1,20,-1
 146 -80 l 1,21,-1
 116 -80 l 1,0,-1
EndSplineSet
EndChar

StartChar: section
Encoding: 167 167 547
Width: 454
Flags: W
LayerCount: 2
Fore
SplineSet
90 352 m 0,0,1
 90 314 90 314 111.5 290 c 128,-1,2
 133 266 133 266 163.5 247.5 c 128,-1,3
 194 229 194 229 227.5 211.5 c 128,-1,4
 261 194 261 194 284 170 c 1,5,6
 308 179 308 179 326 188.5 c 128,-1,7
 344 198 344 198 356 211.5 c 128,-1,8
 368 225 368 225 374 243 c 128,-1,9
 380 261 380 261 380 286 c 0,10,11
 380 325 380 325 359 350.5 c 128,-1,12
 338 376 338 376 308.5 396.5 c 128,-1,13
 279 417 279 417 246.5 435 c 128,-1,14
 214 453 214 453 191 476 c 1,15,16
 144 458 144 458 117 428.5 c 128,-1,17
 90 399 90 399 90 352 c 0,0,1
174 -44 m 0,18,19
 132 -44 132 -44 95 -26 c 128,-1,20
 58 -8 58 -8 26 24 c 1,21,-1
 46 46 l 1,22,23
 73 16 73 16 106.5 -1 c 128,-1,24
 140 -18 140 -18 176 -18 c 0,25,26
 198 -18 198 -18 218.5 -10 c 128,-1,27
 239 -2 239 -2 254.5 11.5 c 128,-1,28
 270 25 270 25 279 44 c 128,-1,29
 288 63 288 63 288 86 c 0,30,31
 288 118 288 118 271.5 140 c 128,-1,32
 255 162 255 162 229.5 178.5 c 128,-1,33
 204 195 204 195 175 210 c 128,-1,34
 146 225 146 225 120.5 243 c 128,-1,35
 95 261 95 261 78.5 285 c 128,-1,36
 62 309 62 309 62 346 c 0,37,38
 62 403 62 403 93.5 439 c 128,-1,39
 125 475 125 475 175 495 c 1,40,41
 167 507 167 507 162.5 521 c 128,-1,42
 158 535 158 535 158 552 c 0,43,44
 158 582 158 582 168 605.5 c 128,-1,45
 178 629 178 629 196 645.5 c 128,-1,46
 214 662 214 662 237.5 671 c 128,-1,47
 261 680 261 680 288 680 c 0,48,49
 330 680 330 680 364 659.5 c 128,-1,50
 398 639 398 639 424 612 c 1,51,-1
 402 592 l 1,52,53
 379 619 379 619 350 636.5 c 128,-1,54
 321 654 321 654 286 654 c 0,55,56
 267 654 267 654 249 647.5 c 128,-1,57
 231 641 231 641 217 628.5 c 128,-1,58
 203 616 203 616 194.5 598 c 128,-1,59
 186 580 186 580 186 558 c 0,60,61
 186 528 186 528 202.5 507.5 c 128,-1,62
 219 487 219 487 243.5 469.5 c 128,-1,63
 268 452 268 452 297 436 c 128,-1,64
 326 420 326 420 350.5 400.5 c 128,-1,65
 375 381 375 381 391.5 355 c 128,-1,66
 408 329 408 329 408 292 c 0,67,68
 408 262 408 262 401 240.5 c 128,-1,69
 394 219 394 219 380 202.5 c 128,-1,70
 366 186 366 186 345.5 173.5 c 128,-1,71
 325 161 325 161 299 151 c 1,72,73
 316 126 316 126 316 92 c 0,74,75
 316 64 316 64 305 39.5 c 128,-1,76
 294 15 294 15 275 -3.5 c 128,-1,77
 256 -22 256 -22 230 -33 c 128,-1,78
 204 -44 204 -44 174 -44 c 0,18,19
EndSplineSet
EndChar

StartChar: paragraph
Encoding: 182 182 548
Width: 476
Flags: W
LayerCount: 2
Fore
SplineSet
288 -80 m 1,0,-1
 436 660 l 1,1,-1
 464 660 l 1,2,-1
 316 -80 l 1,3,-1
 288 -80 l 1,0,-1
300 248 m 2,4,5
 254 248 254 248 213.5 259 c 128,-1,6
 173 270 173 270 142.5 291 c 128,-1,7
 112 312 112 312 94 344 c 128,-1,8
 76 376 76 376 76 418 c 0,9,10
 76 478 76 478 98 523.5 c 128,-1,11
 120 569 120 569 156 599 c 128,-1,12
 192 629 192 629 238.5 644.5 c 128,-1,13
 285 660 285 660 334 660 c 2,14,-1
 386 660 l 1,15,-1
 302 248 l 1,16,-1
 300 248 l 2,4,5
EndSplineSet
EndChar

StartChar: copyright
Encoding: 169 169 549
Width: 660
Flags: W
LayerCount: 2
Fore
SplineSet
298 -12 m 0,0,1
 240 -12 240 -12 192.5 8 c 128,-1,2
 145 28 145 28 111 64.5 c 128,-1,3
 77 101 77 101 58.5 151.5 c 128,-1,4
 40 202 40 202 40 264 c 0,5,6
 40 334 40 334 65 403 c 128,-1,7
 90 472 90 472 136 527.5 c 128,-1,8
 182 583 182 583 247.5 617.5 c 128,-1,9
 313 652 313 652 394 652 c 0,10,11
 452 652 452 652 499.5 632 c 128,-1,12
 547 612 547 612 581 575.5 c 128,-1,13
 615 539 615 539 633.5 488 c 128,-1,14
 652 437 652 437 652 376 c 0,15,16
 652 306 652 306 627 237 c 128,-1,17
 602 168 602 168 556 112.5 c 128,-1,18
 510 57 510 57 444.5 22.5 c 128,-1,19
 379 -12 379 -12 298 -12 c 0,0,1
300 12 m 0,20,21
 374 12 374 12 434.5 45 c 128,-1,22
 495 78 495 78 537.5 130 c 128,-1,23
 580 182 580 182 603 246 c 128,-1,24
 626 310 626 310 626 372 c 0,25,26
 626 430 626 430 609.5 477.5 c 128,-1,27
 593 525 593 525 562.5 558.5 c 128,-1,28
 532 592 532 592 488.5 610 c 128,-1,29
 445 628 445 628 392 628 c 0,30,31
 318 628 318 628 257.5 595 c 128,-1,32
 197 562 197 562 154.5 510 c 128,-1,33
 112 458 112 458 89 394 c 128,-1,34
 66 330 66 330 66 268 c 0,35,36
 66 209 66 209 82.5 162 c 128,-1,37
 99 115 99 115 129.5 81.5 c 128,-1,38
 160 48 160 48 203.5 30 c 128,-1,39
 247 12 247 12 300 12 c 0,20,21
322 124 m 0,40,41
 262 124 262 124 223 160.5 c 128,-1,42
 184 197 184 197 184 272 c 0,43,44
 184 327 184 327 202.5 371.5 c 128,-1,45
 221 416 221 416 249.5 446.5 c 128,-1,46
 278 477 278 477 313 493.5 c 128,-1,47
 348 510 348 510 382 510 c 0,48,49
 418 510 418 510 438.5 496.5 c 128,-1,50
 459 483 459 483 476 460 c 1,51,-1
 456 442 l 1,52,53
 441 462 441 462 424 473 c 128,-1,54
 407 484 407 484 380 484 c 0,55,56
 351 484 351 484 321.5 468.5 c 128,-1,57
 292 453 292 453 267.5 426 c 128,-1,58
 243 399 243 399 227.5 361 c 128,-1,59
 212 323 212 323 212 278 c 0,60,61
 212 213 212 213 242.5 181.5 c 128,-1,62
 273 150 273 150 324 150 c 0,63,64
 359 150 359 150 387 165 c 128,-1,65
 415 180 415 180 442 198 c 1,66,-1
 456 176 l 1,67,68
 426 155 426 155 396 139.5 c 128,-1,69
 366 124 366 124 322 124 c 0,40,41
EndSplineSet
EndChar

StartChar: uni2117
Encoding: 8471 8471 550
Width: 660
Flags: W
LayerCount: 2
Fore
SplineSet
298 -12 m 0,0,1
 240 -12 240 -12 192.5 8 c 128,-1,2
 145 28 145 28 111 64.5 c 128,-1,3
 77 101 77 101 58.5 151.5 c 128,-1,4
 40 202 40 202 40 264 c 0,5,6
 40 334 40 334 65 403 c 128,-1,7
 90 472 90 472 136 527.5 c 128,-1,8
 182 583 182 583 247.5 617.5 c 128,-1,9
 313 652 313 652 394 652 c 0,10,11
 452 652 452 652 499.5 632 c 128,-1,12
 547 612 547 612 581 575.5 c 128,-1,13
 615 539 615 539 633.5 488 c 128,-1,14
 652 437 652 437 652 376 c 0,15,16
 652 306 652 306 627 237 c 128,-1,17
 602 168 602 168 556 112.5 c 128,-1,18
 510 57 510 57 444.5 22.5 c 128,-1,19
 379 -12 379 -12 298 -12 c 0,0,1
300 12 m 0,20,21
 374 12 374 12 434.5 45 c 128,-1,22
 495 78 495 78 537.5 130 c 128,-1,23
 580 182 580 182 603 246 c 128,-1,24
 626 310 626 310 626 372 c 0,25,26
 626 430 626 430 609.5 477.5 c 128,-1,27
 593 525 593 525 562.5 558.5 c 128,-1,28
 532 592 532 592 488.5 610 c 128,-1,29
 445 628 445 628 392 628 c 0,30,31
 318 628 318 628 257.5 595 c 128,-1,32
 197 562 197 562 154.5 510 c 128,-1,33
 112 458 112 458 89 394 c 128,-1,34
 66 330 66 330 66 268 c 0,35,36
 66 209 66 209 82.5 162 c 128,-1,37
 99 115 99 115 129.5 81.5 c 128,-1,38
 160 48 160 48 203.5 30 c 128,-1,39
 247 12 247 12 300 12 c 0,20,21
208 136 m 1,40,-1
 280 498 l 1,41,-1
 394 498 l 2,42,43
 442 498 442 498 473 473 c 128,-1,44
 504 448 504 448 504 406 c 0,45,46
 504 372 504 372 491.5 346.5 c 128,-1,47
 479 321 479 321 457.5 303.5 c 128,-1,48
 436 286 436 286 407.5 277 c 128,-1,49
 379 268 379 268 348 268 c 2,50,-1
 262 268 l 1,51,-1
 236 136 l 1,52,-1
 208 136 l 1,40,-1
268 294 m 1,53,-1
 348 294 l 2,54,55
 405 294 405 294 440.5 322 c 128,-1,56
 476 350 476 350 476 400 c 0,57,58
 476 433 476 433 453 452.5 c 128,-1,59
 430 472 430 472 386 472 c 2,60,-1
 302 472 l 1,61,-1
 268 294 l 1,53,-1
EndSplineSet
EndChar

StartChar: registered
Encoding: 174 174 551
Width: 376
Flags: W
LayerCount: 2
Fore
SplineSet
220 332 m 0,0,1
 188 332 188 332 160 343.5 c 128,-1,2
 132 355 132 355 111 376 c 128,-1,3
 90 397 90 397 78 427 c 128,-1,4
 66 457 66 457 66 494 c 0,5,6
 66 535 66 535 81 573 c 128,-1,7
 96 611 96 611 121.5 640.5 c 128,-1,8
 147 670 147 670 182 688 c 128,-1,9
 217 706 217 706 258 706 c 0,10,11
 289 706 289 706 317 694 c 128,-1,12
 345 682 345 682 366 661 c 128,-1,13
 387 640 387 640 399.5 610 c 128,-1,14
 412 580 412 580 412 544 c 0,15,16
 412 502 412 502 397 464 c 128,-1,17
 382 426 382 426 356 396.5 c 128,-1,18
 330 367 330 367 295 349.5 c 128,-1,19
 260 332 260 332 220 332 c 0,0,1
222 356 m 0,20,21
 255 356 255 356 284.5 370.5 c 128,-1,22
 314 385 314 385 336.5 410.5 c 128,-1,23
 359 436 359 436 372.5 469 c 128,-1,24
 386 502 386 502 386 540 c 0,25,26
 386 571 386 571 377 597 c 128,-1,27
 368 623 368 623 351 642 c 128,-1,28
 334 661 334 661 310 671.5 c 128,-1,29
 286 682 286 682 256 682 c 0,30,31
 222 682 222 682 192.5 667 c 128,-1,32
 163 652 163 652 140.5 626.5 c 128,-1,33
 118 601 118 601 105 568 c 128,-1,34
 92 535 92 535 92 498 c 0,35,36
 92 436 92 436 126 396 c 128,-1,37
 160 356 160 356 222 356 c 0,20,21
162 418 m 1,38,-1
 204 624 l 1,39,-1
 258 624 l 2,40,41
 287 624 287 624 302.5 609.5 c 128,-1,42
 318 595 318 595 318 566 c 0,43,44
 318 542 318 542 303.5 525 c 128,-1,45
 289 508 289 508 268 500 c 1,46,-1
 298 418 l 1,47,-1
 270 418 l 1,48,-1
 244 494 l 1,49,-1
 204 494 l 1,50,-1
 188 418 l 1,51,-1
 162 418 l 1,38,-1
210 518 m 1,52,-1
 236 518 l 2,53,54
 262 518 262 518 277 529.5 c 128,-1,55
 292 541 292 541 292 564 c 0,56,57
 292 581 292 581 283 590.5 c 128,-1,58
 274 600 274 600 254 600 c 2,59,-1
 224 600 l 1,60,-1
 210 518 l 1,52,-1
EndSplineSet
EndChar

StartChar: trademark
Encoding: 8482 8482 552
Width: 578
Flags: W
LayerCount: 2
Fore
SplineSet
132 370 m 1,0,-1
 188 650 l 1,1,-1
 80 650 l 1,2,-1
 86 676 l 1,3,-1
 328 676 l 1,4,-1
 322 650 l 1,5,-1
 216 650 l 1,6,-1
 160 370 l 1,7,-1
 132 370 l 1,0,-1
316 370 m 1,8,-1
 378 676 l 1,9,-1
 420 676 l 1,10,-1
 444 544 l 1,11,-1
 458 456 l 1,12,-1
 462 456 l 1,13,-1
 510 544 l 1,14,-1
 590 676 l 1,15,-1
 632 676 l 1,16,-1
 570 370 l 1,17,-1
 542 370 l 1,18,-1
 576 540 l 1,19,-1
 600 642 l 1,20,-1
 596 642 l 1,21,-1
 466 418 l 1,22,-1
 440 418 l 1,23,-1
 398 642 l 1,24,-1
 394 642 l 1,25,-1
 378 540 l 1,26,-1
 344 370 l 1,27,-1
 316 370 l 1,8,-1
EndSplineSet
EndChar

StartChar: uni2120
Encoding: 8480 8480 553
Width: 568
Flags: W
LayerCount: 2
Fore
SplineSet
146 358 m 0,0,1
 111 358 111 358 86.5 373.5 c 128,-1,2
 62 389 62 389 50 410 c 1,3,-1
 72 428 l 1,4,5
 84 408 84 408 103 396 c 128,-1,6
 122 384 122 384 148 384 c 0,7,8
 178 384 178 384 202 402.5 c 128,-1,9
 226 421 226 421 226 448 c 0,10,11
 226 466 226 466 217.5 476.5 c 128,-1,12
 209 487 209 487 194 496 c 2,13,-1
 150 524 l 2,14,15
 145 528 145 528 137.5 533.5 c 128,-1,16
 130 539 130 539 123 547 c 128,-1,17
 116 555 116 555 111 565.5 c 128,-1,18
 106 576 106 576 106 590 c 0,19,20
 106 632 106 632 135 657 c 128,-1,21
 164 682 164 682 208 682 c 0,22,23
 231 682 231 682 250.5 671 c 128,-1,24
 270 660 270 660 288 642 c 1,25,-1
 266 622 l 1,26,27
 249 640 249 640 236 648 c 128,-1,28
 223 656 223 656 206 656 c 0,29,30
 174 656 174 656 155 638 c 128,-1,31
 136 620 136 620 136 600 c 256,32,33
 136 580 136 580 146.5 567 c 128,-1,34
 157 554 157 554 168 548 c 2,35,-1
 212 520 l 2,36,37
 230 509 230 509 242 493.5 c 128,-1,38
 254 478 254 478 254 454 c 0,39,40
 254 415 254 415 225 386.5 c 128,-1,41
 196 358 196 358 146 358 c 0,0,1
306 370 m 1,42,-1
 368 676 l 1,43,-1
 410 676 l 1,44,-1
 434 544 l 1,45,-1
 448 456 l 1,46,-1
 452 456 l 1,47,-1
 500 544 l 1,48,-1
 580 676 l 1,49,-1
 622 676 l 1,50,-1
 560 370 l 1,51,-1
 532 370 l 1,52,-1
 566 540 l 1,53,-1
 590 642 l 1,54,-1
 586 642 l 1,55,-1
 456 418 l 1,56,-1
 430 418 l 1,57,-1
 388 642 l 1,58,-1
 384 642 l 1,59,-1
 368 540 l 1,60,-1
 334 370 l 1,61,-1
 306 370 l 1,42,-1
EndSplineSet
EndChar

StartChar: at
Encoding: 64 64 554
Width: 772
Flags: W
LayerCount: 2
Fore
SplineSet
330 -142 m 0,0,1
 268 -142 268 -142 215.5 -120.5 c 128,-1,2
 163 -99 163 -99 125.5 -59.5 c 128,-1,3
 88 -20 88 -20 67 36.5 c 128,-1,4
 46 93 46 93 46 164 c 0,5,6
 46 264 46 264 81.5 348.5 c 128,-1,7
 117 433 117 433 175.5 494.5 c 128,-1,8
 234 556 234 556 308.5 591 c 128,-1,9
 383 626 383 626 462 626 c 0,10,11
 527 626 527 626 578 605 c 128,-1,12
 629 584 629 584 663.5 546.5 c 128,-1,13
 698 509 698 509 716 456.5 c 128,-1,14
 734 404 734 404 734 340 c 0,15,16
 734 272 734 272 718 218.5 c 128,-1,17
 702 165 702 165 675.5 128.5 c 128,-1,18
 649 92 649 92 615.5 73 c 128,-1,19
 582 54 582 54 548 54 c 0,20,21
 512 54 512 54 491 75.5 c 128,-1,22
 470 97 470 97 464 130 c 1,23,-1
 462 130 l 1,24,25
 436 101 436 101 408.5 81.5 c 128,-1,26
 381 62 381 62 346 62 c 0,27,28
 326 62 326 62 306.5 70 c 128,-1,29
 287 78 287 78 272 94 c 128,-1,30
 257 110 257 110 247.5 134 c 128,-1,31
 238 158 238 158 238 190 c 0,32,33
 238 232 238 232 253 273 c 128,-1,34
 268 314 268 314 293.5 347 c 128,-1,35
 319 380 319 380 353.5 400 c 128,-1,36
 388 420 388 420 428 420 c 0,37,38
 452 420 452 420 471 406 c 128,-1,39
 490 392 490 392 504 368 c 1,40,-1
 506 368 l 1,41,-1
 518 412 l 1,42,-1
 542 412 l 1,43,-1
 494 200 l 2,44,45
 482 149 482 149 494.5 114.5 c 128,-1,46
 507 80 507 80 552 80 c 0,47,48
 580 80 580 80 607.5 97 c 128,-1,49
 635 114 635 114 657 147 c 128,-1,50
 679 180 679 180 692.5 227 c 128,-1,51
 706 274 706 274 706 334 c 256,52,53
 706 394 706 394 690 443 c 128,-1,54
 674 492 674 492 643 527 c 128,-1,55
 612 562 612 562 566 581 c 128,-1,56
 520 600 520 600 460 600 c 0,57,58
 387 600 387 600 317.5 567 c 128,-1,59
 248 534 248 534 194 476.5 c 128,-1,60
 140 419 140 419 107 340 c 128,-1,61
 74 261 74 261 74 170 c 0,62,63
 74 103 74 103 93 50 c 128,-1,64
 112 -3 112 -3 146 -40 c 128,-1,65
 180 -77 180 -77 227.5 -96.5 c 128,-1,66
 275 -116 275 -116 332 -116 c 0,67,68
 376 -116 376 -116 411.5 -107 c 128,-1,69
 447 -98 447 -98 480 -78 c 1,70,-1
 492 -100 l 1,71,72
 453 -123 453 -123 412 -132.5 c 128,-1,73
 371 -142 371 -142 330 -142 c 0,0,1
348 88 m 0,74,75
 404 88 404 88 458 160 c 1,76,-1
 498 338 l 1,77,78
 480 371 480 371 462 382.5 c 128,-1,79
 444 394 444 394 426 394 c 0,80,81
 391 394 391 394 361.5 375.5 c 128,-1,82
 332 357 332 357 311 328 c 128,-1,83
 290 299 290 299 278 264 c 128,-1,84
 266 229 266 229 266 196 c 0,85,86
 266 140 266 140 290.5 114 c 128,-1,87
 315 88 315 88 348 88 c 0,74,75
EndSplineSet
Substitution2: "'case' Case-Sensitive Forms in Latin lookup 19 subtable" at.case
Substitution2: "'aalt' Access All Alternates in Latin lookup 0 subtable" at.case
EndChar

StartChar: at.case
Encoding: 65623 -1 555
Width: 776
Flags: W
LayerCount: 2
Fore
SplineSet
368 -12 m 0,0,1
 310 -12 310 -12 262.5 6.5 c 128,-1,2
 215 25 215 25 180.5 59 c 128,-1,3
 146 93 146 93 127 141 c 128,-1,4
 108 189 108 189 108 248 c 0,5,6
 108 341 108 341 140 419.5 c 128,-1,7
 172 498 172 498 225 555 c 128,-1,8
 278 612 278 612 347.5 644 c 128,-1,9
 417 676 417 676 492 676 c 0,10,11
 553 676 553 676 600.5 657.5 c 128,-1,12
 648 639 648 639 680.5 605 c 128,-1,13
 713 571 713 571 730 524 c 128,-1,14
 747 477 747 477 747 420 c 0,15,16
 747 356 747 356 733.5 307 c 128,-1,17
 720 258 720 258 697.5 224.5 c 128,-1,18
 675 191 675 191 646 173.5 c 128,-1,19
 617 156 617 156 586 156 c 0,20,21
 550 156 550 156 529 176.5 c 128,-1,22
 508 197 508 197 502 230 c 1,23,-1
 500 230 l 1,24,25
 474 201 474 201 446.5 182.5 c 128,-1,26
 419 164 419 164 384 164 c 0,27,28
 366 164 366 164 348.5 171.5 c 128,-1,29
 331 179 331 179 317 194.5 c 128,-1,30
 303 210 303 210 294.5 234 c 128,-1,31
 286 258 286 258 286 290 c 0,32,33
 286 328 286 328 299.5 365.5 c 128,-1,34
 313 403 313 403 336.5 432.5 c 128,-1,35
 360 462 360 462 392 480 c 128,-1,36
 424 498 424 498 462 498 c 0,37,38
 510 498 510 498 538 448 c 1,39,-1
 540 448 l 1,40,-1
 552 492 l 1,41,-1
 576 492 l 1,42,-1
 532 300 l 2,43,44
 520 249 520 249 532.5 215.5 c 128,-1,45
 545 182 545 182 590 182 c 0,46,47
 614 182 614 182 637 197.5 c 128,-1,48
 660 213 660 213 678.5 242.5 c 128,-1,49
 697 272 697 272 708 315 c 128,-1,50
 719 358 719 358 719 414 c 0,51,52
 719 467 719 467 703.5 510.5 c 128,-1,53
 688 554 688 554 659 585 c 128,-1,54
 630 616 630 616 587.5 633 c 128,-1,55
 545 650 545 650 490 650 c 0,56,57
 421 650 421 650 357 620 c 128,-1,58
 293 590 293 590 244 537 c 128,-1,59
 195 484 195 484 165.5 411.5 c 128,-1,60
 136 339 136 339 136 254 c 0,61,62
 136 198 136 198 153 154 c 128,-1,63
 170 110 170 110 200.5 78.5 c 128,-1,64
 231 47 231 47 274 30.5 c 128,-1,65
 317 14 317 14 370 14 c 0,66,67
 414 14 414 14 449.5 23 c 128,-1,68
 485 32 485 32 518 52 c 1,69,-1
 530 30 l 1,70,71
 491 7 491 7 450 -2.5 c 128,-1,72
 409 -12 409 -12 368 -12 c 0,0,1
386 190 m 0,73,74
 413 190 413 190 441 207 c 128,-1,75
 469 224 469 224 496 260 c 1,76,-1
 532 418 l 1,77,78
 514 451 514 451 496 461.5 c 128,-1,79
 478 472 478 472 460 472 c 0,80,81
 427 472 427 472 400 455.5 c 128,-1,82
 373 439 373 439 354 413.5 c 128,-1,83
 335 388 335 388 324.5 357 c 128,-1,84
 314 326 314 326 314 296 c 0,85,86
 314 240 314 240 335.5 215 c 128,-1,87
 357 190 357 190 386 190 c 0,73,74
EndSplineSet
EndChar

StartChar: numbersign
Encoding: 35 35 556
Width: 458
Flags: W
LayerCount: 2
Fore
SplineSet
42 0 m 1,0,-1
 110 218 l 1,1,-1
 28 218 l 1,2,-1
 36 246 l 1,3,-1
 118 246 l 1,4,-1
 172 424 l 1,5,-1
 88 424 l 1,6,-1
 96 452 l 1,7,-1
 182 452 l 1,8,-1
 244 650 l 1,9,-1
 272 650 l 1,10,-1
 210 452 l 1,11,-1
 356 452 l 1,12,-1
 418 650 l 1,13,-1
 446 650 l 1,14,-1
 384 452 l 1,15,-1
 466 452 l 1,16,-1
 458 424 l 1,17,-1
 376 424 l 1,18,-1
 322 246 l 1,19,-1
 406 246 l 1,20,-1
 398 218 l 1,21,-1
 312 218 l 1,22,-1
 244 0 l 1,23,-1
 216 0 l 1,24,-1
 284 218 l 1,25,-1
 138 218 l 1,26,-1
 70 0 l 1,27,-1
 42 0 l 1,0,-1
146 246 m 1,28,-1
 294 246 l 1,29,-1
 348 424 l 1,30,-1
 200 424 l 1,31,-1
 146 246 l 1,28,-1
EndSplineSet
EndChar

StartChar: zero.dnom
Encoding: 65628 -1 585
Width: 342
Flags: W
LayerCount: 2
Fore
SplineSet
128 -12 m 0,0,1
 99 -12 99 -12 78.5 -0.5 c 128,-1,2
 58 11 58 11 44.5 31 c 128,-1,3
 31 51 31 51 24.5 77.5 c 128,-1,4
 18 104 18 104 18 134 c 0,5,6
 18 176 18 176 29 223 c 128,-1,7
 40 270 40 270 61.5 310 c 128,-1,8
 83 350 83 350 115.5 376 c 128,-1,9
 148 402 148 402 192 402 c 0,10,11
 220 402 220 402 241 390.5 c 128,-1,12
 262 379 262 379 275.5 359 c 128,-1,13
 289 339 289 339 295.5 312.5 c 128,-1,14
 302 286 302 286 302 256 c 0,15,16
 302 214 302 214 291 167 c 128,-1,17
 280 120 280 120 258.5 80 c 128,-1,18
 237 40 237 40 204 14 c 128,-1,19
 171 -12 171 -12 128 -12 c 0,0,1
130 12 m 0,20,21
 166 12 166 12 193 36 c 128,-1,22
 220 60 220 60 238 96 c 128,-1,23
 256 132 256 132 265 173.5 c 128,-1,24
 274 215 274 215 274 250 c 0,25,26
 274 277 274 277 269.5 300 c 128,-1,27
 265 323 265 323 255 340.5 c 128,-1,28
 245 358 245 358 229 368 c 128,-1,29
 213 378 213 378 190 378 c 0,30,31
 154 378 154 378 127 354 c 128,-1,32
 100 330 100 330 82 294 c 128,-1,33
 64 258 64 258 55 216.5 c 128,-1,34
 46 175 46 175 46 140 c 0,35,36
 46 113 46 113 50.5 90 c 128,-1,37
 55 67 55 67 65 49.5 c 128,-1,38
 75 32 75 32 91 22 c 128,-1,39
 107 12 107 12 130 12 c 0,20,21
EndSplineSet
EndChar

StartChar: one.dnom
Encoding: 65629 -1 586
Width: 340
Flags: W
LayerCount: 2
Fore
SplineSet
122 0 m 1,0,-1
 188 334 l 1,1,-1
 96 334 l 1,2,-1
 100 354 l 1,3,4
 138 360 138 360 160.5 367.5 c 128,-1,5
 183 375 183 375 204 390 c 1,6,-1
 226 390 l 1,7,-1
 148 0 l 1,8,-1
 122 0 l 1,0,-1
EndSplineSet
EndChar

StartChar: two.dnom
Encoding: 65630 -1 587
Width: 344
Flags: W
LayerCount: 2
Fore
SplineSet
6 0 m 1,0,-1
 10 24 l 1,1,2
 79 74 79 74 126.5 112 c 128,-1,3
 174 150 174 150 203.5 181.5 c 128,-1,4
 233 213 233 213 246.5 241.5 c 128,-1,5
 260 270 260 270 260 302 c 0,6,7
 260 338 260 338 241 358 c 128,-1,8
 222 378 222 378 182 378 c 0,9,10
 156 378 156 378 131.5 362 c 128,-1,11
 107 346 107 346 86 322 c 1,12,-1
 68 340 l 1,13,14
 91 364 91 364 120 383 c 128,-1,15
 149 402 149 402 184 402 c 0,16,17
 232 402 232 402 260 375.5 c 128,-1,18
 288 349 288 349 288 304 c 0,19,20
 288 269 288 269 274 238 c 128,-1,21
 260 207 260 207 231 174 c 128,-1,22
 202 141 202 141 157.5 104.5 c 128,-1,23
 113 68 113 68 52 24 c 1,24,-1
 252 24 l 1,25,-1
 248 0 l 1,26,-1
 6 0 l 1,0,-1
EndSplineSet
EndChar

StartChar: three.dnom
Encoding: 65631 -1 588
Width: 344
Flags: W
LayerCount: 2
Fore
SplineSet
126 -12 m 0,0,1
 81 -12 81 -12 49 13 c 128,-1,2
 17 38 17 38 2 68 c 1,3,-1
 24 82 l 1,4,5
 39 53 39 53 63 32.5 c 128,-1,6
 87 12 87 12 128 12 c 0,7,8
 148 12 148 12 166.5 18 c 128,-1,9
 185 24 185 24 199 35.5 c 128,-1,10
 213 47 213 47 221.5 63.5 c 128,-1,11
 230 80 230 80 230 102 c 0,12,13
 230 137 230 137 199 163.5 c 128,-1,14
 168 190 168 190 106 190 c 1,15,-1
 112 214 l 1,16,17
 150 214 150 214 177 222.5 c 128,-1,18
 204 231 204 231 221 244.5 c 128,-1,19
 238 258 238 258 246 274.5 c 128,-1,20
 254 291 254 291 254 308 c 0,21,22
 254 340 254 340 234 359 c 128,-1,23
 214 378 214 378 178 378 c 0,24,25
 129 378 129 378 82 339 c 1,26,-1
 68 360 l 1,27,28
 119 402 119 402 180 402 c 0,29,30
 225 402 225 402 253.5 377.5 c 128,-1,31
 282 353 282 353 282 308 c 0,32,33
 282 272 282 272 254.5 241 c 128,-1,34
 227 210 227 210 182 198 c 1,35,36
 221 187 221 187 239.5 160.5 c 128,-1,37
 258 134 258 134 258 108 c 0,38,39
 258 79 258 79 247 57 c 128,-1,40
 236 35 236 35 218 19.5 c 128,-1,41
 200 4 200 4 176 -4 c 128,-1,42
 152 -12 152 -12 126 -12 c 0,0,1
EndSplineSet
EndChar

StartChar: four.dnom
Encoding: 65632 -1 589
Width: 346
Flags: W
LayerCount: 2
Fore
SplineSet
168 0 m 1,0,-1
 192 120 l 1,1,-1
 22 120 l 1,2,-1
 26 138 l 1,3,-1
 254 390 l 1,4,-1
 272 390 l 1,5,-1
 223 144 l 1,6,-1
 280 144 l 1,7,-1
 274 120 l 1,8,-1
 218 120 l 1,9,-1
 194 0 l 1,10,-1
 168 0 l 1,0,-1
62 144 m 1,11,-1
 197 144 l 1,12,-1
 216 242 l 1,13,-1
 240 340 l 1,14,-1
 236 340 l 1,15,-1
 164 258 l 1,16,-1
 62 144 l 1,11,-1
EndSplineSet
EndChar

StartChar: five.dnom
Encoding: 65633 -1 590
Width: 344
Flags: W
LayerCount: 2
Fore
SplineSet
130 -12 m 0,0,1
 82 -12 82 -12 49.5 13 c 128,-1,2
 17 38 17 38 2 68 c 1,3,-1
 24 82 l 1,4,5
 39 53 39 53 64.5 32.5 c 128,-1,6
 90 12 90 12 138 12 c 0,7,8
 157 12 157 12 176 20.5 c 128,-1,9
 195 29 195 29 210.5 45 c 128,-1,10
 226 61 226 61 236 83.5 c 128,-1,11
 246 106 246 106 246 134 c 0,12,13
 246 179 246 179 222.5 204.5 c 128,-1,14
 199 230 199 230 160 230 c 0,15,16
 130 230 130 230 112.5 220.5 c 128,-1,17
 95 211 95 211 74 194 c 1,18,-1
 60 208 l 1,19,-1
 112 390 l 1,20,-1
 304 390 l 1,21,-1
 298 366 l 1,22,-1
 132 366 l 1,23,-1
 94 234 l 1,24,25
 109 245 109 245 127 249.5 c 128,-1,26
 145 254 145 254 162 254 c 0,27,28
 212 254 212 254 243 223.5 c 128,-1,29
 274 193 274 193 274 140 c 0,30,31
 274 105 274 105 262 76.5 c 128,-1,32
 250 48 250 48 230 28.5 c 128,-1,33
 210 9 210 9 184 -1.5 c 128,-1,34
 158 -12 158 -12 130 -12 c 0,0,1
EndSplineSet
EndChar

StartChar: six.dnom
Encoding: 65634 -1 591
Width: 346
Flags: W
LayerCount: 2
Fore
SplineSet
150 -12 m 256,0,1
 127 -12 127 -12 105 -2.5 c 128,-1,2
 83 7 83 7 66.5 26 c 128,-1,3
 50 45 50 45 40 72.5 c 128,-1,4
 30 100 30 100 30 136 c 0,5,6
 30 200 30 200 46 250 c 128,-1,7
 62 300 62 300 88.5 333.5 c 128,-1,8
 115 367 115 367 149.5 384.5 c 128,-1,9
 184 402 184 402 222 402 c 0,10,11
 275 402 275 402 308 372 c 1,12,-1
 290 352 l 1,13,14
 264 378 264 378 220 378 c 0,15,16
 193 378 193 378 166 365 c 128,-1,17
 139 352 139 352 117 327 c 128,-1,18
 95 302 95 302 79.5 265.5 c 128,-1,19
 64 229 64 229 60 181 c 1,20,21
 77 204 77 204 106.5 221 c 128,-1,22
 136 238 136 238 170 238 c 0,23,24
 220 238 220 238 248 208 c 128,-1,25
 276 178 276 178 276 134 c 0,26,27
 276 99 276 99 265 71.5 c 128,-1,28
 254 44 254 44 236 25.5 c 128,-1,29
 218 7 218 7 195.5 -2.5 c 128,-1,30
 173 -12 173 -12 150 -12 c 256,0,1
152 12 m 0,31,32
 171 12 171 12 188 20.5 c 128,-1,33
 205 29 205 29 218.5 44.5 c 128,-1,34
 232 60 232 60 240 81 c 128,-1,35
 248 102 248 102 248 128 c 0,36,37
 248 167 248 167 227 190.5 c 128,-1,38
 206 214 206 214 168 214 c 0,39,40
 142 214 142 214 112 198.5 c 128,-1,41
 82 183 82 183 58 148 c 1,42,-1
 58 144 l 2,43,44
 58 109 58 109 66 84.5 c 128,-1,45
 74 60 74 60 87 43.5 c 128,-1,46
 100 27 100 27 117 19.5 c 128,-1,47
 134 12 134 12 152 12 c 0,31,32
EndSplineSet
EndChar

StartChar: seven.dnom
Encoding: 65635 -1 592
Width: 344
Flags: W
LayerCount: 2
Fore
SplineSet
82 0 m 1,0,1
 108 103 108 103 155.5 193 c 128,-1,2
 203 283 203 283 284 366 c 1,3,-1
 70 366 l 1,4,-1
 76 390 l 1,5,-1
 322 390 l 1,6,-1
 320 372 l 1,7,8
 270 324 270 324 235.5 277.5 c 128,-1,9
 201 231 201 231 177 184.5 c 128,-1,10
 153 138 153 138 137.5 92 c 128,-1,11
 122 46 122 46 112 0 c 1,12,-1
 82 0 l 1,0,1
EndSplineSet
EndChar

StartChar: eight.dnom
Encoding: 65636 -1 593
Width: 346
Flags: W
LayerCount: 2
Fore
SplineSet
130 -12 m 0,0,1
 83 -12 83 -12 50.5 15.5 c 128,-1,2
 18 43 18 43 18 90 c 0,3,4
 18 112 18 112 26.5 131 c 128,-1,5
 35 150 35 150 49 165.5 c 128,-1,6
 63 181 63 181 81 193.5 c 128,-1,7
 99 206 99 206 118 214 c 1,8,-1
 118 218 l 1,9,10
 101 233 101 233 88.5 252 c 128,-1,11
 76 271 76 271 76 294 c 0,12,13
 76 318 76 318 85 338 c 128,-1,14
 94 358 94 358 110 372 c 128,-1,15
 126 386 126 386 147.5 394 c 128,-1,16
 169 402 169 402 194 402 c 0,17,18
 236 402 236 402 265 376 c 128,-1,19
 294 350 294 350 294 307 c 0,20,21
 294 287 294 287 286.5 270 c 128,-1,22
 279 253 279 253 267 239 c 128,-1,23
 255 225 255 225 241 214 c 128,-1,24
 227 203 227 203 214 196 c 1,25,-1
 214 192 l 1,26,27
 235 177 235 177 249.5 157.5 c 128,-1,28
 264 138 264 138 264 106 c 0,29,30
 264 80 264 80 253.5 58 c 128,-1,31
 243 36 243 36 225 20.5 c 128,-1,32
 207 5 207 5 182.5 -3.5 c 128,-1,33
 158 -12 158 -12 130 -12 c 0,0,1
188 208 m 1,34,35
 226 226 226 226 246 250.5 c 128,-1,36
 266 275 266 275 266 301 c 0,37,38
 266 337 266 337 245.5 357.5 c 128,-1,39
 225 378 225 378 192 378 c 0,40,41
 154 378 154 378 129 355.5 c 128,-1,42
 104 333 104 333 104 300 c 0,43,44
 104 265 104 265 128 242.5 c 128,-1,45
 152 220 152 220 188 208 c 1,34,35
132 12 m 0,46,47
 151 12 151 12 170 18 c 128,-1,48
 189 24 189 24 203.5 35.5 c 128,-1,49
 218 47 218 47 227 63.5 c 128,-1,50
 236 80 236 80 236 100 c 0,51,52
 236 122 236 122 228 137.5 c 128,-1,53
 220 153 220 153 206.5 163.5 c 128,-1,54
 193 174 193 174 175 182.5 c 128,-1,55
 157 191 157 191 138 200 c 1,56,57
 93 180 93 180 69.5 152.5 c 128,-1,58
 46 125 46 125 46 96 c 0,59,60
 46 55 46 55 71.5 33.5 c 128,-1,61
 97 12 97 12 132 12 c 0,46,47
EndSplineSet
EndChar

StartChar: nine.dnom
Encoding: 65637 -1 594
Width: 346
Flags: W
LayerCount: 2
Fore
SplineSet
152 176 m 0,0,1
 178 176 178 176 208 191.5 c 128,-1,2
 238 207 238 207 262 242 c 1,3,-1
 262 246 l 2,4,5
 262 280 262 280 254 305 c 128,-1,6
 246 330 246 330 233 346.5 c 128,-1,7
 220 363 220 363 203 370.5 c 128,-1,8
 186 378 186 378 168 378 c 0,9,10
 149 378 149 378 132 369.5 c 128,-1,11
 115 361 115 361 101.5 345.5 c 128,-1,12
 88 330 88 330 80 308.5 c 128,-1,13
 72 287 72 287 72 262 c 0,14,15
 72 223 72 223 93 199.5 c 128,-1,16
 114 176 114 176 152 176 c 0,0,1
98 -12 m 0,17,18
 45 -12 45 -12 12 18 c 1,19,-1
 30 38 l 1,20,21
 56 12 56 12 100 12 c 0,22,23
 127 12 127 12 154 25 c 128,-1,24
 181 38 181 38 203 63 c 128,-1,25
 225 88 225 88 240 124.5 c 128,-1,26
 255 161 255 161 260 209 c 1,27,28
 243 186 243 186 213.5 169 c 128,-1,29
 184 152 184 152 150 152 c 0,30,31
 100 152 100 152 72 182 c 128,-1,32
 44 212 44 212 44 256 c 0,33,34
 44 291 44 291 55 318.5 c 128,-1,35
 66 346 66 346 84 364.5 c 128,-1,36
 102 383 102 383 124.5 392.5 c 128,-1,37
 147 402 147 402 170 402 c 256,38,39
 193 402 193 402 215 392.5 c 128,-1,40
 237 383 237 383 253.5 364 c 128,-1,41
 270 345 270 345 280 317.5 c 128,-1,42
 290 290 290 290 290 254 c 0,43,44
 290 189 290 189 274 139.5 c 128,-1,45
 258 90 258 90 231.5 56.5 c 128,-1,46
 205 23 205 23 170 5.5 c 128,-1,47
 135 -12 135 -12 98 -12 c 0,17,18
EndSplineSet
EndChar

StartChar: parenleft.dnom
Encoding: 65638 -1 595
Width: 204
Flags: W
LayerCount: 2
Fore
SplineSet
80 -72 m 1,0,1
 60 -33 60 -33 50 15 c 128,-1,2
 40 63 40 63 40 114 c 0,3,4
 40 210 40 210 74.5 291 c 128,-1,5
 109 372 109 372 184 456 c 1,6,-1
 200 442 l 1,7,8
 129 361 129 361 97.5 279.5 c 128,-1,9
 66 198 66 198 66 112 c 0,10,11
 66 71 66 71 73 23.5 c 128,-1,12
 80 -24 80 -24 98 -60 c 1,13,-1
 80 -72 l 1,0,1
EndSplineSet
EndChar

StartChar: parenright.dnom
Encoding: 65639 -1 596
Width: 204
Flags: W
LayerCount: 2
Fore
SplineSet
-4 -72 m 1,0,-1
 -20 -58 l 1,1,2
 51 23 51 23 82.5 104.5 c 128,-1,3
 114 186 114 186 114 272 c 0,4,5
 114 313 114 313 107 360.5 c 128,-1,6
 100 408 100 408 82 444 c 1,7,-1
 100 456 l 1,8,9
 120 417 120 417 130 369 c 128,-1,10
 140 321 140 321 140 270 c 0,11,12
 140 174 140 174 105.5 93 c 128,-1,13
 71 12 71 12 -4 -72 c 1,0,-1
EndSplineSet
EndChar

StartChar: period.dnom
Encoding: 65640 -1 597
Width: 146
Flags: W
LayerCount: 2
Fore
SplineSet
22 -8 m 0,0,1
 -4 -8 -4 -8 -4 20 c 0,2,3
 -4 37 -4 37 7.5 48.5 c 128,-1,4
 19 60 19 60 34 60 c 0,5,6
 45 60 45 60 52.5 52 c 128,-1,7
 60 44 60 44 60 32 c 0,8,9
 60 14 60 14 48.5 3 c 128,-1,10
 37 -8 37 -8 22 -8 c 0,0,1
EndSplineSet
EndChar

StartChar: comma.dnom
Encoding: 65641 -1 598
Width: 146
Flags: W
LayerCount: 2
Fore
SplineSet
-24 -104 m 1,0,-1
 -34 -82 l 1,1,2
 -8 -68 -8 -68 9.5 -48.5 c 128,-1,3
 27 -29 27 -29 32 -2 c 1,4,-1
 26 -2 l 2,5,6
 15 -2 15 -2 7.5 4.5 c 128,-1,7
 0 11 0 11 0 25 c 0,8,9
 0 43 0 43 10 51.5 c 128,-1,10
 20 60 20 60 34 60 c 256,11,12
 48 60 48 60 56 49 c 128,-1,13
 64 38 64 38 64 18 c 0,14,15
 64 -23 64 -23 39 -53.5 c 128,-1,16
 14 -84 14 -84 -24 -104 c 1,0,-1
EndSplineSet
EndChar

StartChar: a.sups
Encoding: 7491 7491 616
Width: 346
Flags: W
LayerCount: 2
Fore
SplineSet
92 518 m 0,0,1
 92 563 92 563 107 602.5 c 128,-1,2
 122 642 122 642 146.5 671 c 128,-1,3
 171 700 171 700 202.5 717 c 128,-1,4
 234 734 234 734 268 734 c 0,5,6
 292 734 292 734 313 722.5 c 128,-1,7
 334 711 334 711 348 684 c 1,8,-1
 352 684 l 1,9,-1
 364 726 l 1,10,-1
 384 726 l 1,11,-1
 322 410 l 1,12,-1
 300 410 l 1,13,-1
 310 462 l 1,14,-1
 306 462 l 1,15,16
 280 435 280 435 250.5 418.5 c 128,-1,17
 221 402 221 402 186 402 c 0,18,19
 144 402 144 402 118 431.5 c 128,-1,20
 92 461 92 461 92 518 c 0,0,1
188 426 m 256,21,22
 218 426 218 426 251.5 447 c 128,-1,23
 285 468 285 468 314 500 c 1,24,-1
 344 652 l 1,25,26
 326 685 326 685 306.5 697.5 c 128,-1,27
 287 710 287 710 266 710 c 0,28,29
 238 710 238 710 211.5 694 c 128,-1,30
 185 678 185 678 164 651.5 c 128,-1,31
 143 625 143 625 130.5 591 c 128,-1,32
 118 557 118 557 118 522 c 0,33,34
 118 472 118 472 138 449 c 128,-1,35
 158 426 158 426 188 426 c 256,21,22
EndSplineSet
Substitution2: "'ss02' Style Set 2 in Latin lookup 21 subtable" a.supa
Substitution2: "'aalt' Access All Alternates in Latin lookup 0 subtable" a.supa
EndChar

StartChar: b.sups
Encoding: 7495 7495 617
Width: 352
Flags: W
LayerCount: 2
Fore
SplineSet
86 410 m 1,0,-1
 66 410 l 1,1,-1
 160 884 l 1,2,-1
 186 884 l 1,3,-1
 160 752 l 1,4,-1
 146 686 l 1,5,-1
 148 686 l 1,6,7
 174 707 174 707 201.5 720.5 c 128,-1,8
 229 734 229 734 264 734 c 0,9,10
 306 734 306 734 332 704.5 c 128,-1,11
 358 675 358 675 358 618 c 0,12,13
 358 573 358 573 343 533.5 c 128,-1,14
 328 494 328 494 303.5 465 c 128,-1,15
 279 436 279 436 247.5 419 c 128,-1,16
 216 402 216 402 182 402 c 0,17,18
 158 402 158 402 137 413.5 c 128,-1,19
 116 425 116 425 102 452 c 1,20,-1
 98 452 l 1,21,-1
 86 410 l 1,0,-1
262 710 m 256,22,23
 232 710 232 710 200.5 694 c 128,-1,24
 169 678 169 678 140 652 c 1,25,-1
 106 484 l 1,26,27
 124 451 124 451 143.5 438.5 c 128,-1,28
 163 426 163 426 184 426 c 0,29,30
 212 426 212 426 238.5 442 c 128,-1,31
 265 458 265 458 286 484.5 c 128,-1,32
 307 511 307 511 319.5 545 c 128,-1,33
 332 579 332 579 332 614 c 0,34,35
 332 664 332 664 312 687 c 128,-1,36
 292 710 292 710 262 710 c 256,22,23
EndSplineSet
EndChar

StartChar: c.sups
Encoding: 7580 7580 618
Width: 288
Flags: W
LayerCount: 2
Fore
SplineSet
182 402 m 0,0,1
 129 402 129 402 96.5 435.5 c 128,-1,2
 64 469 64 469 64 528 c 0,3,4
 64 564 64 564 76.5 600.5 c 128,-1,5
 89 637 89 637 111.5 667 c 128,-1,6
 134 697 134 697 166 715.5 c 128,-1,7
 198 734 198 734 236 734 c 0,8,9
 263 734 263 734 283 724 c 128,-1,10
 303 714 303 714 320 696 c 1,11,-1
 302 678 l 1,12,13
 287 695 287 695 271 702.5 c 128,-1,14
 255 710 255 710 232 710 c 0,15,16
 201 710 201 710 175 693 c 128,-1,17
 149 676 149 676 130 649.5 c 128,-1,18
 111 623 111 623 100.5 591.5 c 128,-1,19
 90 560 90 560 90 532 c 0,20,21
 90 479 90 479 117.5 452.5 c 128,-1,22
 145 426 145 426 184 426 c 0,23,24
 207 426 207 426 227 434.5 c 128,-1,25
 247 443 247 443 264 454 c 1,26,-1
 276 434 l 1,27,28
 259 422 259 422 235.5 412 c 128,-1,29
 212 402 212 402 182 402 c 0,0,1
EndSplineSet
EndChar

StartChar: d.sups
Encoding: 7496 7496 619
Width: 352
Flags: W
LayerCount: 2
Fore
SplineSet
324 684 m 1,0,-1
 334 748 l 1,1,-1
 360 878 l 1,2,-1
 386 878 l 1,3,-1
 294 410 l 1,4,-1
 272 410 l 1,5,-1
 282 462 l 1,6,-1
 278 462 l 1,7,8
 252 435 252 435 222.5 418.5 c 128,-1,9
 193 402 193 402 158 402 c 0,10,11
 116 402 116 402 90 431.5 c 128,-1,12
 64 461 64 461 64 518 c 0,13,14
 64 563 64 563 79 602.5 c 128,-1,15
 94 642 94 642 118.5 671 c 128,-1,16
 143 700 143 700 174.5 717 c 128,-1,17
 206 734 206 734 240 734 c 0,18,19
 264 734 264 734 285 722.5 c 128,-1,20
 306 711 306 711 320 684 c 1,21,-1
 324 684 l 1,0,-1
160 426 m 256,22,23
 190 426 190 426 223.5 447 c 128,-1,24
 257 468 257 468 286 500 c 1,25,-1
 316 652 l 1,26,27
 298 685 298 685 278.5 697.5 c 128,-1,28
 259 710 259 710 238 710 c 0,29,30
 210 710 210 710 183.5 694 c 128,-1,31
 157 678 157 678 136 651.5 c 128,-1,32
 115 625 115 625 102.5 591 c 128,-1,33
 90 557 90 557 90 522 c 0,34,35
 90 472 90 472 110 449 c 128,-1,36
 130 426 130 426 160 426 c 256,22,23
EndSplineSet
EndChar

StartChar: e.sups
Encoding: 7497 7497 620
Width: 316
Flags: W
LayerCount: 2
Fore
SplineSet
64 534 m 0,0,1
 64 578 64 578 78.5 615 c 128,-1,2
 93 652 93 652 116.5 678.5 c 128,-1,3
 140 705 140 705 169.5 719.5 c 128,-1,4
 199 734 199 734 230 734 c 0,5,6
 259 734 259 734 278.5 724 c 128,-1,7
 298 714 298 714 309.5 698 c 128,-1,8
 321 682 321 682 325.5 662 c 128,-1,9
 330 642 330 642 330 622 c 0,10,11
 330 605 330 605 327.5 591.5 c 128,-1,12
 325 578 325 578 320 566 c 1,13,-1
 94 566 l 1,14,15
 83 503 83 503 107.5 464.5 c 128,-1,16
 132 426 132 426 186 426 c 0,17,18
 213 426 213 426 234 435.5 c 128,-1,19
 255 445 255 445 272 456 c 1,20,-1
 284 434 l 1,21,22
 266 423 266 423 241 412.5 c 128,-1,23
 216 402 216 402 184 402 c 0,24,25
 128 402 128 402 96 435.5 c 128,-1,26
 64 469 64 469 64 534 c 0,0,1
100 590 m 1,27,-1
 300 590 l 1,28,29
 303 601 303 601 303.5 608.5 c 128,-1,30
 304 616 304 616 304 624 c 0,31,32
 304 657 304 657 286 683.5 c 128,-1,33
 268 710 268 710 228 710 c 0,34,35
 208 710 208 710 188 701 c 128,-1,36
 168 692 168 692 150.5 676 c 128,-1,37
 133 660 133 660 119.5 638 c 128,-1,38
 106 616 106 616 100 590 c 1,27,-1
EndSplineSet
EndChar

StartChar: f.sups
Encoding: 7584 7584 621
Width: 172
Flags: W
LayerCount: 2
Fore
SplineSet
66 410 m 1,0,-1
 125 702 l 1,1,-1
 82 702 l 1,2,-1
 86 724 l 1,3,-1
 130 726 l 1,4,-1
 144 798 l 2,5,6
 153 846 153 846 177.5 869 c 128,-1,7
 202 892 202 892 234 892 c 0,8,9
 259 892 259 892 284 878 c 1,10,-1
 272 856 l 1,11,12
 264 861 264 861 255 864.5 c 128,-1,13
 246 868 246 868 232 868 c 0,14,15
 209 868 209 868 192.5 849.5 c 128,-1,16
 176 831 176 831 170 802 c 2,17,-1
 155 726 l 1,18,-1
 230 726 l 1,19,-1
 226 702 l 1,20,-1
 150 702 l 1,21,-1
 92 410 l 1,22,-1
 66 410 l 1,0,-1
EndSplineSet
EndChar

StartChar: g.sups
Encoding: 7501 7501 622
Width: 344
Flags: W
LayerCount: 2
Fore
SplineSet
336 726 m 1,0,-1
 356 726 l 1,1,-1
 291 396 l 2,2,3
 279 336 279 336 242.5 297 c 128,-1,4
 206 258 206 258 150 258 c 0,5,6
 121 258 121 258 92.5 269.5 c 128,-1,7
 64 281 64 281 40 302 c 1,8,-1
 56 322 l 1,9,10
 74 305 74 305 99.5 293.5 c 128,-1,11
 125 282 125 282 152 282 c 0,12,13
 197 282 197 282 225.5 315 c 128,-1,14
 254 348 254 348 266 402 c 2,15,-1
 278 462 l 1,16,-1
 274 462 l 1,17,18
 248 441 248 441 219.5 427.5 c 128,-1,19
 191 414 191 414 158 414 c 0,20,21
 116 414 116 414 90 442.5 c 128,-1,22
 64 471 64 471 64 524 c 0,23,24
 64 567 64 567 79 605 c 128,-1,25
 94 643 94 643 118.5 671.5 c 128,-1,26
 143 700 143 700 174.5 717 c 128,-1,27
 206 734 206 734 240 734 c 0,28,29
 264 734 264 734 285 722.5 c 128,-1,30
 306 711 306 711 320 684 c 1,31,-1
 324 684 l 1,32,-1
 336 726 l 1,0,-1
160 438 m 256,33,34
 190 438 190 438 223.5 455.5 c 128,-1,35
 257 473 257 473 286 500 c 1,36,-1
 316 652 l 1,37,38
 298 685 298 685 278.5 697.5 c 128,-1,39
 259 710 259 710 238 710 c 0,40,41
 210 710 210 710 183.5 694 c 128,-1,42
 157 678 157 678 136 652 c 128,-1,43
 115 626 115 626 102.5 593.5 c 128,-1,44
 90 561 90 561 90 528 c 0,45,46
 90 483 90 483 110 460.5 c 128,-1,47
 130 438 130 438 160 438 c 256,33,34
EndSplineSet
Substitution2: "'ss03' Style Set 3 in Latin lookup 22 subtable" g.supa
Substitution2: "'aalt' Access All Alternates in Latin lookup 0 subtable" g.supa
EndChar

